<?xml version="1.0" standalone="no"?>
<!DOCTYPE svg PUBLIC "-//W3C//DTD SVG 20010904//EN"
 "http://www.w3.org/TR/2001/REC-SVG-20010904/DTD/svg10.dtd">
<svg version="1.0" xmlns="http://www.w3.org/2000/svg"
 width="205.000000pt" height="204.000000pt" viewBox="0 0 205.000000 204.000000"
 preserveAspectRatio="xMidYMid meet">
<metadata>
Created by potrace 1.13, written by Peter Selinger 2001-2015
</metadata>
<g transform="translate(0.000000,204.000000) scale(0.100000,-0.100000)"
fill="#000000" stroke="none">
<path d="M865 2030 c-256 -40 -500 -186 -655 -392 -472 -627 -99 -1525 676
-1629 243 -32 538 41 719 179 59 44 71 86 36 121 -31 31 -55 26 -139 -29 -148
-97 -305 -143 -487 -142 -208 1 -387 63 -549 191 -378 301 -440 863 -136 1245
280 353 794 434 1172 186 84 -55 108 -60 139 -29 35 35 23 77 -36 121 -78 59
-220 125 -330 154 -112 28 -306 40 -410 24z"/>
<path d="M1794 1558 c-23 -11 -44 -48 -44 -77 0 -10 9 -30 21 -45 26 -33 88
-37 119 -6 31 31 27 93 -6 119 -29 23 -57 26 -90 9z"/>
<path d="M1640 1232 c-35 -35 -38 -69 -10 -105 39 -49 110 -42 134 14 24 57
-1 103 -62 115 -26 5 -36 1 -62 -24z"/>
<path d="M1912 1237 c-47 -50 -10 -137 58 -137 41 0 80 39 80 80 0 69 -91 107
-138 57z"/>
<path d="M962 1228 c-60 -13 -136 -87 -152 -147 -23 -88 12 -182 88 -236 39
-27 52 -30 116 -30 63 0 78 4 115 28 165 109 108 361 -89 390 -19 3 -54 0 -78
-5z"/>
<path d="M1372 1077 c-32 -34 -30 -89 4 -116 57 -45 134 -5 134 69 0 60 -95
93 -138 47z"/>
<path d="M1933 930 c-37 -15 -54 -69 -37 -115 10 -24 60 -46 89 -39 32 8 65
49 65 81 0 29 -51 83 -77 82 -10 0 -28 -4 -40 -9z"/>
<path d="M1631 904 c-64 -81 42 -182 114 -109 53 52 18 135 -57 135 -28 0 -42
-7 -57 -26z"/>
<path d="M1775 605 c-73 -72 28 -178 109 -114 20 16 26 29 26 59 0 72 -84 106
-135 55z"/>
</g>
</svg>
