<?xml version="1.0" encoding="UTF-8" standalone="no"?>
<svg
   xmlns:dc="http://purl.org/dc/elements/1.1/"
   xmlns:cc="http://creativecommons.org/ns#"
   xmlns:rdf="http://www.w3.org/1999/02/22-rdf-syntax-ns#"
   xmlns:svg="http://www.w3.org/2000/svg"
   xmlns="http://www.w3.org/2000/svg"
   viewBox="0 0 382.5 153.75"
   height="153.75"
   width="382.5"
   xml:space="preserve"
   version="1.1"
   id="svg2"><metadata
     id="metadata8"><rdf:RDF><cc:Work
         rdf:about=""><dc:format>image/svg+xml</dc:format><dc:type
           rdf:resource="http://purl.org/dc/dcmitype/StillImage" /></cc:Work></rdf:RDF></metadata><defs
     id="defs6" /><g
     transform="matrix(1.25,0,0,-1.25,0,153.75)"
     id="g10"><g
       transform="scale(0.1,0.1)"
       id="g12"><path
         id="path14"
         style="fill:#5ac4a8;fill-opacity:1;fill-rule:nonzero;stroke:none"
         d="m 1284.91,622.094 688.83,569.776 c 0,0 51.55,41.32 114.95,-2.82 41.86,-29.15 517.41,-345.476 537.17,-365.237 32.34,-32.348 6.36,-57.813 6.36,-57.813 L 2365.19,550.605 c 0,0 -28.54,-25.347 -82.8,11.25 -17.65,11.911 -396.01,275.344 -413.94,290.567 -47.82,40.59 -91.23,5.625 -91.23,5.625 L 1382.13,546.82 c 0,0 -31.15,-29.156 -51.26,-16.054 -14.04,9.148 -48.67,35.781 -65.37,48.984 -16.5,14.297 19.41,42.344 19.41,42.344" /><path
         id="path16"
         style="fill:#5ac4a8;fill-opacity:1;fill-rule:nonzero;stroke:none"
         d="m 339,625.18 785.55,586.53 c 0,0 49.31,36.22 105.29,-2.82 38.21,-26.63 310.52,-217.113 332.42,-234.472 37.23,-29.523 6.36,-57.813 6.36,-57.813 L 1252.35,647.457 c 0,0 -34.24,-27.754 -73.14,0 -17.35,12.371 -223.054,159.953 -265.253,193.711 -43.301,34.641 -91.23,-5.629 -91.23,-5.629 L 436.211,549.902 c 0,0 -38.535,-30.742 -58.379,-13.367 -12.605,11.043 -19.703,16.746 -48.238,41.598 -23.336,24.82 9.406,47.047 9.406,47.047" /><path
         id="path18"
         style="fill:#231f20;fill-opacity:1;fill-rule:nonzero;stroke:none"
         d="m 316.531,333.531 c 37.434,-34.918 55.828,-80.386 55.828,-134.484 0,-118.4767 -86.847,-183.6603 -199.558,-183.6603 l -145.1369,0 C 16.5,15.3867 6.68359,25.2031 6.68359,36.3672 l 0,327.6758 c 0,11.164 9.81641,20.98 20.98051,20.98 l 145.1369,0 c 57.73,0 106.344,-16.617 143.73,-51.492 z M 99.7188,295.91 l 0,-191.414 73.8552,0 c 61.453,0 104.18,30.777 104.18,95.328 0,61.723 -45.215,96.086 -104.18,96.086 l -73.8552,0" /><path
         id="path20"
         style="fill:#231f20;fill-opacity:1;fill-rule:nonzero;stroke:none"
         d="m 743.16,125.488 c 22.942,19.629 34.102,43.879 34.102,74.321 0,70.711 -64.352,104.746 -127.508,104.746 -63.586,0 -126.742,-33.821 -126.742,-104.746 0,-70.926 63.164,-104.7426 126.742,-104.7426 39.801,0 70.316,10.6606 93.406,30.4216 z M 491.984,59.8242 c -42.14,36.9336 -63.578,84.0738 -63.578,139.9728 0,124.422 106.407,193.867 221.348,193.867 115.484,0 222.113,-68.625 222.113,-193.867 0,-124.6368 -106.914,-194.62512 -222.113,-194.62512 -62.535,0 -115.703,17.78122 -157.77,54.65232" /><path
         id="path22"
         style="fill:#231f20;fill-opacity:1;fill-rule:nonzero;stroke:none"
         d="m 1070.15,15.3867 c -8.1,0 -16.51,7.1133 -18.75,11.5664 C 980.043,169.074 910.395,304.867 884.715,357.953 c -5.094,10.527 1.492,27.07 20.906,27.07 l 54.461,0 c 10.203,0 14.535,-3.406 18.75,-11.566 L 1083.04,165.914 1185.58,373.34 c 4.13,10.137 11.56,11.371 18.81,11.683 l 56.37,0 c 16.34,0 22.14,-18.882 17.19,-28.16 -8.31,-15.554 -96.87,-191.199 -162.58,-329.8903 -2.14,-4.5157 -8.75,-11.586 -18.76,-11.586 l -26.46,0" /><path
         id="path24"
         style="fill:#231f20;fill-opacity:1;fill-rule:nonzero;stroke:none"
         d="m 1340.38,364.043 c 0,11.164 9.82,20.98 20.98,20.98 l 307.22,0 c 11.16,0 20.97,-9.816 20.97,-20.98 l 0,-47.938 c 0,-11.164 -9.81,-20.976 -20.97,-20.976 l -235.16,0 0,-39.762 147.16,0 c 11.16,0 20.98,-9.816 20.98,-20.98 l 0,-47.149 c 0,-11.164 -9.82,-20.984 -20.98,-20.984 l -147.16,0 0,-61.758 249.3,0 c 11.16,0 20.98,-9.8163 20.98,-20.9804 l 0,-47.1484 c 0,-11.1641 -9.82,-20.9805 -20.98,-20.9805 l -321.36,0 c -11.16,0 -20.98,9.8164 -20.98,20.9805 l 0,327.6758" /><path
         id="path26"
         style="fill:#231f20;fill-opacity:1;fill-rule:nonzero;stroke:none"
         d="M 2076.39,30.625 C 2042.75,13.4844 2004.93,5.17188 1963.43,5.17188 c -114.53,0 -219.01,70.69922 -219.01,193.86712 0,123.078 104.31,194.625 219.01,194.625 71.14,0 142.03,-26.691 185.05,-85.586 5.82,-7.969 5.19,-17.078 -4.34,-25.789 -5.23,-4.789 -32.27,-23.34 -41.47,-29.098 -9.21,-5.757 -22.54,-6.691 -28.76,1.848 -25.53,35.043 -68.48,49.516 -110.44,49.516 -62.34,0 -124.45,-35.918 -124.45,-104.746 0,-68.594 62.33,-104.7426 124.45,-104.7426 69.6,0 108.94,49.4256 116.91,60.7926 7.97,11.36 19.21,14.239 30.84,6.223 5.41,-3.723 39.29,-26.652 44.69,-31.746 5.4,-5.094 7.76,-14.242 1.86,-23.527 -20.65,-32.4418 -47.64,-58.9965 -81.38,-76.184" /><path
         id="path28"
         style="fill:#231f20;fill-opacity:1;fill-rule:nonzero;stroke:none"
         d="m 2529.07,125.488 c 22.94,19.629 34.09,43.879 34.09,74.321 0,70.711 -64.35,104.746 -127.5,104.746 -63.59,0 -126.74,-33.821 -126.74,-104.746 0,-70.926 63.16,-104.7426 126.74,-104.7426 39.8,0 70.32,10.6606 93.41,30.4216 z M 2277.89,59.8242 c -42.14,36.9336 -63.58,84.0738 -63.58,139.9728 0,124.422 106.41,193.867 221.35,193.867 115.48,0 222.11,-68.625 222.11,-193.867 0,-124.6368 -106.91,-194.62512 -222.11,-194.62512 -62.53,0 -115.7,17.78122 -157.77,54.65232" /><path
         id="path30"
         style="fill:#231f20;fill-opacity:1;fill-rule:nonzero;stroke:none"
         d="m 2826.34,297.484 -117.3,0 c -11.16,0 -20.98,9.817 -20.98,20.981 l 0,45.578 c 0,11.164 9.82,20.98 20.98,20.98 l 327.64,0 c 11.16,0 20.98,-9.816 20.98,-20.98 l 0,-45.578 c 0,-11.164 -9.82,-20.981 -20.98,-20.981 l -117.3,0 0,-261.1168 c 0,-11.1641 -9.82,-20.9805 -20.99,-20.9805 l -51.07,0 c -11.16,0 -20.98,9.8164 -20.98,20.9805 l 0,261.1168" /></g></g></svg>