<?xml version="1.0" standalone="no"?>
<!DOCTYPE svg PUBLIC "-//W3C//DTD SVG 20010904//EN"
 "http://www.w3.org/TR/2001/REC-SVG-20010904/DTD/svg10.dtd">
<svg version="1.0" xmlns="http://www.w3.org/2000/svg"
 width="214.000000pt" height="165.000000pt" viewBox="0 0 214.000000 165.000000"
 preserveAspectRatio="xMidYMid meet">
<metadata>
Created by potrace 1.13, written by Peter Selinger 2001-2015
</metadata>
<g transform="translate(0.000000,165.000000) scale(0.100000,-0.100000)"
fill="#000000" stroke="none">
<path d="M715 1163 c0 -21 -3 -59 -7 -85 l-8 -48 117 0 116 0 -7 53 c-3 28 -6
67 -6 85 l0 32 -102 0 -103 0 0 -37z"/>
<path d="M680 884 c0 -11 -3 -43 -6 -71 l-7 -53 152 0 151 0 -6 58 c-4 31 -9
60 -13 64 -3 3 -66 9 -138 13 -126 7 -133 7 -133 -11z"/>
<path d="M222 712 c-131 -47 -222 -207 -222 -392 0 -84 23 -190 52 -243 87
-157 268 -45 268 167 0 34 4 66 8 73 4 6 26 18 50 26 124 43 187 146 152 251
-34 106 -183 162 -308 118z m162 -86 c71 -30 90 -114 37 -166 -27 -28 -76 -48
-87 -37 -3 3 0 31 7 62 12 53 11 59 -6 71 -26 19 -33 18 -65 -15 -21 -21 -31
-42 -36 -79 l-6 -50 -34 14 c-30 13 -35 13 -40 -1 -12 -30 6 -65 42 -83 l36
-17 -4 -87 c-3 -69 -9 -94 -25 -116 -30 -40 -58 -40 -80 0 -15 28 -18 57 -18
183 0 143 1 153 27 205 33 68 44 82 88 109 41 25 114 28 164 7z"/>
<path d="M1264 709 c-31 -16 -70 -82 -96 -165 l-23 -74 -47 0 c-26 0 -50 -5
-53 -10 -11 -19 16 -40 51 -40 18 0 35 -4 38 -8 3 -5 2 -30 -2 -58 -6 -44 -11
-51 -45 -67 -55 -28 -71 -11 -63 64 5 44 3 59 -9 69 -23 19 -62 4 -90 -37 -24
-37 -25 -37 -25 -11 0 39 -10 58 -30 58 -24 0 -37 -17 -51 -73 l-12 -48 -45
46 c-102 101 -244 94 -304 -15 -15 -27 -18 -51 -16 -107 3 -64 7 -76 32 -102
102 -106 257 34 213 192 -7 25 -6 27 10 18 10 -5 37 -26 60 -46 l43 -36 -7
-59 c-4 -46 -2 -65 11 -85 34 -52 58 -28 102 100 29 86 44 106 44 59 0 -32 50
-84 82 -84 13 0 41 9 63 20 22 11 40 20 41 20 1 0 7 -20 14 -45 14 -50 58 -95
93 -95 12 0 57 18 100 40 76 39 77 40 77 16 0 -26 28 -56 54 -56 24 0 67 24
90 49 l19 21 18 -30 c10 -16 24 -30 31 -31 34 -3 67 5 112 28 39 20 50 22 57
11 5 -7 9 -16 9 -19 0 -13 53 -29 93 -29 53 0 107 15 175 48 51 25 52 26 52
68 l0 42 -52 -29 c-29 -16 -56 -29 -59 -29 -6 0 -9 16 -26 115 -3 22 1 35 16
49 27 25 27 63 1 71 -35 11 -58 -4 -119 -78 -67 -83 -126 -139 -170 -161 -58
-31 -58 -34 -35 175 6 52 4 58 -15 64 -47 15 -57 1 -80 -113 -15 -80 -26 -111
-42 -124 -43 -36 -48 -5 -23 136 17 97 12 113 -29 102 -30 -7 -53 -53 -63
-124 -4 -29 -9 -50 -12 -47 -3 3 -19 -6 -36 -19 -17 -13 -51 -33 -75 -46 -35
-18 -48 -20 -67 -11 -22 10 -24 16 -24 93 1 114 13 128 109 128 57 0 72 3 79
18 17 31 3 42 -53 42 l-54 0 27 52 c39 74 38 150 -1 184 -31 27 -33 27 -63 13z
m-653 -365 c31 -38 0 -174 -43 -182 -57 -11 -65 120 -11 180 20 22 37 23 54 2z"/>
<path d="M647 613 c-4 -3 -7 -19 -7 -35 0 -37 28 -48 140 -55 82 -5 195 8 212
25 5 5 5 23 2 40 l-6 32 -168 0 c-91 0 -170 -3 -173 -7z"/>
</g>
</svg>
