<?xml version="1.0" standalone="no"?>
<!DOCTYPE svg PUBLIC "-//W3C//DTD SVG 20010904//EN"
 "http://www.w3.org/TR/2001/REC-SVG-20010904/DTD/svg10.dtd">
<svg version="1.0" xmlns="http://www.w3.org/2000/svg"
 width="757.000000pt" height="684.000000pt" viewBox="0 0 757.000000 684.000000"
 preserveAspectRatio="xMidYMid meet">
<metadata>
Created by potrace 1.13, written by Peter Selinger 2001-2015
</metadata>
<g transform="translate(0.000000,684.000000) scale(0.100000,-0.100000)"
fill="#000000" stroke="none">
<path d="M615 6576 c-31 -13 -55 -51 -55 -86 0 -12 -17 -28 -51 -46 -28 -16
-57 -40 -65 -56 -16 -31 -18 -86 -4 -108 7 -11 10 -7 10 17 0 28 6 36 38 52
40 20 155 51 190 51 11 0 24 5 27 10 3 6 -3 10 -15 10 -12 0 -18 5 -15 10 7
12 -14 12 -73 1 -49 -10 -54 5 -9 27 55 27 317 68 317 50 0 -4 -8 -8 -17 -9
-12 0 -8 -4 10 -11 38 -14 34 -24 -15 -41 -36 -13 -39 -16 -16 -16 14 -1 48
10 75 23 64 33 211 46 501 46 210 0 223 -1 239 -20 12 -13 29 -20 53 -20 l35
1 -34 15 c-44 19 -31 32 34 36 35 2 49 7 47 16 -3 16 197 15 249 -2 45 -15 44
-40 -1 -46 -27 -4 -36 -10 -38 -29 -3 -16 0 -21 8 -16 21 13 102 13 138 1 42
-15 50 -48 19 -77 -18 -17 -22 -17 -37 -4 -19 17 -50 20 -50 5 0 -5 -11 -10
-25 -10 -16 0 -25 6 -25 15 0 8 -4 15 -10 15 -5 0 -10 -4 -10 -10 0 -5 -10 -9
-21 -7 -16 1 -22 -4 -24 -21 -2 -27 0 -29 40 -33 24 -3 29 -1 27 14 -3 19 32
25 43 6 9 -14 63 -1 98 23 24 17 27 26 27 71 -1 87 -20 100 -185 121 -121 16
-313 21 -265 7 27 -8 -172 -18 -535 -25 -121 -3 -209 -2 -195 3 17 5 -8 9 -80
13 -88 6 -218 23 -305 42 -11 3 -34 -1 -50 -8z"/>
<path d="M1261 6374 c-161 -7 -298 -18 -305 -23 -18 -15 -174 -32 -246 -26
-38 3 -57 2 -46 -3 13 -6 4 -8 -30 -8 -31 0 -65 -9 -92 -22 -46 -24 -46 -25
-33 -51 8 -14 4 -21 -20 -35 -36 -21 -59 -64 -59 -108 l1 -33 20 27 c22 30
109 62 199 74 51 7 79 24 40 24 -12 0 -18 4 -15 11 5 7 -13 8 -57 3 -63 -7
-63 -7 -45 14 12 13 41 24 85 32 116 20 122 21 122 30 0 4 -9 6 -20 3 -20 -5
-57 4 -49 12 3 2 38 9 79 15 41 5 111 15 156 21 87 13 278 4 268 -12 -3 -5
-58 -10 -122 -10 -64 -1 -130 -5 -147 -10 -20 -5 1 -7 60 -4 50 3 230 10 400
16 171 6 314 15 320 20 5 5 -19 9 -58 9 -37 0 -67 4 -67 10 0 13 279 5 293 -9
8 -8 3 -11 -18 -12 -26 0 -27 -2 -10 -9 11 -5 30 -9 43 -9 18 -1 22 4 22 29
l0 30 -114 0 c-66 0 -117 4 -121 10 -7 12 -50 11 -434 -6z"/>
<path d="M1530 6303 c-194 -4 -573 -24 -610 -32 -32 -7 -33 -8 -12 -15 36 -12
26 -24 -40 -46 l-63 -20 55 6 c30 4 66 15 80 25 38 28 145 39 443 46 263 6
269 5 297 -16 16 -12 44 -21 62 -21 l33 1 -33 14 c-46 20 -31 35 36 36 39 0
51 3 37 8 -28 11 -149 17 -285 14z"/>
<path d="M1605 6154 c-16 -2 -166 -8 -331 -14 -220 -7 -309 -14 -328 -24 l-27
-13 23 -6 c13 -4 25 -2 26 3 4 12 209 13 303 3 62 -7 63 -8 24 -14 -22 -3 50
-8 160 -10 110 -2 160 -4 110 -6 -273 -7 -612 -27 -658 -38 -51 -12 -51 -13
-14 -14 49 -1 47 -16 -5 -35 -24 -8 -50 -17 -58 -20 -8 -3 7 -3 34 0 27 3 61
15 76 26 37 27 263 47 526 48 176 0 193 -2 217 -20 14 -11 38 -20 54 -19 l28
1 -27 10 c-54 19 -28 37 55 39 l52 2 -60 9 c-33 5 -76 13 -95 18 l-35 8 40 2
c22 1 34 4 28 7 -7 2 -13 11 -13 19 0 16 45 18 124 8 44 -6 64 -23 29 -25 -15
0 -15 -2 2 -9 11 -5 55 -9 98 -9 77 -1 147 -20 147 -40 0 -7 -28 -11 -70 -11
-40 0 -70 -4 -70 -10 0 -5 -7 -10 -15 -10 -8 0 -15 -5 -15 -11 0 -8 15 -10 46
-6 42 4 45 3 41 -15 -5 -19 -4 -19 12 -4 16 14 28 15 79 7 58 -9 102 -25 102
-37 0 -3 -5 -14 -10 -25 -6 -10 -8 -19 -6 -19 15 0 37 66 32 95 -9 45 -42 72
-106 87 -46 10 -50 13 -25 15 17 2 41 6 55 10 l25 6 -30 13 c-22 9 -88 13
-242 14 -130 0 -214 4 -218 10 -6 10 -25 10 -90 4z"/>
<path d="M663 6093 c4 -6 -3 -8 -18 -6 -29 6 -119 -23 -135 -43 -10 -11 -9
-18 1 -31 12 -14 12 -17 -1 -21 -8 -3 -30 -20 -47 -38 -27 -26 -33 -40 -33
-74 l0 -41 23 26 c27 31 109 62 189 71 56 6 92 24 48 24 -12 0 -18 4 -15 10 4
6 -16 8 -57 3 -63 -6 -63 -6 -45 15 12 13 41 24 85 32 110 18 155 32 140 41
-11 7 -10 11 2 19 12 7 8 10 -16 10 -17 0 -53 3 -79 7 -32 4 -46 3 -42 -4z"/>
<path d="M1620 5920 c0 -3 -46 -5 -102 -5 -249 0 -547 -16 -575 -30 l-28 -15
33 0 c18 0 43 -6 55 -12 21 -12 20 -13 -18 -20 -22 -3 23 -4 100 -1 261 10
590 22 622 22 17 0 34 5 38 11 4 6 -6 10 -24 10 -17 0 -31 5 -31 10 0 6 5 10
11 10 6 0 4 7 -5 15 -14 14 -76 18 -76 5z"/>
<path d="M6408 5910 c-39 -21 -78 -64 -78 -87 0 -11 -9 -13 -44 -8 -25 4 -59
2 -78 -4 -40 -13 -92 -64 -107 -103 -9 -24 -13 -26 -46 -18 -21 5 -50 4 -71
-3 -43 -13 -101 -78 -109 -121 l-6 -31 -79 0 c-74 0 -81 -2 -110 -30 -17 -17
-37 -50 -45 -79 -19 -64 -19 -89 1 -53 12 21 22 27 50 27 40 0 98 -26 89 -41
-4 -5 -22 -7 -41 -3 -27 5 -34 3 -34 -10 0 -9 11 -21 25 -26 14 -5 25 -17 25
-27 1 -12 7 -6 19 16 11 21 21 30 25 22 4 -6 14 -11 22 -11 8 0 12 5 9 10 -10
16 5 12 36 -11 16 -11 29 -16 29 -10 0 5 -4 13 -10 16 -5 3 -10 11 -10 16 0 6
5 7 11 3 8 -5 10 1 6 18 -4 14 -4 28 -1 31 19 18 134 -85 154 -139 18 -48 23
-77 12 -70 -6 3 -13 2 -16 -3 -3 -5 10 -20 28 -35 19 -14 42 -33 51 -42 9 -9
19 -13 23 -9 4 4 1 10 -5 12 -7 3 -13 9 -13 14 0 5 -14 31 -31 59 -17 27 -29
55 -27 60 4 14 94 -62 142 -120 20 -25 50 -61 67 -80 l30 -35 -16 44 c-20 58
-19 59 10 25 33 -37 244 -355 274 -411 6 -13 16 -23 22 -23 6 0 -3 24 -20 53
-16 28 -40 72 -53 97 -13 25 -26 47 -30 48 -5 2 -8 10 -8 18 0 9 -4 13 -8 10
-18 -11 -185 265 -170 280 15 15 271 -381 288 -448 6 -22 22 -45 40 -58 17
-12 30 -19 30 -17 0 21 -203 347 -341 549 -48 70 -63 98 -53 102 8 3 14 -1 14
-8 0 -19 76 -103 85 -94 4 4 -11 38 -34 76 -48 80 -51 100 -16 100 26 0 60
-34 120 -118 79 -110 93 -124 59 -59 -25 50 -9 44 35 -11 49 -62 54 -54 10 16
-33 50 -69 128 -69 146 0 21 88 -105 227 -324 10 -15 19 -25 21 -23 5 5 -56
116 -140 252 -37 61 -68 115 -68 120 0 4 18 -12 40 -37 l40 -45 -34 70 c-19
39 -38 80 -41 92 -6 23 -6 23 47 -5 29 -15 66 -45 83 -67 16 -22 40 -54 53
-70 l23 -30 -6 28 c-3 15 -3 27 -1 27 8 0 98 -154 172 -295 109 -208 196 -410
239 -555 18 -60 26 -76 44 -78 19 -3 21 1 21 39 0 74 -119 391 -218 579 -136
261 -212 409 -212 415 0 5 10 0 21 -11 l21 -19 -15 36 c-8 19 -26 54 -41 77
-47 75 -22 100 36 36 18 -20 53 -55 77 -78 23 -23 52 -57 63 -76 19 -35 18
-30 -8 42 -28 77 -203 337 -214 318 -10 -16 -68 9 -99 44 -31 33 -56 35 -46 4
23 -74 21 -75 -39 -23 -84 72 -96 105 -36 105 16 0 32 5 35 10 19 30 77 0 167
-86 34 -32 59 -51 55 -42 -3 10 -2 20 3 23 5 3 11 -7 13 -22 3 -16 3 1 1 37
-5 81 -24 100 -96 100 -29 0 -64 8 -88 20 -49 25 -114 25 -162 0z m123 -186
c19 -23 40 -50 47 -60 11 -17 12 -15 8 13 -7 45 9 50 43 14 27 -29 57 -84 100
-186 l22 -50 -31 33 c-32 35 -46 41 -36 17 3 -8 4 -15 2 -15 -7 0 -68 92 -63
96 3 3 15 -11 27 -31 12 -20 24 -34 27 -31 3 2 -7 21 -22 41 -15 19 -30 33
-33 30 -7 -6 -32 15 -32 27 0 5 5 6 12 2 7 -4 8 -3 4 5 -4 6 -11 9 -15 7 -13
-9 -131 125 -131 149 0 12 38 -20 71 -61z m-162 34 c19 -7 55 -34 79 -60 24
-26 49 -46 54 -45 6 1 13 -4 16 -12 3 -9 0 -11 -8 -6 -8 5 -5 -3 6 -17 l19
-26 5 25 5 25 25 -27 c17 -18 25 -39 26 -65 0 -21 8 -49 17 -62 16 -23 16 -23
12 12 l-5 35 14 -30 c8 -16 10 -31 5 -33 -5 -2 -9 -11 -9 -20 0 -8 -25 18 -54
59 -64 87 -89 119 -81 102 12 -26 -14 -21 -41 8 -16 17 -44 38 -62 46 -29 14
-35 14 -43 2 -5 -8 -9 -19 -9 -25 0 -47 -94 14 -117 75 l-11 31 43 0 c24 0 47
5 50 10 8 13 21 13 64 -2z m-21 -213 c31 -38 35 -24 5 20 -19 29 -16 55 6 55
25 0 80 -68 120 -147 45 -91 41 -131 -9 -78 -23 24 -39 28 -51 11 -4 -4 -6 4
-6 18 0 16 4 23 11 19 6 -4 5 1 -3 10 -7 9 -18 14 -24 10 -6 -4 -8 0 -4 11 4
9 3 15 -2 12 -10 -7 -161 158 -161 176 0 13 58 -44 118 -117z m-218 85 c15
-11 30 -17 33 -14 3 3 21 -6 40 -20 26 -20 37 -23 41 -14 3 7 4 4 1 -7 -3 -14
10 -37 45 -75 51 -57 57 -59 40 -16 -12 32 0 33 29 2 24 -25 46 -90 36 -107
-4 -5 1 -21 10 -36 32 -48 -5 -12 -71 70 -44 54 -72 81 -84 79 -9 -1 -40 18
-67 43 -54 47 -63 52 -63 33 0 -17 -31 -48 -49 -48 -20 0 -81 56 -81 74 0 18
31 43 60 49 46 8 52 7 80 -13z m-46 -172 l45 -51 7 27 c3 14 4 35 1 45 -4 16
-1 17 26 7 42 -15 117 -120 117 -162 0 -37 -12 -49 -35 -37 -28 16 -182 162
-216 204 -48 61 -4 34 55 -33z m-204 26 c25 -2 53 -5 63 -5 10 0 59 -40 109
-90 49 -49 87 -82 84 -73 -3 9 -9 28 -12 42 l-5 27 24 -27 c14 -15 28 -24 32
-20 4 4 6 2 4 -3 -1 -6 2 -21 8 -35 24 -59 26 -73 9 -67 -11 5 -15 3 -10 -4 4
-7 2 -10 -3 -8 -14 5 -89 94 -120 141 -27 40 -40 50 -29 22 14 -36 -9 -31 -80
16 -63 43 -74 48 -74 31 0 -27 -33 -35 -67 -18 -73 38 -83 95 -15 83 20 -4 57
-9 82 -12z m821 -57 c39 -48 171 -271 218 -367 26 -52 39 -92 35 -105 -4 -16
-3 -17 5 -5 8 12 11 12 17 -5 5 -11 3 -20 -4 -23 -7 -2 -10 -8 -6 -13 3 -5 3
-9 0 -9 -4 0 -28 44 -54 98 -27 53 -81 153 -122 222 -116 200 -155 291 -89
207z"/>
<path d="M1895 5911 c-88 -4 -143 -8 -123 -9 20 -1 45 -5 55 -9 16 -6 15 -8
-7 -13 -40 -10 65 -30 158 -30 76 0 122 -13 130 -37 3 -10 -15 -13 -67 -13
-41 0 -71 -4 -71 -10 0 -5 -7 -10 -15 -10 -8 0 -15 -4 -15 -9 0 -5 20 -7 45
-5 38 4 45 3 45 -12 0 -13 3 -14 14 -5 25 21 176 -6 176 -32 0 -6 -8 -20 -17
-31 -18 -21 -18 -21 4 -2 44 37 38 117 -12 150 -12 8 -50 18 -84 22 -34 4 -60
8 -58 11 2 2 28 5 56 7 58 4 70 11 53 28 -14 14 -72 16 -267 9z"/>
<path d="M1180 5828 c-113 -5 -232 -15 -265 -22 -55 -13 -57 -14 -22 -15 54
-1 43 -22 -24 -44 l-54 -18 49 6 c27 3 63 14 81 25 47 29 205 43 486 44 212 1
239 -1 256 -16 11 -10 28 -18 39 -18 18 1 18 1 -1 16 -17 13 -18 16 -5 24 8 5
40 10 70 11 l55 2 -50 7 c-64 10 -353 9 -615 -2z"/>
<path d="M632 5794 c-134 -40 -202 -97 -202 -167 0 -40 1 -41 13 -17 16 33 80
65 175 86 42 10 79 19 81 20 2 2 -4 10 -12 19 -13 13 -24 14 -63 5 -26 -6 -48
-9 -50 -7 -10 9 42 43 79 52 23 6 37 13 32 16 -6 3 -29 0 -53 -7z"/>
<path d="M758 5619 c-2 -5 -12 -12 -23 -13 -11 -2 -19 -9 -17 -16 1 -6 -2 -8
-8 -5 -6 4 -9 13 -6 21 4 10 -4 14 -29 14 -45 0 -88 -17 -82 -33 2 -6 -2 -20
-11 -29 -14 -16 -13 -18 1 -18 9 0 19 5 22 10 9 14 62 12 119 -5 84 -25 146
-13 146 28 0 13 7 15 28 11 15 -2 54 -9 87 -13 l60 -9 -62 -1 c-34 0 -65 -6
-69 -12 -5 -8 1 -10 18 -6 23 6 63 1 168 -22 25 -5 88 -11 140 -14 129 -7 330
-29 330 -36 0 -5 112 0 183 8 5 1 5 6 2 11 -4 6 10 10 35 10 23 0 39 -4 35 -9
-8 -14 73 -24 165 -20 44 3 80 1 80 -3 0 -4 10 -8 23 -10 12 -2 22 -10 22 -18
0 -12 -16 -16 -73 -18 -63 -2 -73 -5 -70 -20 2 -11 11 -16 23 -14 11 2 25 5
30 5 6 1 9 -6 9 -15 -2 -20 11 -24 22 -7 9 15 153 6 164 -10 5 -9 9 -8 14 4
20 53 -20 120 -77 130 -18 2 -194 14 -392 25 -198 11 -368 22 -377 24 -10 2
-18 0 -18 -4 0 -5 30 -11 68 -13 64 -3 63 -4 -15 -4 -74 0 -105 8 -71 19 7 3
-44 10 -112 17 -197 20 -414 51 -424 62 -13 12 -53 12 -58 -2z"/>
<path d="M1570 5439 c-47 -4 -161 -12 -255 -18 -93 -7 -188 -14 -210 -16 l-40
-5 50 19 c71 28 39 25 -47 -3 -40 -13 -93 -27 -118 -31 -25 -4 -52 -12 -60
-17 -12 -7 -10 -8 6 -5 23 5 53 -8 43 -18 -4 -3 -30 -15 -60 -26 -49 -18 -51
-20 -16 -15 21 3 61 16 90 30 33 16 86 29 147 36 52 7 104 13 115 15 41 5 244
15 353 17 98 2 115 0 123 -15 7 -12 22 -17 47 -16 37 1 37 1 10 11 -16 5 -28
13 -28 18 0 13 59 30 103 30 22 0 38 3 34 6 -9 9 -189 11 -287 3z"/>
<path d="M568 5336 c-55 -15 -116 -58 -129 -93 -5 -13 -9 -39 -8 -56 0 -18 3
-25 6 -17 16 44 63 66 213 101 41 9 64 18 51 18 -17 1 -22 5 -17 17 4 11 2 15
-8 11 -22 -9 -106 -20 -106 -14 0 3 15 14 33 26 37 24 31 25 -35 7z"/>
<path d="M5795 5291 c-11 -35 4 -114 41 -214 20 -54 39 -96 41 -93 3 2 -3 32
-11 67 -18 69 -15 90 5 35 7 -19 17 -32 23 -29 6 3 8 2 3 -2 -4 -5 0 -16 9
-26 8 -9 16 -26 17 -38 1 -11 5 -21 10 -21 4 0 5 -5 1 -12 -5 -8 -2 -9 9 -5
11 4 17 1 17 -8 0 -8 -4 -15 -10 -15 -22 0 -8 -41 20 -59 16 -10 27 -21 23
-24 -3 -4 -2 -7 4 -7 6 0 16 -15 24 -32 7 -18 21 -46 32 -61 10 -15 20 -34 21
-41 1 -7 17 -32 35 -57 42 -56 45 -62 -81 191 -109 219 -178 388 -178 435 0
15 -4 24 -10 20 -5 -3 -10 -1 -10 4 0 19 -28 12 -35 -8z"/>
<path d="M5305 5237 c-48 -27 -75 -76 -74 -132 1 -22 4 -31 6 -20 14 55 59 59
153 13 36 -18 69 -34 74 -36 4 -3 5 4 2 15 -5 15 -1 19 19 21 35 3 96 -40 150
-105 43 -53 59 -92 33 -78 -7 4 3 -7 22 -24 47 -41 56 -39 26 6 -14 20 -24 38
-22 40 8 8 94 -39 116 -63 13 -13 30 -24 37 -24 8 0 12 -4 9 -8 -3 -5 17 -26
45 -47 27 -21 63 -54 79 -73 16 -20 32 -34 34 -31 10 10 -38 86 -105 165 -38
45 -69 85 -69 90 0 5 -19 29 -41 54 -23 25 -50 64 -60 88 -20 46 -35 56 -25
17 6 -25 -2 -32 -19 -17 -6 4 20 -21 58 -56 37 -35 67 -69 67 -75 0 -6 -26 15
-59 47 -32 31 -64 56 -72 54 -20 -4 -77 21 -134 60 l-49 33 -17 -22 c-15 -20
-20 -21 -45 -10 -16 6 -43 22 -59 35 -35 29 -26 46 26 51 19 1 41 6 50 10 10
4 38 -4 69 -20 59 -30 76 -28 31 4 -89 64 -185 78 -256 38z"/>
<path d="M1027 5118 c-9 -6 -9 -8 1 -8 22 0 8 -24 -19 -31 -20 -6 -17 -7 14
-8 34 -1 38 1 32 19 -6 18 -2 20 34 20 22 0 46 -6 53 -12 8 -8 40 -13 78 -13
47 0 64 -4 63 -12 -4 -16 24 -17 29 -2 3 9 35 8 123 -1 66 -6 149 -13 185 -15
36 -2 70 -4 75 -5 20 -5 30 1 16 9 -9 6 -4 10 17 13 23 3 29 1 24 -11 -3 -9
-1 -12 6 -7 7 4 12 3 12 -2 0 -15 96 -25 117 -13 19 11 21 10 -37 17 -14 2
-35 4 -47 6 -13 1 -19 5 -15 8 12 9 152 -1 152 -11 0 -5 -7 -9 -15 -9 -8 0
-15 -5 -15 -11 0 -7 12 -9 35 -5 19 3 51 9 71 12 26 5 35 4 30 -5 -5 -7 3 -11
22 -11 31 0 61 -24 43 -34 -6 -4 -40 -9 -76 -13 -36 -3 -65 -9 -65 -13 0 -15
13 -18 37 -7 28 12 46 -4 35 -32 -5 -14 -2 -13 15 2 26 22 134 24 156 2 13
-13 16 -13 21 1 17 43 -8 100 -55 124 -19 10 -331 40 -419 40 -33 0 -41 -3
-30 -10 11 -7 7 -10 -17 -10 -42 0 -249 17 -440 36 -157 15 -224 16 -246 2z"/>
<path d="M6589 5064 c128 -213 170 -292 165 -311 -3 -12 2 -33 11 -47 24 -36
31 -26 10 14 -9 18 -15 34 -13 36 10 10 198 -400 198 -432 0 -15 38 -39 47
-30 12 11 4 71 -19 140 -27 83 -204 446 -242 495 -30 40 -34 35 -9 -12 16 -29
27 -62 48 -137 6 -23 5 -22 -12 5 -11 17 -35 59 -53 95 -41 77 -125 205 -142
216 -7 4 -2 -10 11 -32z"/>
<path d="M1550 5000 c-47 -5 -184 -16 -305 -25 -219 -16 -371 -36 -327 -43 40
-6 23 -30 -35 -51 -53 -18 -54 -20 -18 -15 22 3 60 16 85 29 33 17 81 28 185
40 152 17 518 37 540 29 7 -3 16 -12 19 -20 6 -16 56 -20 56 -4 0 6 -7 10 -15
10 -24 0 -17 20 11 30 14 6 40 10 59 10 19 0 37 5 40 10 7 12 -165 11 -295 0z"/>
<path d="M5463 5002 c-6 -4 -10 -19 -10 -34 1 -14 5 -24 10 -21 4 2 7 -1 7 -6
0 -6 -5 -11 -11 -11 -5 0 -7 -5 -4 -10 4 -6 11 -7 17 -4 6 4 8 2 5 -4 -9 -13
2 -44 13 -37 4 3 11 -2 14 -11 3 -8 2 -13 -3 -10 -5 4 -7 -3 -4 -15 4 -13 8
-16 13 -10 4 7 11 2 18 -14 10 -21 9 -27 -3 -31 -13 -5 -13 -9 0 -34 17 -34
32 -45 32 -25 0 8 -3 12 -6 11 -3 -2 -7 7 -8 21 l-1 26 18 -28 c10 -15 16 -34
14 -43 -5 -19 31 -83 44 -80 5 2 48 -55 96 -127 128 -189 133 -185 11 10 -116
185 -259 460 -251 482 6 15 5 15 -11 5z"/>
<path d="M4934 4931 c-39 -24 -74 -80 -74 -117 1 -26 2 -27 11 -11 14 25 61
16 142 -24 32 -17 64 -28 70 -25 9 3 8 5 -1 5 -7 1 -17 12 -22 25 -5 14 -25
32 -44 41 -36 17 -44 37 -27 64 15 23 127 15 181 -14 34 -17 34 -17 20 0 -8
10 -42 31 -75 47 -71 33 -136 37 -181 9z"/>
<path d="M560 4901 c-82 -25 -130 -73 -130 -130 0 -35 0 -35 16 -13 9 13 28
28 43 34 49 19 161 48 186 48 29 0 31 5 11 26 -12 11 -24 12 -58 4 -62 -14
-66 -12 -33 15 26 21 27 25 10 24 -11 0 -31 -4 -45 -8z"/>
<path d="M5137 4830 c-3 -12 -15 -24 -26 -27 -36 -9 -24 -26 14 -19 24 5 45 1
73 -13 77 -39 132 -134 85 -143 -13 -2 -1 -15 41 -46 33 -23 61 -40 64 -37 2
2 -12 23 -32 46 -38 45 -46 69 -22 69 20 0 193 -116 241 -161 64 -60 88 -79
93 -74 5 4 -90 111 -112 127 -6 4 -7 10 -3 14 4 4 -24 39 -61 78 -38 39 -77
86 -87 104 -21 34 -43 46 -25 12 15 -28 5 -25 -51 16 -27 20 -49 34 -49 31 0
-2 29 -26 64 -53 35 -27 70 -58 77 -69 11 -19 11 -19 -7 -4 -16 14 -101 67
-240 151 -31 18 -32 18 -37 -2z"/>
<path d="M1733 4665 c11 -10 43 -16 114 -18 147 -5 158 -20 26 -37 -59 -8 -98
-16 -86 -18 28 -4 222 14 247 24 14 5 17 4 12 -4 -5 -8 0 -12 14 -12 12 0 31
-5 42 -11 21 -11 21 -12 3 -25 -10 -8 -32 -14 -48 -14 -29 0 -29 -1 -14 -18
10 -10 14 -22 10 -27 -5 -4 1 -5 12 -1 38 15 134 19 149 7 21 -17 28 13 16 60
-13 49 -38 65 -120 78 -63 11 -305 31 -363 31 -25 0 -27 -2 -14 -15z"/>
<path d="M6600 4612 c0 -4 7 -18 17 -31 20 -30 115 -220 159 -321 19 -41 34
-70 34 -63 0 7 7 10 15 7 38 -15 4 101 -74 254 -40 78 -61 105 -95 130 -46 33
-56 37 -56 24z"/>
<path d="M4590 4597 c-41 -14 -80 -80 -80 -136 0 -35 0 -35 16 -13 20 29 48
28 130 -3 37 -14 69 -24 70 -22 12 12 -24 67 -53 81 -22 10 -33 23 -33 37 0
20 3 20 68 13 37 -4 85 -13 106 -20 54 -20 56 -11 4 20 -92 54 -159 66 -228
43z"/>
<path d="M1540 4559 c-82 -7 -157 -13 -380 -28 -58 -4 -139 -6 -180 -5 -57 1
-64 0 -30 -5 l45 -6 -55 -10 c-41 -6 -48 -10 -27 -13 42 -5 32 -27 -20 -44
-38 -13 -43 -16 -21 -17 14 -1 48 10 75 24 59 30 216 50 516 66 l210 11 17
-22 c13 -17 23 -21 39 -15 21 6 21 8 5 20 -17 12 -16 13 4 24 11 6 33 11 49
12 15 1 39 5 53 9 32 10 -185 10 -300 -1z"/>
<path d="M5014 4526 c15 -36 52 -92 103 -155 l27 -33 -47 32 c-27 18 -51 30
-53 27 -3 -3 3 -10 14 -16 11 -6 22 -17 25 -25 5 -13 -165 69 -253 122 -35 21
-36 21 -48 2 -11 -18 -10 -20 12 -20 28 0 142 -73 157 -101 13 -25 3 -41 -22
-34 -10 4 -19 4 -19 2 0 -8 122 -78 128 -73 2 3 -9 21 -27 41 -17 20 -31 38
-31 41 0 16 197 -114 329 -218 48 -37 77 -55 80 -47 4 12 -38 54 -164 166
l-50 45 53 -38 c28 -21 52 -41 52 -44 0 -4 7 -7 15 -7 8 0 -9 22 -39 48 -29
27 -60 63 -69 81 -9 18 -43 61 -77 95 -34 34 -59 67 -55 73 8 13 -11 47 -36
60 -19 11 -19 10 -5 -24z"/>
<path d="M533 4459 c-67 -26 -103 -68 -102 -117 1 -20 3 -30 6 -21 6 24 69 49
177 70 100 20 128 29 88 29 -12 0 -22 5 -22 11 0 7 -16 9 -50 4 -58 -8 -66 5
-17 29 l32 16 -30 -1 c-16 0 -53 -9 -82 -20z"/>
<path d="M6516 4414 c-4 -9 -4 -19 -1 -22 3 -3 5 1 5 8 0 11 3 11 12 2 10 -10
10 -15 -2 -22 -8 -5 -10 -10 -5 -10 6 0 3 -5 -5 -10 -12 -8 -11 -10 7 -10 17
0 21 4 17 18 -3 9 8 -8 24 -38 33 -62 47 -110 33 -110 -5 0 -13 10 -17 22 -4
12 -17 31 -30 41 -13 10 -24 25 -24 33 0 8 -7 14 -15 14 -8 0 -21 10 -30 23
-8 13 -29 33 -46 46 -31 23 -31 22 12 -40 55 -82 189 -249 199 -249 4 0 8 17
8 38 1 25 -17 72 -55 150 -61 122 -77 143 -87 116z"/>
<path d="M4636 4268 c13 -43 68 -113 172 -220 67 -69 101 -111 96 -119 -5 -9
-2 -10 9 -6 11 4 17 1 17 -7 0 -7 20 -27 45 -45 25 -18 45 -35 45 -37 0 -3
-24 11 -52 32 -29 21 -65 47 -80 58 -15 10 -25 23 -22 27 7 12 -73 62 -86 54
-6 -3 -9 -1 -8 6 2 6 -3 14 -11 17 -8 3 -11 0 -7 -7 13 -21 -15 -11 -139 51
-105 52 -126 59 -139 49 -24 -20 -19 -41 10 -41 30 0 56 -13 107 -52 40 -32
47 -55 20 -60 -13 -2 -3 -12 30 -32 52 -30 75 -29 36 3 -49 39 -6 33 98 -15
60 -27 115 -54 123 -61 8 -7 62 -44 120 -82 72 -47 106 -64 108 -55 4 16 -7
27 -59 67 -20 15 -36 33 -35 41 1 15 -69 96 -84 96 -5 0 -10 6 -10 13 0 8 -9
22 -20 32 -11 10 -20 24 -20 30 0 14 -102 102 -135 117 -27 12 -49 59 -33 69
7 5 -2 14 -26 25 -33 16 -37 22 -32 46 5 25 3 28 -20 28 -22 0 -24 -3 -18 -22z"/>
<path d="M1735 4246 c11 -8 24 -12 31 -9 12 4 164 -13 197 -23 33 -10 17 -22
-35 -27 -29 -3 -77 -11 -105 -17 -38 -9 -64 -10 -93 -2 -22 5 -40 6 -40 2 0
-5 -12 -11 -27 -13 -16 -2 10 -5 57 -5 106 -2 260 14 274 28 12 12 76 14 76 2
0 -5 12 -14 26 -20 28 -13 24 -29 -12 -42 -17 -7 -23 -16 -22 -34 2 -20 5 -23
21 -15 10 6 48 12 85 14 76 4 82 12 58 68 -16 40 -54 64 -112 72 -98 13 -313
35 -353 35 -41 0 -43 -1 -26 -14z"/>
<path d="M4290 4234 c-44 -19 -100 -72 -100 -95 0 -13 12 -17 64 -21 44 -3 71
-10 85 -22 11 -10 26 -16 33 -13 9 3 7 7 -6 13 -44 18 -73 65 -51 84 14 12
154 9 190 -4 11 -4 2 3 -20 15 -40 23 -132 58 -150 58 -5 0 -26 -7 -45 -15z"/>
<path d="M1730 4133 c-36 -2 -150 -9 -255 -18 -308 -23 -373 -26 -350 -15 16
8 11 9 -20 5 -22 -2 -57 -5 -77 -5 -20 0 -43 -6 -50 -13 -7 -8 -31 -19 -53
-24 -34 -9 -36 -11 -12 -12 38 -1 34 -19 -10 -38 -21 -9 -33 -18 -26 -20 6 -2
36 7 66 21 58 28 185 46 459 66 207 14 273 13 288 -5 7 -8 24 -15 39 -15 22 1
24 2 9 11 -10 5 -18 14 -18 18 0 10 77 31 117 32 25 0 26 1 8 9 -11 5 -27 8
-35 7 -8 0 -44 -2 -80 -4z"/>
<path d="M531 4027 c-53 -17 -101 -68 -101 -108 0 -28 2 -30 13 -17 16 21 93
44 196 59 62 10 78 15 61 21 -12 4 -19 12 -15 17 3 6 -17 7 -50 4 -61 -6 -68
-1 -27 21 l27 15 -35 0 c-19 -1 -50 -6 -69 -12z"/>
<path d="M5585 3949 c17 -18 37 -40 45 -49 32 -31 57 -76 55 -97 -1 -18 25
-47 109 -122 62 -55 133 -122 159 -150 37 -39 47 -46 47 -30 0 29 -24 70 -61
104 -17 17 -29 24 -25 18 10 -18 -9 -16 -24 2 -10 12 -10 15 0 15 7 0 -5 20
-26 43 -22 24 -63 71 -92 105 -53 62 -81 75 -59 28 7 -14 13 -23 15 -21 2 2
13 -5 25 -16 12 -10 30 -26 40 -34 9 -8 17 -21 17 -27 0 -9 -4 -8 -10 2 -5 8
-10 11 -10 6 0 -15 -70 55 -85 85 -8 15 -12 29 -8 32 6 7 -93 122 -105 122 -4
0 -14 4 -22 9 -8 5 -1 -6 15 -25z"/>
<path d="M4330 3910 c14 -26 167 -180 314 -315 66 -61 117 -115 115 -121 -2
-7 -25 0 -59 20 -38 21 -50 32 -37 34 13 3 8 9 -20 23 -20 10 -44 18 -52 16
-9 -1 -16 4 -16 11 0 8 -29 30 -65 50 -54 30 -62 32 -45 13 l20 -23 -39 16
c-22 9 -44 20 -50 25 -6 4 -55 29 -108 54 -83 39 -98 43 -98 28 0 -11 18 -25
53 -39 104 -45 138 -101 60 -103 l-38 -1 60 -28 c33 -16 68 -29 78 -29 17 -1
17 1 3 21 -21 30 -20 38 5 38 40 0 260 -112 418 -212 83 -52 80 -28 -2 27 -28
19 -49 35 -45 35 11 0 216 -127 273 -169 28 -21 68 -50 90 -67 22 -16 48 -31
59 -34 18 -5 18 -7 3 -22 -15 -15 -6 -22 111 -91 70 -41 144 -85 165 -97 37
-22 37 -22 37 -1 0 12 -14 30 -33 43 -19 13 -32 28 -30 34 3 9 -139 144 -352
334 l-60 54 48 -51 c34 -35 44 -52 35 -56 -8 -2 -23 2 -33 10 -17 14 -18 15
-2 9 28 -9 10 12 -25 30 l-31 16 21 -37 c21 -34 22 -55 3 -55 -16 0 -249 160
-272 187 -14 15 -58 59 -99 97 -41 37 -76 72 -76 77 -1 5 -2 13 -3 18 0 5 -10
12 -20 16 -11 3 -35 18 -55 33 -19 15 -51 38 -70 52 -19 14 -40 37 -45 53 -6
15 -16 27 -24 27 -8 0 -22 11 -31 25 -20 31 -20 36 2 29 14 -5 15 -4 2 5 -8 6
-23 11 -33 11 -15 0 -16 -4 -7 -20z"/>
<path d="M3957 3830 c-33 -26 -57 -70 -57 -103 0 -20 4 -23 23 -20 13 3 50 -3
84 -11 33 -9 62 -16 64 -16 2 0 4 14 5 31 1 19 -2 26 -7 18 -4 -8 -9 -11 -11
-9 -2 3 -11 15 -21 27 -15 17 -16 25 -7 42 13 25 34 26 106 5 83 -24 97 -13
25 20 -35 15 -89 30 -120 33 -47 4 -60 2 -84 -17z"/>
<path d="M1738 3833 c6 -2 9 -10 5 -16 -4 -7 0 -8 12 -4 21 9 182 -11 208 -25
30 -15 8 -28 -49 -28 -30 0 -54 -4 -54 -10 0 -5 -22 -12 -50 -16 -27 -4 -47
-11 -44 -16 4 -5 18 -7 31 -3 14 3 61 8 105 11 44 3 91 9 104 14 33 13 47 13
39 0 -4 -6 8 -10 29 -10 29 0 36 -4 36 -19 0 -13 -10 -20 -31 -25 -28 -5 -29
-7 -15 -22 9 -8 16 -20 16 -26 0 -7 5 -6 14 1 7 6 44 14 81 18 l67 6 -6 36
c-7 49 -51 87 -118 100 -118 25 -425 52 -380 34z"/>
<path d="M946 3771 c-9 -14 110 -39 214 -46 52 -3 165 -12 250 -19 85 -8 160
-11 165 -7 6 3 -12 9 -40 12 -27 3 -95 13 -150 22 -55 9 -149 19 -210 21 -60
3 -134 10 -164 16 -65 12 -59 12 -65 1z"/>
<path d="M1670 3723 c-58 -4 -96 -23 -45 -23 73 0 3 -11 -165 -25 -196 -16
-234 -14 -145 9 21 5 -27 1 -220 -19 -66 -7 -104 -14 -85 -15 26 -1 17 -5 -38
-15 -78 -14 -103 -25 -59 -25 36 0 34 -19 -3 -31 -16 -6 -30 -15 -30 -19 0
-11 39 0 76 22 39 23 213 44 496 59 199 11 219 11 236 -4 10 -10 29 -17 43
-17 22 1 23 2 7 14 -10 7 -18 16 -18 19 0 9 62 27 96 27 19 0 34 5 34 11 0 6
-28 8 -82 4 -46 -3 -89 -1 -97 4 -9 6 -5 9 14 9 14 0 32 5 38 11 6 6 9 10 7 9
-3 -1 -30 -3 -60 -5z"/>
<path d="M5290 3657 c0 -9 3 -17 8 -17 8 0 108 -94 131 -123 11 -14 11 -20 0
-33 -12 -15 -11 -18 4 -28 19 -11 94 -65 197 -140 30 -22 67 -51 82 -65 15
-13 30 -22 33 -19 19 19 -24 75 -172 226 -91 92 -160 159 -153 150 6 -9 9 -22
5 -28 -7 -12 -50 15 -102 64 -26 23 -33 26 -33 13z"/>
<path d="M530 3590 c-60 -20 -100 -58 -100 -95 0 -23 1 -23 31 -8 17 9 78 23
135 32 57 8 104 19 104 23 0 5 -5 8 -11 8 -5 0 -7 5 -3 11 5 9 -9 10 -50 5
-37 -5 -56 -4 -56 3 0 6 4 11 8 11 5 0 17 7 28 15 18 14 18 14 -6 14 -14 0
-50 -8 -80 -19z"/>
<path d="M4050 3560 c0 -17 114 -126 195 -185 69 -51 278 -216 370 -292 27
-22 28 -24 7 -20 -34 8 -20 -5 42 -37 30 -16 53 -32 51 -36 -3 -4 3 -7 13 -6
9 0 16 -4 15 -10 -2 -10 142 -84 162 -84 13 0 86 -83 82 -94 -6 -17 304 -162
323 -151 16 10 -11 66 -37 76 -13 5 -22 13 -19 17 6 10 -59 74 -144 144 -118
97 -254 201 -241 185 8 -10 9 -17 3 -17 -6 0 -13 4 -17 10 -3 5 -12 7 -20 4
-21 -8 -41 6 -24 17 11 6 10 9 -4 15 -10 3 -20 4 -22 2 -9 -8 28 -72 52 -91
13 -10 23 -23 23 -28 0 -15 -23 -10 -50 11 -30 23 -44 25 -37 6 4 -10 1 -13
-9 -9 -7 3 -14 9 -14 13 0 5 -8 11 -18 14 -10 3 -45 31 -77 61 -33 30 -100 88
-150 128 -49 39 -102 84 -116 100 -15 15 -32 27 -37 27 -6 0 -12 3 -14 8 -4 9
-55 45 -93 64 -16 9 -46 31 -67 50 -20 18 -43 39 -53 46 -9 8 -14 19 -12 25 2
7 -6 20 -19 29 -24 20 -44 23 -44 8z"/>
<path d="M3704 3420 c-42 -21 -64 -53 -64 -93 0 -20 5 -22 48 -22 26 0 62 -4
80 -8 28 -8 32 -6 32 12 0 13 -10 26 -25 33 -36 16 -28 44 10 41 17 -1 64 -4
105 -7 l75 -5 -40 20 c-47 23 -130 49 -159 49 -12 0 -39 -9 -62 -20z"/>
<path d="M1695 3423 c43 -9 50 -14 37 -22 -7 -4 22 -8 65 -9 90 -1 174 -21
181 -41 4 -11 -4 -12 -39 -7 -32 5 -50 2 -64 -8 -15 -12 -16 -16 -5 -16 12 0
11 -3 -3 -11 -40 -24 -348 -32 -355 -9 -2 5 -25 10 -50 10 -26 0 -65 5 -87 11
-22 6 -80 13 -130 15 -103 3 -182 10 -275 23 -36 4 -71 5 -79 1 -20 -10 157
-50 226 -50 32 0 96 -4 143 -9 47 -5 128 -13 180 -17 52 -5 84 -9 70 -11 -94
-12 -111 -15 -107 -19 3 -3 63 0 133 6 71 6 154 13 184 15 159 11 282 25 299
35 26 13 52 14 31 0 -11 -7 -5 -10 23 -10 30 0 37 -4 37 -19 0 -11 -9 -23 -21
-26 -17 -6 -18 -9 -7 -22 9 -12 24 -14 63 -8 103 13 109 18 80 79 -21 44 -56
62 -155 80 -112 21 -451 56 -375 39z"/>
<path d="M4110 3300 c52 -28 105 -53 118 -56 12 -3 22 -11 22 -16 0 -6 -8 -7
-17 -4 -9 4 -36 11 -59 16 -23 5 -78 26 -122 45 -127 55 -141 42 -22 -21 75
-39 82 -59 16 -51 l-41 5 35 -15 c19 -9 48 -19 63 -24 25 -7 27 -6 22 12 -4
10 -4 19 -2 19 9 0 74 -23 112 -40 181 -81 262 -118 337 -157 61 -31 94 -43
109 -38 11 4 17 10 13 15 -13 11 -164 88 -199 100 -21 8 -26 13 -16 19 9 6 10
11 2 15 -6 4 -15 5 -19 2 -24 -14 -140 43 -127 63 7 12 -42 31 -62 25 -14 -5
-15 -4 -4 4 11 8 -16 25 -114 71 -70 34 -131 61 -134 61 -3 0 37 -23 89 -50z"/>
<path d="M1647 3253 c-4 -4 -85 -8 -180 -9 -270 -3 -296 -5 -267 -15 17 -6 8
-7 -30 -3 -40 4 -51 2 -40 -5 13 -9 13 -11 -2 -11 -9 0 -25 -3 -35 -7 -16 -6
-17 -5 -3 12 14 17 13 18 -3 12 -10 -4 -46 -8 -80 -8 -51 -1 -56 -3 -27 -8
l35 -7 -49 -8 c-27 -4 -58 -11 -70 -16 -17 -7 -14 -9 18 -9 50 -1 37 -18 -32
-43 l-47 -17 40 5 c22 4 49 12 61 19 30 19 95 35 166 41 35 3 108 9 163 15 55
5 173 12 262 16 146 5 163 4 169 -10 4 -10 17 -17 33 -17 25 1 25 1 7 15 -28
21 -11 34 59 45 32 5 60 12 63 15 3 3 -42 5 -100 5 -57 0 -108 -3 -111 -7z"/>
<path d="M550 3165 c-80 -21 -120 -54 -120 -101 0 -21 2 -22 28 -9 20 10 203
43 250 45 4 0 -1 5 -11 11 -9 6 -15 14 -13 18 3 4 -19 6 -49 3 -61 -5 -68 0
-29 21 24 12 24 15 8 19 -11 2 -39 -1 -64 -7z"/>
<path d="M3810 3160 c-12 -8 -8 -16 25 -50 22 -22 60 -50 85 -62 25 -11 53
-28 62 -36 9 -7 22 -11 27 -7 6 3 11 2 11 -4 0 -13 387 -280 492 -340 67 -38
86 -58 42 -46 -16 4 -42 9 -59 10 -37 3 -240 89 -262 110 -8 9 -22 14 -30 11
-8 -3 -12 -2 -9 2 4 7 -39 28 -74 37 -3 1 -40 18 -83 38 -79 37 -113 48 -67
22 41 -23 2 -17 -94 15 -69 23 -91 27 -97 18 -6 -9 3 -19 26 -31 40 -20 44
-39 15 -60 -19 -13 -17 -15 38 -31 76 -21 86 -20 40 5 -35 18 -55 47 -25 36 6
-2 37 -10 67 -17 124 -28 205 -57 430 -148 132 -54 170 -64 170 -42 0 4 -10
10 -22 13 -12 4 -19 9 -16 12 3 4 24 -2 46 -13 l39 -19 1 29 c1 23 -7 34 -41
55 -23 14 -64 45 -90 69 -26 23 -93 73 -149 110 -55 37 -111 78 -124 91 -13
13 -40 31 -59 39 -19 8 -35 18 -35 23 0 5 -13 12 -30 16 -16 4 -32 11 -35 16
-4 5 -17 9 -31 9 -14 0 -22 4 -19 10 3 6 0 10 -8 10 -7 0 -24 10 -37 23 -14
12 -28 23 -32 23 -5 1 -11 2 -15 3 -5 1 -1 6 7 11 13 9 11 13 -10 30 -28 22
-47 25 -70 10z"/>
<path d="M1600 3105 c-42 -11 -118 -19 -465 -45 -71 -6 -152 -17 -180 -25
l-50 -15 70 6 c41 3 82 1 99 -6 19 -7 33 -7 39 -1 5 5 30 8 56 7 38 -3 40 -3
11 3 -34 6 -33 7 22 15 32 4 67 4 79 1 12 -4 24 -3 28 2 3 5 60 15 126 21 231
24 235 25 235 42 0 12 -11 11 -70 -5z"/>
<path d="M1685 3004 c11 -3 30 -7 43 -10 13 -2 21 -8 18 -12 -2 -4 28 -8 67
-10 134 -4 225 -48 113 -54 -62 -3 -76 -20 -24 -28 42 -7 22 -16 -56 -25 -31
-4 -59 -12 -62 -17 -4 -6 12 -7 40 -4 25 3 67 9 94 12 26 3 64 10 85 16 28 9
41 8 49 0 7 -7 22 -12 34 -12 31 0 39 -17 15 -31 -15 -10 -17 -18 -11 -35 5
-12 8 -24 7 -26 -1 -2 3 2 8 8 6 7 32 15 57 19 26 4 55 13 64 20 16 11 16 16
3 51 -25 65 -92 91 -304 118 -131 16 -272 28 -240 20z"/>
<path d="M3480 2993 c-29 -15 -79 -80 -80 -104 0 -3 21 -9 48 -13 26 -3 59 -9
74 -12 27 -6 27 -6 15 31 -10 33 -9 39 8 52 20 14 53 14 145 -3 49 -9 28 9
-40 34 -87 31 -130 35 -170 15z"/>
<path d="M847 2940 c-4 -18 0 -20 35 -20 22 0 76 -7 121 -15 80 -14 471 -46
552 -45 l40 1 -34 14 c-18 8 -57 15 -85 15 -29 0 -56 4 -62 9 -10 11 -297 33
-318 25 -8 -3 -44 3 -79 14 -47 14 -68 17 -76 9 -8 -8 -11 -7 -11 1 0 9 -5 10
-19 2 -11 -5 -28 -10 -38 -10 -15 0 -16 2 -3 10 13 8 13 10 -1 10 -9 0 -19 -9
-22 -20z"/>
<path d="M1690 2819 c-69 -5 -169 -12 -223 -17 -54 -4 -104 -4 -113 1 -9 5
-65 4 -132 -2 -65 -6 -175 -16 -247 -22 -71 -5 -132 -13 -135 -16 -3 -3 33 -3
80 1 53 3 76 2 60 -3 -14 -5 -38 -10 -55 -10 l-30 -2 30 -13 30 -14 -35 -15
c-19 -8 -42 -17 -50 -20 -9 -3 -3 -6 12 -6 15 -1 46 9 69 21 47 24 265 51 531
64 197 11 206 10 221 -10 8 -11 19 -15 30 -10 17 6 17 7 0 19 -17 13 -16 14
11 25 16 6 49 14 74 17 29 4 39 9 30 14 -7 5 -17 8 -23 7 -5 0 -66 -5 -135 -9z"/>
<path d="M4590 2790 c14 -12 36 -31 49 -41 13 -11 21 -22 18 -26 -4 -3 -16 2
-27 12 -11 10 -20 15 -20 12 0 -3 -12 5 -27 19 -20 19 -28 21 -35 12 -11 -17
27 -48 58 -48 13 0 24 -4 24 -10 0 -5 -5 -10 -11 -10 -7 0 -5 -10 6 -26 16
-25 16 -26 -4 -19 -15 4 -21 2 -21 -8 0 -10 8 -13 25 -9 21 4 26 0 31 -27 4
-17 10 -28 15 -26 4 3 6 12 2 20 -3 8 0 15 6 15 28 0 131 -69 131 -88 0 -16
-38 -21 -70 -9 -17 6 -30 17 -30 25 0 10 -5 10 -21 1 -21 -11 -19 -13 27 -32
27 -12 51 -25 52 -29 2 -5 13 -13 24 -19 16 -8 19 -8 13 1 -5 8 -3 11 6 8 8
-3 14 -10 14 -15 0 -6 3 -15 8 -19 13 -13 7 -25 -10 -20 -10 3 -31 8 -48 11
-62 13 4 -15 154 -65 161 -53 188 -58 197 -36 8 20 -13 56 -32 56 -10 0 -14 6
-11 14 8 19 -39 60 -193 172 -156 112 -333 233 -300 204z"/>
<path d="M518 2724 c-49 -15 -88 -53 -88 -86 0 -15 4 -17 18 -10 9 5 70 15
135 22 90 9 115 15 107 25 -5 6 -6 15 -2 19 4 5 -19 5 -50 1 -63 -8 -73 1 -30
27 l27 17 -35 0 c-19 0 -56 -7 -82 -15z"/>
<path d="M3616 2727 c-23 -17 -18 -21 94 -79 47 -25 123 -66 170 -93 118 -67
208 -119 288 -163 37 -21 79 -46 93 -55 22 -14 28 -15 44 -3 18 13 17 14 -6
28 -13 8 -53 33 -89 55 -71 44 -207 113 -221 113 -5 0 -32 18 -60 40 -27 21
-67 42 -87 46 -20 4 -49 15 -64 25 -14 11 -41 22 -60 26 -37 7 -56 22 -52 41
1 7 0 8 -3 2 -9 -19 -24 -10 -18 10 7 23 -3 26 -29 7z"/>
<path d="M3811 2706 c10 -10 81 -46 89 -46 5 0 33 -11 62 -24 29 -13 71 -29
93 -36 22 -7 49 -18 61 -25 12 -8 46 -21 77 -30 31 -9 72 -27 92 -41 44 -30
45 -30 45 -1 0 18 -9 26 -37 36 -21 7 -47 16 -58 21 -54 25 -275 113 -310 124
-40 13 -121 28 -114 22z"/>
<path d="M1480 2649 c-41 -4 -149 -13 -240 -19 -91 -6 -205 -17 -255 -26 -49
-8 -119 -18 -155 -21 -36 -3 -72 -9 -80 -14 -8 -4 20 -5 62 -2 62 5 80 3 93
-10 14 -15 14 -17 -4 -27 -25 -13 -34 -13 -26 0 4 6 -5 10 -21 10 -21 0 -24
-3 -15 -13 6 -8 8 -17 5 -20 -9 -9 43 -20 60 -14 8 3 30 2 48 -4 18 -5 101
-14 183 -19 261 -18 278 -19 395 -31 63 -6 127 -12 142 -12 15 0 25 -4 22 -9
-3 -4 -20 -8 -39 -8 -19 0 -37 -5 -41 -11 -5 -8 6 -9 37 -4 24 5 71 9 104 9
33 1 66 5 73 9 6 5 16 6 21 2 13 -7 153 14 165 26 13 12 39 11 31 -1 -4 -6 10
-10 33 -10 35 0 40 -3 45 -27 3 -16 0 -34 -6 -42 -10 -12 -9 -13 6 -8 10 4 25
7 32 7 8 0 20 6 27 13 7 7 21 16 31 20 23 9 22 48 -3 80 -26 33 -101 61 -220
80 -128 22 -310 40 -317 33 -4 -3 10 -6 30 -6 36 0 58 -15 35 -23 -7 -2 -1 -3
14 -1 51 6 238 -30 238 -46 0 -14 -27 -19 -73 -14 -28 3 -48 1 -52 -6 -11 -18
-2 -21 64 -24 77 -4 88 -13 24 -20 -26 -4 -78 -11 -115 -18 -53 -9 -71 -8 -82
1 -9 7 -37 14 -63 16 -26 1 -68 8 -93 15 -25 7 -75 14 -111 15 -37 2 -76 8
-88 15 -12 6 -70 14 -129 16 -59 3 -136 7 -172 9 -36 2 -80 8 -98 13 -37 12
-36 12 -59 12 -16 1 -16 2 1 15 11 8 16 15 10 15 -5 0 -2 5 6 10 8 6 44 10 80
11 36 0 101 2 145 5 52 4 91 1 110 -7 38 -15 195 -23 195 -9 0 5 -24 10 -52
11 -29 0 -73 4 -98 8 l-45 8 37 7 c20 4 50 5 67 1 18 -4 31 -3 31 3 0 5 27 12
60 14 33 2 66 10 72 16 7 7 8 11 3 11 -6 -1 -44 -5 -85 -10z"/>
<path d="M3257 2530 c-22 -18 -55 -85 -45 -95 8 -9 108 -21 115 -15 4 5 17 10
28 13 19 4 18 5 -2 6 -18 1 -21 6 -18 29 2 15 4 31 4 36 1 9 63 4 129 -10 60
-12 34 15 -34 36 -85 26 -144 26 -177 0z"/>
<path d="M3520 2496 c0 -3 60 -24 132 -48 74 -24 123 -44 111 -46 -12 -2 -52
6 -89 18 -37 11 -69 18 -72 15 -7 -7 -4 -9 51 -31 27 -10 47 -23 45 -29 -2 -5
-28 -10 -58 -11 -81 -1 -82 -4 -10 -25 81 -24 90 -24 90 1 0 38 40 31 344 -66
106 -34 141 -42 152 -33 13 10 32 9 89 -8 11 -3 17 -2 13 2 -6 7 -204 75 -217
75 -3 0 4 -7 15 -15 17 -13 16 -14 -16 -4 -70 22 -66 19 -50 30 11 8 10 9 -8
4 -28 -8 -100 14 -82 25 7 4 -5 7 -26 7 -22 0 -55 7 -74 16 -34 16 -34 16 -5
10 61 -12 15 7 -130 55 -156 52 -205 66 -205 58z"/>
<path d="M4380 2442 c25 -23 39 -41 33 -42 -19 0 -16 -20 3 -20 8 0 28 -14 44
-32 25 -27 27 -34 15 -41 -17 -9 -20 -27 -4 -27 6 0 17 7 25 15 13 12 20 11
60 -10 24 -13 58 -35 75 -49 17 -14 38 -26 47 -26 21 0 -33 52 -103 98 -48 32
-54 43 -12 21 36 -19 167 -120 167 -128 0 -5 11 -12 25 -15 21 -5 24 -11 19
-30 -4 -17 0 -27 13 -34 10 -6 15 -13 12 -17 -8 -8 -129 73 -129 86 0 6 -4 7
-10 4 -5 -3 -10 -17 -10 -29 l0 -24 -72 20 c-40 11 -108 30 -150 43 -43 12
-78 19 -78 14 0 -5 8 -9 17 -9 9 0 14 -3 11 -6 -6 -5 -53 6 -90 21 -10 4 -18
3 -18 -3 0 -17 53 -32 105 -30 32 1 71 -7 110 -21 91 -35 244 -81 300 -90 l50
-9 -47 -1 c-26 0 -59 4 -74 10 -16 5 -40 7 -53 4 -23 -6 -24 -8 -8 -16 28 -16
228 -59 275 -59 33 0 42 4 42 18 0 23 -12 37 -30 37 -8 0 -15 9 -15 20 0 27
-86 94 -256 198 -121 74 -287 174 -324 195 -5 3 10 -13 35 -36z"/>
<path d="M1730 2383 c-30 -1 -120 -8 -200 -15 -80 -6 -149 -11 -155 -9 -5 1
-32 5 -60 8 -35 3 -46 2 -36 -5 11 -8 4 -9 -25 -6 -42 6 -555 -33 -564 -43 -3
-3 36 -2 85 1 50 4 119 9 155 11 l65 4 -55 -13 c-46 -11 -50 -14 -27 -17 41
-6 36 -22 -14 -41 -40 -15 -41 -17 -15 -17 16 -1 43 8 62 19 44 28 218 48 645
75 70 4 89 2 99 -10 7 -8 24 -15 38 -15 25 0 25 1 6 14 -18 14 -17 15 18 30
21 9 51 16 68 16 16 0 30 5 30 10 0 6 -15 9 -32 8 -18 -1 -58 -3 -88 -5z"/>
<path d="M3364 2332 c4 -7 15 -12 25 -12 10 0 28 -11 41 -25 13 -14 47 -34 76
-45 30 -11 150 -65 268 -120 118 -55 223 -100 233 -100 10 0 26 -9 36 -20 9
-11 24 -20 32 -20 8 0 23 -4 33 -10 65 -38 340 -155 335 -144 -3 8 -11 14 -18
14 -23 0 -65 41 -65 64 0 19 6 22 51 24 31 1 48 -2 44 -8 -3 -5 -2 -10 4 -10
5 0 16 -13 24 -30 12 -24 13 -31 2 -40 -24 -20 -5 -49 38 -57 22 -5 42 -15 45
-23 4 -12 2 -13 -9 -2 -7 6 -38 12 -69 12 -30 0 -131 18 -223 40 -99 23 -180
38 -195 34 -18 -4 -23 -3 -14 4 9 6 -4 8 -37 6 -28 -1 -53 2 -57 7 -3 5 -14 9
-24 9 -16 0 -18 -4 -11 -22 7 -18 31 -28 152 -59 79 -21 156 -38 171 -38 31
-1 46 15 21 23 -31 8 80 -5 117 -15 19 -5 55 -9 80 -9 28 0 40 -3 32 -9 -15
-9 63 -21 146 -21 50 0 52 -1 42 -20 -9 -18 -18 -20 -58 -15 -33 5 -53 2 -66
-8 -20 -15 -28 -14 171 -33 72 -7 106 6 101 39 -2 12 -15 28 -30 35 -16 7 -28
21 -28 32 0 30 -161 135 -363 236 -38 20 -65 39 -59 43 6 3 -24 17 -66 30 -42
13 -94 30 -114 37 -21 8 -38 13 -38 11 0 -1 17 -18 37 -37 20 -19 34 -29 29
-22 -13 21 9 13 24 -9 26 -37 64 -76 88 -88 12 -6 22 -16 22 -22 0 -6 -7 -6
-19 1 -35 18 -47 10 -16 -10 54 -36 20 -21 -171 75 -104 52 -214 105 -244 116
-30 11 -62 27 -70 34 -18 16 -100 49 -190 77 -64 20 -98 38 -70 38 8 0 128
-36 267 -80 165 -52 259 -77 269 -72 10 6 -51 28 -188 70 -112 34 -210 62
-219 62 -24 0 -153 47 -140 51 6 2 -12 4 -40 4 -27 1 -53 6 -57 12 -4 7 -27
15 -51 19 -32 5 -42 4 -37 -4z m1030 -335 c110 -58 232 -140 239 -160 2 -6 1
-22 -4 -33 -6 -17 -3 -23 12 -27 21 -6 27 -27 7 -26 -7 0 -40 19 -73 43 -55
39 -60 46 -61 80 0 35 -5 41 -59 74 -33 20 -69 36 -82 37 -13 0 -23 5 -24 10
0 12 -61 45 -71 38 -5 -2 -8 1 -8 6 0 19 22 12 124 -42z"/>
<path d="M525 2295 c-50 -13 -95 -52 -95 -82 0 -13 8 -15 48 -9 26 4 81 9 122
13 41 3 82 9 90 14 9 5 10 9 3 9 -7 0 -10 6 -7 13 3 9 -6 12 -35 9 -70 -7 -81
3 -31 26 l45 22 -45 -1 c-25 0 -67 -6 -95 -14z"/>
<path d="M1599 2226 c-2 -2 -89 -11 -194 -20 -368 -31 -401 -35 -490 -51 -49
-8 -133 -16 -185 -16 -103 0 -130 -5 -130 -21 0 -6 22 -8 60 -4 33 3 60 1 60
-3 0 -14 52 -23 63 -12 6 6 17 11 25 11 11 0 12 -3 3 -14 -15 -18 -3 -22 74
-26 97 -4 114 -6 122 -13 3 -4 43 -7 87 -7 92 0 421 -26 511 -40 33 -6 79 -10
103 -10 53 0 55 -15 2 -24 -23 -3 -38 -11 -35 -16 7 -11 -25 -16 -187 -31 -70
-6 -136 -8 -147 -4 -21 6 -682 -43 -691 -52 -3 -3 36 -3 85 1 50 4 128 8 175
11 84 4 85 4 30 -7 -49 -10 -52 -12 -26 -17 44 -9 37 -24 -19 -43 -37 -13 -43
-17 -24 -18 15 0 51 11 80 24 58 26 220 45 558 67 143 9 165 8 180 -5 10 -9
28 -16 42 -16 22 1 23 2 7 14 -10 7 -18 16 -18 19 0 7 52 23 105 32 22 4 34
10 27 12 -6 3 -10 9 -6 14 3 5 1 9 -5 9 -5 0 -12 -4 -15 -9 -9 -14 -117 -24
-129 -12 -12 12 -11 12 63 17 118 7 263 31 255 44 -7 11 -149 2 -179 -11 -18
-9 -30 -9 -34 -3 -14 21 -146 57 -175 48 -11 -3 -23 -1 -27 5 -4 7 -38 14 -76
16 -38 2 -91 8 -119 15 -46 10 -172 19 -320 23 -77 2 -105 18 -55 30 106 26
248 35 395 24 64 -4 93 -4 80 2 -11 5 -36 10 -55 11 -30 0 -32 2 -16 12 11 6
39 8 67 5 28 -4 49 -2 51 4 2 5 37 13 78 16 50 4 68 9 55 14 -22 8 -79 12 -86
5z"/>
<path d="M1710 2161 c22 -4 34 -12 32 -20 -2 -9 4 -12 18 -8 12 3 50 1 83 -5
34 -5 76 -11 92 -12 98 -9 97 -41 0 -42 -123 -2 -73 -31 55 -33 42 0 90 -13
84 -22 -3 -5 4 -9 16 -9 28 0 36 -26 16 -49 -12 -13 -14 -20 -5 -23 20 -7 0
-46 -32 -62 -27 -13 -30 -13 -25 -1 7 18 -37 17 -73 -2 -14 -6 -28 -10 -32 -7
-5 3 -22 -2 -38 -11 -28 -14 -63 -21 -118 -24 -13 0 -23 -6 -23 -12 0 -15 145
-5 165 11 10 8 24 8 53 -1 28 -8 48 -8 68 -1 28 10 28 10 5 11 -20 1 -15 6 26
26 28 14 53 34 55 43 3 10 22 23 45 30 60 18 70 34 47 80 -10 20 -26 43 -34
49 -27 22 -116 52 -176 58 -33 4 -62 9 -66 12 -11 6 -219 33 -248 31 -19 0
-16 -2 10 -7z"/>
<path d="M3089 2052 c-22 -23 -39 -47 -37 -54 5 -15 45 -25 101 -27 40 -1 42
1 27 30 -16 28 28 43 105 34 113 -12 130 -15 180 -29 28 -8 73 -21 100 -29
l50 -15 -75 -1 -75 -2 34 -15 c40 -17 33 -31 -19 -36 -34 -4 -34 -4 14 -12 36
-6 50 -5 56 4 7 11 35 8 145 -13 104 -21 141 -25 151 -16 11 9 14 8 14 -4 0
-8 10 -17 22 -20 66 -18 0 44 -72 66 -25 8 -63 18 -85 22 -30 6 -36 9 -21 14
12 5 -39 22 -150 50 -93 23 -200 52 -239 63 -38 11 -96 23 -127 25 -57 6 -58
5 -99 -35z"/>
<path d="M3295 1900 c-3 -5 -16 -10 -28 -10 -18 0 -19 -2 -7 -10 11 -7 3 -10
-30 -11 -41 0 -43 -1 -20 -11 14 -5 33 -14 42 -19 10 -5 33 -11 51 -13 19 -3
113 -34 210 -70 97 -36 183 -66 191 -66 8 0 17 -4 20 -9 3 -4 20 -12 38 -16
146 -34 666 -254 652 -276 -2 -4 -19 -6 -37 -3 -167 21 -268 35 -296 40 -32 5
-34 4 -20 -12 11 -14 6 -13 -23 5 -22 13 -51 22 -70 21 -62 -4 -99 0 -94 9 4
5 -3 7 -14 4 -11 -3 -70 4 -132 16 -148 28 -161 31 -157 36 3 2 38 -3 79 -11
84 -16 116 -17 82 -4 -73 30 -642 160 -698 160 -38 0 -94 -59 -94 -99 0 -27 5
-32 40 -42 22 -7 40 -18 40 -25 0 -19 19 -27 35 -14 10 8 19 9 32 1 16 -9 14
-10 -10 -11 -19 0 -26 -4 -21 -12 5 -8 -3 -9 -29 -5 -63 10 -41 -11 34 -33 39
-12 69 -23 67 -25 -2 -2 -32 0 -67 5 -35 5 -76 6 -92 3 -36 -7 -67 -41 -75
-81 -6 -30 -4 -33 30 -47 20 -8 36 -21 36 -27 0 -6 10 -23 23 -36 l22 -24 -34
7 c-23 5 -31 4 -27 -4 4 -5 22 -13 41 -17 58 -11 49 -21 -21 -26 -58 -4 -70
-8 -90 -32 -33 -38 -30 -60 10 -81 19 -11 33 -22 31 -26 -3 -3 2 -20 10 -37
12 -22 21 -29 35 -25 21 6 28 23 9 23 -6 0 -9 5 -7 11 5 14 23 12 23 -2 0 -7
9 -15 19 -19 17 -6 15 -8 -14 -18 -18 -7 -45 -13 -59 -13 -24 -2 -24 -2 -3 -6
33 -7 27 -20 -15 -26 -44 -8 -93 -52 -93 -85 0 -17 8 -27 31 -35 29 -11 31
-14 25 -54 -5 -39 -3 -44 22 -57 29 -15 154 -41 237 -51 35 -4 44 -2 30 4 -31
15 95 12 185 -3 l75 -13 -65 -4 c-109 -7 212 -30 455 -33 116 -2 161 -1 100 1
-60 2 -105 7 -98 11 6 4 -34 5 -90 3 -86 -2 -99 -1 -90 11 10 12 -7 16 -110
26 -67 7 -151 15 -187 18 -36 2 -92 9 -125 15 -33 6 -72 11 -87 12 -30 2 -38
21 -13 31 22 8 18 23 -7 29 -18 5 -19 9 -9 21 7 8 22 17 34 19 12 3 -11 4 -51
4 -40 -1 -73 2 -75 8 -6 18 -62 -9 -59 -28 2 -11 -4 -17 -16 -17 -23 0 -23 37
0 54 8 6 13 16 11 23 -7 20 77 26 126 9 27 -10 78 -16 135 -16 50 0 111 -5
136 -11 25 -6 81 -17 125 -24 44 -7 69 -13 55 -14 -14 0 -52 4 -85 9 -33 5
-82 7 -109 3 l-49 -6 29 -12 29 -12 -25 -7 c-14 -3 -45 -7 -70 -9 -25 -3 16
-2 90 0 85 3 231 -3 393 -16 281 -23 397 -26 397 -12 0 13 -52 19 -220 27 -80
4 -136 10 -125 14 11 4 54 3 95 -1 64 -7 274 -11 511 -10 37 0 85 7 107 14 41
14 41 14 27 -7 -10 -14 -42 -28 -97 -43 l-83 -23 85 5 c87 5 156 19 178 37 26
21 10 72 -23 73 -5 0 -10 10 -9 22 0 12 -3 20 -8 17 -5 -3 -52 -10 -106 -15
-255 -26 -250 -25 -214 -33 17 -5 32 -12 32 -17 0 -19 -128 -2 -173 22 -20 11
-129 25 -262 34 -135 9 -283 24 -350 35 -33 5 -92 10 -132 10 -40 0 -96 5
-125 12 -49 11 -51 12 -23 18 l30 6 -40 8 c-35 7 -38 9 -22 21 24 17 21 25 -8
25 -26 0 -35 24 -12 33 6 3 -1 6 -17 6 -21 1 -27 5 -22 16 3 9 -1 15 -11 15
-13 0 -13 3 -3 15 23 27 -14 17 -55 -15 -47 -37 -52 -38 -26 -1 19 27 20 29 3
36 -12 4 -24 -2 -39 -21 -12 -16 -24 -26 -27 -23 -8 8 5 49 15 49 5 0 9 7 9
15 0 20 90 20 145 0 22 -8 63 -14 92 -15 55 0 202 -25 212 -36 3 -4 -30 -5
-74 -2 -66 4 -74 3 -42 -5 20 -6 37 -14 37 -19 0 -4 -17 -9 -37 -9 -21 -1 -51
-5 -68 -8 -25 -6 -17 -9 42 -15 60 -7 75 -5 88 8 9 9 18 16 21 16 12 0 378
-42 435 -50 91 -13 332 -22 294 -11 -16 5 -57 9 -90 10 -36 1 -54 5 -45 9 8 5
67 5 130 1 344 -23 384 -23 420 -4 29 15 33 15 22 2 -17 -20 -96 -47 -138 -47
-17 0 -47 -7 -65 -15 -32 -15 -28 -15 76 -9 117 6 205 27 205 49 0 27 -13 45
-32 45 -15 0 -18 5 -13 20 6 19 2 20 -117 16 -68 -2 -163 -5 -213 -6 l-90 -2
50 -17 50 -16 -50 -2 c-29 -2 -88 7 -140 21 -71 19 -82 25 -55 26 62 2 4 17
-121 30 -63 6 -193 25 -289 41 -96 16 -193 29 -215 29 -39 0 -138 15 -178 26
-28 8 -11 22 20 16 25 -5 27 -4 14 11 -17 21 -70 22 -77 2 -4 -8 -11 -15 -16
-15 -6 0 -5 6 2 15 6 8 10 20 8 27 -3 7 2 19 11 26 14 12 13 13 -6 9 -13 -3
-23 -1 -23 4 0 5 -9 9 -20 9 -29 0 -25 24 7 41 l26 14 -46 7 c-25 3 -55 9 -67
13 -15 5 -20 3 -16 -3 3 -6 1 -14 -4 -17 -6 -4 -10 -21 -8 -38 2 -25 -1 -33
-16 -35 -14 -3 -17 0 -13 11 3 9 1 18 -6 21 -8 3 -7 9 5 18 13 12 14 16 3 24
-9 6 -11 16 -4 32 7 19 16 22 60 22 29 0 75 -6 103 -14 28 -8 87 -20 130 -26
104 -16 137 -28 76 -30 l-45 -1 35 -16 35 -15 -30 -14 c-16 -7 -50 -14 -75
-15 -38 -1 -41 -2 -20 -9 50 -16 109 -11 131 11 11 11 28 18 37 15 9 -2 60
-10 112 -16 52 -6 189 -27 304 -46 199 -32 337 -44 291 -24 -11 5 -33 9 -50
10 -19 2 -23 4 -12 7 10 3 55 0 100 -6 141 -19 229 -26 305 -25 87 1 83 -16
-6 -27 -31 -4 -73 -12 -92 -17 -34 -8 -32 -9 34 -17 79 -9 195 -1 225 15 28
14 28 60 1 67 -11 3 -20 11 -20 19 0 7 -14 24 -31 36 -30 23 -31 23 -7 29 13
4 -62 8 -167 9 -108 0 -227 7 -275 15 -47 8 -150 23 -229 35 -80 11 -174 25
-210 31 -82 13 -95 15 -150 23 -23 3 -47 9 -52 12 -5 3 -35 5 -67 5 -69 0
-182 18 -182 29 0 5 17 10 38 12 l37 4 -40 8 c-50 11 -72 26 -53 37 9 6 7 9
-7 9 -22 0 -51 38 -38 50 4 5 17 10 28 13 11 3 0 5 -25 3 -25 -1 -53 -6 -63
-11 -13 -5 -17 -3 -15 6 2 10 -7 13 -33 11 -21 -2 -40 1 -44 7 -3 6 -1 11 4
11 6 0 11 9 11 20 0 12 9 22 24 26 29 7 148 -10 208 -30 24 -8 81 -21 128 -28
l85 -13 -70 -3 -70 -3 45 -21 c42 -19 43 -21 23 -29 -13 -4 -46 -12 -75 -16
-48 -6 -50 -8 -23 -14 46 -10 115 -10 115 1 0 5 9 14 19 19 24 13 123 2 444
-50 171 -29 259 -39 285 -34 32 6 34 9 17 16 -14 6 -6 8 25 4 78 -9 233 -19
275 -17 22 1 51 -1 65 -4 24 -5 24 -6 6 -20 -11 -8 -38 -14 -61 -14 -23 0 -59
-9 -81 -20 l-39 -19 131 -1 c142 0 194 11 194 41 0 28 -22 69 -37 69 -7 0 -13
7 -13 14 0 23 -62 65 -194 132 -85 44 -114 63 -100 67 15 4 13 5 -7 6 -14 0
-71 12 -125 26 -54 13 -155 36 -224 50 -69 15 -160 35 -202 46 -43 11 -90 21
-105 23 -16 2 -40 9 -55 15 -15 6 -67 15 -115 21 -93 12 -133 29 -72 31 32 2
31 2 -13 12 -27 6 -48 14 -48 19 0 4 -11 8 -25 8 -14 0 -25 4 -25 8 0 9 -44
32 -60 32 -5 0 -12 -4 -15 -10z m464 -620 c83 -12 212 -39 304 -65 87 -25 169
-43 181 -40 11 2 15 2 8 -1 -6 -3 -9 -10 -6 -15 9 -16 -110 0 -206 27 -47 13
-155 40 -240 60 -162 37 -267 66 -215 59 17 -3 95 -14 174 -25z"/>
<path d="M503 1859 c-33 -10 -73 -51 -73 -77 0 -12 11 -13 63 -8 34 3 98 9
142 12 44 4 74 9 68 11 -7 3 -13 11 -13 19 0 11 -11 13 -55 8 -63 -8 -72 4
-22 29 l32 16 -55 -1 c-30 0 -69 -4 -87 -9z"/>
<path d="M1615 1790 c-16 -5 -154 -18 -305 -29 -151 -12 -295 -26 -318 -31
-41 -10 -232 -27 -351 -33 -30 -1 -56 -7 -58 -13 -2 -7 6 -10 21 -7 14 3 34 2
43 -3 10 -4 25 -9 33 -10 101 -18 170 -25 305 -29 88 -3 243 -13 345 -22 102
-8 196 -16 210 -16 14 -1 27 -5 30 -8 9 -12 169 -26 179 -16 5 5 34 6 67 2 38
-4 53 -10 43 -15 -7 -5 -10 -12 -6 -16 8 -9 156 16 163 27 6 11 85 0 99 -12
17 -16 -27 -48 -70 -50 -43 -3 -80 -21 -89 -45 -3 -8 -2 -13 2 -10 4 2 8 -4 8
-15 0 -16 -5 -19 -22 -15 -21 6 -53 -2 -119 -27 l-30 -12 30 -6 30 -6 -35 -10
-35 -11 33 -1 c34 -1 40 -9 20 -29 -15 -15 -63 -15 -91 0 l-22 12 25 8 c17 5
11 6 -21 3 -25 -2 -50 0 -56 6 -7 7 -25 7 -54 0 -24 -5 -98 -15 -164 -21 -66
-6 -131 -13 -145 -15 -14 -3 -79 -7 -145 -11 -66 -3 -149 -11 -185 -17 -36 -7
-155 -12 -265 -12 -110 0 -204 -2 -210 -4 -34 -13 100 -17 370 -13 171 3 355
1 410 -4 l100 -8 -85 -7 c-47 -4 -244 -7 -438 -8 -298 -1 -358 -3 -383 -16
-29 -15 -56 -61 -44 -74 7 -7 137 -19 213 -20 50 -1 52 0 40 19 -9 15 -24 20
-53 20 -22 0 -46 4 -53 9 -28 17 17 31 119 37 124 6 509 7 516 0 2 -2 -58 -5
-134 -6 -122 -1 -263 -15 -193 -19 14 -1 32 -5 40 -11 11 -7 4 -13 -30 -29
-34 -15 -39 -20 -22 -20 12 -1 40 8 60 18 55 28 116 33 520 47 193 6 214 5
231 -10 11 -10 29 -16 43 -13 l23 4 -22 8 c-13 4 -23 11 -23 16 0 9 57 27 105
32 17 2 -17 5 -74 6 -57 0 -101 4 -97 8 3 4 61 10 129 14 67 4 163 13 214 20
105 15 118 10 129 -47 6 -34 -11 -64 -37 -64 -10 0 -10 3 -1 12 17 17 15 48
-3 48 -8 0 -15 4 -15 9 0 11 -53 1 -62 -13 -6 -8 -11 -7 -17 3 -6 9 -15 11
-27 6 -18 -8 -18 -8 -1 -12 9 -3 17 -6 17 -8 0 -12 -50 -55 -65 -55 -9 0 -28
-9 -42 -20 l-26 -20 24 0 c50 0 -1 -22 -76 -32 -58 -9 -79 -8 -84 1 -6 8 -25
9 -77 2 -89 -13 -385 -30 -539 -32 -66 -1 -129 -6 -140 -11 -12 -5 46 -7 150
-6 275 3 383 -1 362 -13 -13 -7 -163 -11 -455 -10 -240 0 -457 -4 -482 -8 -41
-9 -90 -47 -90 -71 0 -19 39 -28 153 -35 l119 -8 -14 22 c-9 15 -23 21 -48 22
-19 0 -43 4 -53 8 -16 6 -16 9 -5 18 18 14 185 24 483 27 138 1 315 5 395 9
101 4 121 3 65 -3 -44 -4 -183 -11 -310 -14 -281 -8 -295 -10 -288 -36 4 -14
-1 -21 -21 -26 -14 -3 -26 -10 -26 -15 0 -14 17 -11 58 10 41 21 200 34 552
46 148 5 178 4 195 -9 11 -8 31 -15 45 -15 l25 0 -22 11 c-13 6 -23 15 -23 19
0 8 47 23 100 32 14 2 -8 5 -47 6 -40 0 -73 5 -73 10 0 14 84 24 148 18 32 -4
87 0 131 9 97 18 131 18 131 0 0 -8 6 -21 14 -29 17 -17 10 -57 -9 -57 -8 0
-11 8 -8 20 3 11 1 20 -3 21 -5 0 -22 3 -38 5 -24 4 -36 -1 -60 -25 -99 -99
-114 -109 -179 -120 -81 -14 -114 -14 -119 1 -3 9 -19 9 -64 0 -84 -16 -564
-42 -784 -43 -52 0 -150 3 -217 6 -86 5 -123 3 -123 -4 0 -7 25 -11 65 -11 37
0 65 -4 65 -10 0 -6 -27 -10 -61 -10 -34 0 -75 -7 -94 -15 -32 -16 -60 -58
-50 -75 8 -13 55 -19 166 -23 92 -3 96 -3 86 15 -8 11 -24 18 -47 19 -47 1
-78 13 -61 24 8 5 9 10 3 14 -5 3 135 8 311 10 177 2 385 6 462 10 77 4 142 6
144 4 14 -10 -31 -13 -260 -18 -140 -3 -274 -8 -297 -11 -40 -5 -42 -7 -25
-19 23 -17 13 -27 -40 -42 l-42 -11 37 -1 c21 -1 54 8 75 18 31 16 74 22 228
30 421 23 488 24 510 7 11 -8 34 -15 50 -15 17 0 23 3 15 6 -8 2 -21 7 -29 9
-27 9 12 35 65 43 47 8 46 9 -31 10 -55 1 -75 5 -64 11 27 16 123 27 157 18
22 -6 64 -4 123 7 110 19 129 19 129 1 0 -7 7 -19 15 -26 18 -15 20 -40 4 -40
-7 0 -17 7 -23 15 -7 10 -33 16 -80 17 -68 3 -70 2 -70 -22 -1 -14 -5 -26 -10
-27 -5 -1 -13 -7 -17 -15 -6 -9 0 -17 19 -25 l27 -12 -25 -2 c-14 -1 -29 -3
-35 -4 -5 -2 -16 -3 -22 -4 -7 0 -13 -7 -13 -15 0 -19 -15 -23 -101 -32 -63
-6 -72 -5 -66 9 8 21 -31 20 -56 -2 -14 -11 -22 -13 -36 -4 -9 6 -24 7 -32 3
-23 -13 -282 -30 -455 -30 -89 0 -164 -4 -170 -10 -5 -5 -50 -11 -99 -13 -50
-2 11 -2 135 1 124 2 311 7 417 11 106 3 202 3 215 0 l23 -6 -25 -6 c-59 -15
-403 -30 -758 -32 -351 -2 -384 -4 -402 -20 -27 -24 -25 -53 3 -64 12 -5 73
-12 136 -16 l113 -7 -21 21 c-11 11 -33 21 -49 22 -15 1 -38 4 -51 8 -19 5
-21 8 -10 18 20 16 384 30 375 14 -4 -6 -16 -11 -28 -11 -17 0 -18 -2 -8 -15
16 -20 6 -30 -40 -43 l-35 -10 32 -1 c18 -1 49 8 70 18 32 16 75 21 258 31
121 6 278 12 348 13 112 2 130 0 141 -15 14 -19 41 -24 51 -9 3 5 -4 13 -16
16 -29 10 -11 25 48 41 l48 13 -62 0 c-35 1 -63 5 -63 10 0 14 86 23 153 16
42 -4 83 -1 127 9 84 20 120 20 120 1 0 -8 5 -15 10 -15 6 0 10 -4 10 -9 0 -5
-33 -7 -72 -5 -91 5 -108 -1 -108 -32 0 -16 -6 -24 -17 -24 -35 0 10 -20 47
-21 28 0 31 -2 15 -9 -11 -4 -31 -6 -44 -3 -22 5 -22 4 -11 -18 13 -23 13 -23
-11 -8 -16 11 -32 13 -49 8 -22 -6 -312 -37 -411 -44 -19 -1 -47 -10 -62 -20
-23 -15 -26 -15 -21 -2 5 14 -6 15 -98 9 -57 -4 -249 -7 -428 -7 -280 1 -330
3 -362 17 -21 10 -38 13 -38 9 0 -14 45 -50 73 -56 15 -4 27 -11 27 -15 0 -9
124 -26 253 -35 141 -10 768 -6 932 5 245 17 280 23 270 48 -5 14 -4 15 6 4
15 -14 59 -16 59 -3 0 12 -56 25 -70 16 -6 -4 -16 -2 -23 3 -7 6 -30 12 -52
14 -35 3 -28 5 50 21 113 24 183 50 218 82 28 27 40 58 13 35 -11 -8 -20 -9
-33 -1 -17 9 -17 10 2 17 60 22 71 65 26 113 -29 31 -49 67 -31 56 6 -3 10 -1
10 5 0 6 -7 13 -15 16 -20 8 -4 29 37 50 41 21 38 62 -9 108 -21 20 -43 36
-50 36 -19 0 27 64 60 83 38 23 36 58 -8 102 -26 25 -45 35 -68 35 l-32 1 27
15 c15 8 30 25 34 38 4 16 16 27 37 33 44 12 49 58 12 95 -26 26 -101 58 -137
58 -31 0 -20 17 17 24 19 4 37 11 40 17 4 6 -4 7 -22 3 -27 -6 -27 -5 8 19 20
15 39 33 42 42 4 8 22 23 42 32 45 22 52 45 25 88 -25 41 -71 67 -158 89 -80
21 -307 56 -352 55 -26 -1 -29 -3 -10 -6 48 -8 57 -16 25 -23 -21 -5 -4 -8 55
-10 153 -3 290 -60 146 -60 -36 0 -66 -4 -66 -9 0 -11 74 -26 107 -22 12 1 30
-2 40 -8 16 -8 15 -11 -12 -21 -24 -9 -46 -8 -105 5 -110 24 -110 24 -110 13
0 -5 -15 -1 -34 10 -36 21 -117 25 -147 7 -12 -7 -12 -6 -1 7 18 23 5 27 -62
22 -42 -3 -62 0 -73 11 -9 9 -33 15 -64 15 -33 0 -48 4 -46 12 1 7 -11 14 -28
18 -49 9 -15 19 86 24 52 3 109 10 127 17 19 6 55 9 80 6 26 -3 40 -3 32 1 -9
3 7 11 40 18 50 11 52 12 18 13 -20 0 -42 3 -50 5 -7 2 -26 0 -43 -4z"/>
<path d="M1773 1548 c-36 -17 -28 -31 13 -23 24 4 34 3 29 -4 -3 -6 -31 -11
-61 -11 -34 0 -53 4 -49 10 4 6 -9 10 -32 9 -30 0 -34 -2 -18 -9 12 -5 -6 -6
-45 -3 -51 4 -62 2 -50 -7 12 -9 6 -11 -28 -7 -24 3 -40 1 -36 -4 3 -5 -4 -9
-15 -9 -11 0 -23 -4 -26 -10 -3 -5 -11 -10 -16 -10 -6 0 -7 5 -4 10 3 6 3 10
-2 11 -4 0 -17 2 -28 5 -11 2 -99 -3 -195 -12 -96 -8 -298 -19 -449 -23 l-274
-7 -29 -33 c-34 -38 -32 -54 8 -62 48 -11 222 -10 229 1 3 6 1 10 -5 10 -6 0
-8 5 -5 10 4 6 -15 10 -49 10 -30 0 -58 5 -61 10 -15 23 63 38 235 43 115 4
160 2 131 -3 -55 -12 -64 -20 -22 -20 49 0 33 -22 -30 -42 -46 -14 -49 -17
-23 -17 18 -1 56 10 85 23 45 21 90 28 279 45 367 33 459 36 466 17 7 -17 54
-23 54 -6 0 6 -7 10 -15 10 -8 0 -15 4 -15 9 0 12 24 21 88 35 l52 11 -25 28
c-28 30 -30 30 -62 15z"/>
<path d="M4495 612 c-3 -4 -42 -8 -142 -16 -31 -3 -135 -8 -232 -12 -97 -3
-178 -9 -181 -12 -3 -2 85 -2 195 2 134 4 195 3 185 -4 -8 -5 -31 -10 -50 -10
-34 -1 -34 -2 -10 -12 24 -11 22 -12 -25 -19 -74 -11 -456 -10 -650 1 -217 13
-457 37 -560 57 -147 29 -161 28 -190 -2 -35 -39 -34 -82 2 -91 24 -7 25 -8 8
-14 -11 -4 -23 -2 -27 4 -18 26 -7 -21 12 -51 18 -31 37 -39 175 -77 5 -1 -10
-6 -35 -10 -38 -7 -42 -9 -24 -16 54 -21 322 -34 710 -35 374 0 414 2 431 17
10 9 44 29 76 43 59 27 82 29 188 10 43 -8 173 41 208 79 l21 22 -67 -22 c-38
-12 -71 -20 -75 -17 -4 2 -25 -1 -45 -6 -41 -11 -126 -21 -213 -26 -30 -1 -62
-5 -70 -8 -22 -8 -439 -16 -444 -8 -2 3 -47 8 -98 9 -76 3 -97 0 -107 -12 -8
-9 -18 -16 -24 -16 -7 0 -7 4 1 12 21 21 14 24 -53 26 -64 3 -102 6 -202 17
-27 3 -63 8 -81 10 -40 4 -55 15 -22 15 23 0 23 0 4 14 -18 14 -18 15 -2 21
10 4 16 10 13 14 -2 4 17 9 43 10 25 1 50 5 55 10 4 4 -21 6 -57 4 -48 -3 -66
-1 -66 7 0 19 -99 3 -132 -20 -15 -11 -33 -20 -39 -20 -17 0 19 38 44 46 15 5
17 8 6 15 -38 23 30 29 121 9 30 -6 90 -11 133 -10 93 1 169 -9 161 -21 -3 -5
-31 -9 -62 -10 -55 -1 -56 -1 -22 -11 74 -20 62 -30 -55 -47 l-60 -9 73 -1
c43 0 82 4 95 12 25 14 286 13 541 -2 93 -6 175 -5 220 1 85 12 96 18 32 18
-26 0 -45 4 -42 9 3 5 -36 7 -87 5 -77 -2 -85 -1 -47 6 25 5 136 12 247 14
111 3 221 10 244 16 51 14 71 0 35 -23 -14 -9 -42 -20 -63 -25 -21 -5 -52 -16
-68 -25 -26 -14 -27 -16 -8 -17 38 0 177 29 215 46 20 9 39 23 42 30 9 24 -12
64 -40 74 -21 8 -24 13 -15 24 10 11 7 14 -14 12 -15 0 -28 -3 -30 -4z"/>
</g>
</svg>
