<?xml version="1.0" standalone="no"?>
<!DOCTYPE svg PUBLIC "-//W3C//DTD SVG 20010904//EN"
 "http://www.w3.org/TR/2001/REC-SVG-20010904/DTD/svg10.dtd">
<svg version="1.0" xmlns="http://www.w3.org/2000/svg"
 width="120.000000pt" height="120.000000pt" viewBox="0 0 120.000000 120.000000"
 preserveAspectRatio="xMidYMid meet">
<metadata>
Created by potrace 1.13, written by Peter Selinger 2001-2015
</metadata>
<g transform="translate(0.000000,120.000000) scale(0.100000,-0.100000)"
fill="#000000" stroke="none">
<path d="M382 1162 c-78 -28 -138 -84 -178 -167 -27 -57 -30 -118 -10 -212 12
-58 12 -62 -5 -66 -13 -4 -19 -14 -19 -34 0 -15 4 -23 8 -18 11 15 32 17 47 5
10 -9 15 -4 20 20 4 16 11 28 16 24 5 -3 7 -9 4 -14 -3 -5 0 -12 6 -15 5 -4 8
-13 5 -20 -9 -24 25 -26 57 -3 17 12 27 17 23 10 -5 -8 5 -10 33 -7 23 2 46 7
52 11 8 4 9 3 5 -4 -4 -6 -1 -20 5 -30 10 -16 8 -30 -15 -78 -37 -77 -43 -116
-22 -137 14 -13 21 -14 36 -5 15 9 24 9 43 -1 13 -7 35 -11 48 -8 19 3 16 5
-11 7 -33 2 -31 3 20 15 l55 13 -65 2 c-54 1 -61 3 -40 11 14 6 33 8 42 5 13
-3 18 2 18 15 0 10 6 19 13 19 7 0 4 7 -7 15 -11 8 -17 16 -13 16 4 1 11 2 16
3 20 2 23 16 5 16 -11 0 -25 -5 -31 -11 -8 -8 -20 -6 -42 6 -17 9 -36 13 -41
10 -6 -3 -10 -2 -10 3 0 6 6 12 14 15 7 3 16 25 20 49 8 52 -14 105 -47 113
-60 15 -133 22 -141 14 -14 -13 -36 38 -35 80 l1 36 8 -30 c6 -21 8 -8 7 45
-1 70 1 77 27 105 16 17 26 24 22 18 -9 -17 -6 -16 47 6 24 11 80 25 123 31
43 7 95 20 115 30 57 27 97 9 132 -59 15 -30 27 -70 27 -88 0 -18 5 -33 11
-33 5 0 7 -4 4 -10 -3 -5 -2 -10 3 -10 6 0 8 -9 5 -19 -6 -24 26 -113 38 -105
5 3 7 10 4 15 -4 5 1 19 9 31 21 29 20 41 -6 154 -26 113 -65 169 -126 180
-20 4 -50 16 -67 28 -43 30 -188 34 -263 8z"/>
<path d="M854 443 c8 -46 -6 -110 -46 -208 -16 -38 -39 -107 -52 -153 l-24
-82 234 0 234 0 0 140 0 139 -32 18 c-52 28 -157 71 -188 78 -16 3 -52 29 -80
57 l-52 51 6 -40z"/>
<path d="M368 340 c24 -23 42 -43 40 -44 -15 -11 -225 -130 -267 -152 -59 -32
-86 -61 -100 -111 l-10 -33 193 0 c106 0 195 2 197 4 2 2 2 58 -1 123 -8 166
-9 166 60 98 l58 -57 -49 -47 c-43 -41 -49 -52 -49 -87 l1 -39 13 30 13 30 8
-27 c7 -26 10 -27 75 -27 64 0 68 1 74 24 5 20 -2 32 -39 66 -46 42 -57 69
-30 69 22 0 18 18 -5 25 -16 5 -18 9 -7 26 6 10 19 19 27 19 9 0 37 14 63 30
26 17 51 30 55 30 14 1 87 70 74 70 -8 0 -46 -14 -85 -31 -82 -36 -129 -40
-207 -15 -30 9 -63 18 -73 20 -10 1 -22 7 -25 12 -4 5 -16 15 -27 23 -11 8 -1
-5 23 -29z"/>
</g>
</svg>
