<?xml version="1.0" standalone="no"?>
<!DOCTYPE svg PUBLIC "-//W3C//DTD SVG 20010904//EN"
 "http://www.w3.org/TR/2001/REC-SVG-20010904/DTD/svg10.dtd">
<svg version="1.0" xmlns="http://www.w3.org/2000/svg"
 width="300.000000pt" height="300.000000pt" viewBox="0 0 300.000000 300.000000"
 preserveAspectRatio="xMidYMid meet">
<metadata>
Created by potrace 1.10, written by Peter Selinger 2001-2011
</metadata>
<g transform="translate(0.000000,300.000000) scale(0.050000,-0.050000)"
fill="#000000" stroke="none">
<path d="M1817 5506 c-113 -70 -148 -219 -83 -355 18 -39 29 -73 25 -77 -5 -3
-76 -46 -159 -94 -82 -48 -199 -119 -260 -159 l-110 -71 90 -10 90 -10 -125
-86 c-1295 -888 -1609 -2169 -865 -3521 149 -270 143 -268 128 -28 -16 255 30
603 112 848 75 224 100 258 100 136 1 -230 104 -486 279 -694 148 -176 161
-178 161 -20 0 193 87 446 199 575 l43 50 -13 -140 c-22 -255 36 -535 181
-865 70 -158 82 -157 96 12 17 210 140 469 314 663 l63 70 -11 -170 c-22 -327
-150 -692 -339 -965 -112 -163 -105 -166 65 -27 289 236 526 497 655 721 42
72 84 131 94 131 57 0 -22 -450 -116 -667 -46 -106 -30 -110 87 -24 362 265
551 619 786 1471 208 756 358 1083 603 1317 l70 68 256 -15 c218 -12 260 -20
283 -52 55 -78 193 -38 230 67 44 122 -168 226 -235 116 -19 -30 -317 -28
-306 3 13 39 421 205 726 294 264 77 472 108 754 110 314 2 311 0 217 162
-196 337 -689 552 -1397 610 -320 25 -352 36 -403 137 -207 404 -927 557
-1845 392 -62 -12 -77 -7 -96 28 -51 96 -239 134 -344 69z m1444 -179 c18 -18
-15 -26 -134 -36 -475 -39 -636 -75 -704 -158 -34 -40 -15 -42 107 -13 601
144 1338 103 1305 -72 -12 -60 1 -62 24 -3 18 44 18 44 20 -7 2 -96 -58 -126
-181 -89 -142 42 -369 39 -596 -9 -200 -43 -241 -41 -149 6 119 60 268 80 506
68 176 -9 219 -7 181 10 -95 41 -474 28 -640 -22 -229 -70 -232 -70 -278 -24
-28 28 -67 42 -121 42 -110 0 -119 -34 -17 -61 233 -60 401 -238 477 -504 23
-79 36 -95 76 -95 42 0 45 4 20 33 -24 31 -22 33 23 21 28 -8 113 -14 189 -14
l140 0 -101 -105 c-256 -267 -258 -272 -138 -331 57 -28 99 -64 111 -97 39
-103 319 -197 439 -147 62 26 272 9 292 -24 7 -11 -12 -17 -45 -15 -105 9
-145 -1 -185 -44 -57 -61 -418 -13 -748 98 l-116 39 -42 -81 c-98 -193 -167
-459 -225 -873 -50 -357 -54 -463 -31 -680 57 -532 49 -741 -39 -948 l-35 -82
-11 180 c-16 270 -115 605 -115 391 0 -74 -77 -251 -143 -331 -28 -33 -88
-116 -134 -185 -106 -157 -105 -157 -59 30 40 157 77 765 47 765 -71 0 -406
-337 -474 -477 -49 -101 -60 -92 -99 87 -34 160 -31 492 8 635 38 144 33 143
-149 -12 -180 -153 -261 -252 -329 -401 -63 -138 -58 -139 -128 15 -105 231
-122 481 -53 749 97 373 -407 -394 -523 -796 l-38 -130 -52 165 c-381 1188
-13 2064 1213 2889 151 101 151 98 5 145 -21 6 -34 15 -30 18 4 3 60 35 124
70 l115 64 49 -105 49 -105 -75 -36 c-41 -20 -93 -56 -115 -81 -23 -24 -71
-66 -108 -94 -196 -149 -358 -290 -416 -363 -112 -141 -72 -147 80 -11 80 71
231 192 335 270 212 157 260 199 292 255 35 62 191 -257 175 -357 -29 -179
144 -360 344 -360 134 0 430 -132 383 -171 -450 -373 -1156 121 -994 697 l19
70 -39 -50 c-101 -129 -125 -319 -59 -470 15 -33 27 -69 28 -80 3 -60 215
-260 337 -317 172 -82 268 -88 402 -27 l111 52 -61 -104 c-295 -500 -420 -957
-375 -1362 15 -131 14 -183 -2 -188 -47 -16 -218 -164 -263 -228 -43 -62 -40
-60 63 26 60 50 148 116 195 146 85 53 121 111 129 206 3 33 14 46 36 40 27
-7 30 13 23 160 -24 452 163 985 479 1369 74 89 102 155 54 125 -16 -10 -20
-4 -11 18 7 19 6 32 -2 29 -8 -2 -37 11 -65 30 -47 31 -108 50 -178 54 -20 1
-13 17 22 56 28 30 65 77 83 103 l32 49 22 -57 c79 -207 350 -160 439 76 l21
56 -101 -54 c-63 -35 -104 -72 -112 -101 -15 -61 -18 -60 -147 40 -99 77 -111
95 -123 181 -16 109 -80 213 -161 261 -38 23 -94 109 -182 282 l-127 249 66
12 c81 15 72 34 -49 97 l-94 49 130 3 c72 2 157 11 190 20 93 25 684 13 711
-14z m-1192 -50 c28 -13 51 -29 51 -37 0 -7 11 -15 25 -16 14 -2 48 -6 75 -9
38 -4 48 -16 43 -45 -28 -157 72 -530 143 -530 11 0 16 -5 9 -11 -6 -6 9 -32
32 -56 129 -135 149 -169 156 -269 8 -112 -5 -123 -137 -124 -142 0 -226 87
-226 235 0 32 -11 68 -24 81 -13 13 -18 24 -10 24 35 0 -101 221 -201 326 -85
90 -107 125 -97 160 6 24 12 95 12 158 0 112 5 121 84 134 8 1 37 -8 65 -21z
m1971 -317 c3 -99 59 -121 371 -152 623 -62 943 -163 1245 -394 195 -148 191
-152 -171 -151 -330 1 -454 -7 -814 -55 -288 -38 -431 -72 -724 -172 -346
-118 -363 -93 -233 352 32 107 54 234 55 307 1 117 4 125 47 125 64 0 139 81
155 168 14 75 66 54 69 -28z m-639 -129 c-34 -41 -11 -124 41 -152 52 -28 129
-10 146 33 9 23 4 29 -16 22 -41 -16 -97 33 -89 77 11 59 105 63 145 6 81
-116 2 -277 -136 -277 -158 0 -239 176 -133 289 50 53 85 54 42 2z m2049 -655
c-756 -118 -1035 -179 -1457 -316 l-247 -80 -122 39 c-229 73 -257 132 -130
265 67 70 91 71 66 5 -82 -214 33 -268 353 -167 519 165 1133 272 1557 273
l100 0 -120 -19z m-2310 -597 c0 -12 10 -15 21 -8 22 13 350 -61 398 -90 22
-14 16 -36 -30 -114 -179 -303 -241 -464 -409 -1051 -178 -623 -234 -754 -243
-570 -2 35 -5 79 -6 98 -1 19 -9 40 -17 48 -24 24 -16 108 11 110 20 1 20 3 0
11 -31 13 -36 387 -5 387 11 0 20 10 20 21 0 12 -11 15 -25 6 -15 -8 -12 1 5
23 22 28 23 33 3 21 -87 -52 99 950 199 1078 42 53 78 67 78 30z"/>
<path d="M1340 4099 c-85 -20 -220 -77 -185 -78 52 -2 21 -82 -70 -182 -192
-211 -407 -546 -428 -670 -4 -21 -14 -44 -22 -50 -8 -6 -33 -87 -56 -180 -22
-93 -47 -181 -55 -195 -25 -46 -4 -360 25 -371 18 -7 36 61 67 256 93 585 360
1045 806 1385 139 105 113 132 -82 85z"/>
<path d="M1250 3003 c-158 -101 -289 -220 -438 -396 -190 -223 -223 -307 -49
-121 162 172 244 234 312 234 50 0 49 15 46 -380 -1 -177 5 -218 36 -258 38
-48 38 -48 37 190 -2 268 42 466 147 674 85 166 82 168 -91 57z"/>
<path d="M1804 2511 c-219 -118 -422 -285 -523 -431 -36 -51 -10 -34 95 64
324 303 428 288 411 -59 -17 -339 36 -378 68 -51 21 206 39 298 97 501 17 59
1 57 -148 -24z"/>
<path d="M2578 2415 c-12 -25 -50 -74 -84 -110 -34 -35 -54 -71 -45 -80 9 -8
21 -4 25 10 5 14 17 21 26 15 8 -5 31 24 50 65 20 41 43 91 53 110 10 19 14
35 8 35 -5 0 -20 -20 -33 -45z"/>
</g>
</svg>
