<?xml version="1.0" standalone="no"?>
<!DOCTYPE svg PUBLIC "-//W3C//DTD SVG 20010904//EN"
 "http://www.w3.org/TR/2001/REC-SVG-20010904/DTD/svg10.dtd">
<svg version="1.0" xmlns="http://www.w3.org/2000/svg"
 width="489.000000pt" height="384.000000pt" viewBox="0 0 489.000000 384.000000"
 preserveAspectRatio="xMidYMid meet">
<metadata>
Created by potrace 1.10, written by Peter Selinger 2001-2011
</metadata>
<g transform="translate(0.000000,384.000000) scale(0.100000,-0.100000)"
fill="#000000" stroke="none">
<path d="M0 1920 l0 -1920 2445 0 2445 0 0 1920 0 1920 -2445 0 -2445 0 0
-1920z m2976 598 c11 -10 14 -77 14 -311 1 -163 -2 -302 -5 -307 -3 -6 -22
-10 -41 -10 -27 0 -37 5 -46 25 -12 26 -32 33 -44 14 -9 -15 -91 -49 -117 -49
-34 1 -99 34 -133 68 -21 22 -36 53 -48 101 -17 65 -17 71 0 130 23 83 62 135
120 160 58 26 94 26 143 1 21 -10 41 -16 45 -13 3 4 6 50 6 103 0 53 3 100 8
104 11 11 83 0 98 -16z m162 -128 c3 -90 13 -116 34 -87 18 24 87 57 120 57
37 0 99 -40 129 -82 22 -31 24 -44 28 -189 2 -111 -1 -163 -9 -180 -12 -22
-13 -22 -26 -4 -10 14 -14 56 -14 155 0 185 -14 225 -90 250 -37 12 -44 11
-85 -10 -74 -38 -79 -52 -85 -239 -5 -169 -11 -189 -44 -156 -14 14 -16 51
-16 289 0 150 3 276 7 280 4 4 16 6 28 4 18 -3 20 -11 23 -88z m892 0 c5 -34
7 -35 57 -40 57 -6 68 -12 60 -34 -4 -10 -23 -16 -59 -18 l-53 -3 -3 -159 c-3
-180 3 -202 60 -208 25 -2 33 -8 33 -23 0 -47 -105 -17 -133 37 -8 14 -13 85
-15 188 l-2 165 -30 5 c-47 8 -38 37 18 54 11 3 17 15 17 34 0 56 42 57 50 2z
m-1966 -62 c6 -18 6 -38 0 -55 -7 -23 -16 -29 -45 -31 -23 -2 -45 -12 -60 -28
-22 -24 -24 -36 -29 -165 -5 -153 -8 -159 -67 -159 -21 0 -36 6 -42 18 -5 9
-11 108 -12 220 -4 225 -5 225 61 220 27 -2 35 -8 40 -27 6 -24 30 -42 30 -22
0 16 73 62 95 59 11 -2 24 -15 29 -30z m313 15 c58 -27 96 -75 114 -146 27
-101 26 -102 -137 -105 -142 -3 -156 -7 -146 -44 14 -54 130 -95 201 -70 36
13 59 -1 63 -37 3 -22 -4 -27 -52 -42 -70 -23 -129 -23 -182 -2 -107 42 -148
103 -148 219 0 54 5 85 20 113 53 105 174 157 267 114z m1384 0 c73 -39 87
-86 91 -298 2 -128 1 -140 -16 -143 -10 -2 -25 6 -33 19 -14 18 -18 20 -27 8
-37 -46 -126 -62 -174 -32 -72 45 -93 121 -53 187 26 41 61 60 151 81 41 10
81 19 88 21 18 5 15 43 -9 80 -23 38 -64 50 -132 40 -75 -11 -80 -11 -84 1 -7
19 67 52 119 53 26 0 61 -8 79 -17z m-3234 -186 c12 -7 31 -25 43 -40 17 -21
28 -27 45 -23 16 4 30 -4 55 -29 19 -19 39 -35 46 -35 6 0 18 -7 25 -16 11
-13 26 -15 79 -10 36 4 73 6 83 6 9 0 31 -1 47 -1 150 0 145 2 148 -47 3 -37
-4 -52 -56 -131 -33 -49 -58 -92 -54 -95 13 -14 36 -3 80 39 26 25 54 45 62
45 9 0 26 14 38 30 22 29 25 30 102 30 43 0 81 -4 84 -9 8 -13 -76 -104 -143
-155 -60 -46 -179 -106 -210 -106 -10 0 -38 -7 -61 -15 -78 -28 -245 -13 -345
30 -90 39 -125 59 -177 100 -55 43 -143 142 -155 175 -3 8 -11 21 -17 29 -10
13 -36 79 -36 94 0 4 26 7 58 7 31 1 68 7 82 15 35 20 41 19 83 -20 63 -58
126 -41 69 18 -48 51 -56 74 -37 103 17 27 30 29 62 11z m961 -234 c-2 -10
-10 -18 -18 -18 -8 0 -16 8 -18 18 -2 12 3 17 18 17 15 0 20 -5 18 -17z m2732
-3 c0 -11 -4 -20 -9 -20 -14 0 -23 18 -16 30 10 17 25 11 25 -10z"/>
<path d="M2721 2245 c-47 -26 -66 -127 -39 -203 16 -44 85 -79 121 -61 59 31
67 47 67 140 0 83 -2 90 -27 114 -31 28 -81 32 -122 10z"/>
<path d="M2232 2240 c-12 -16 -22 -39 -22 -50 0 -20 5 -21 88 -18 79 3 87 5
90 24 2 11 -7 32 -18 47 -18 23 -29 27 -69 27 -41 0 -50 -4 -69 -30z"/>
<path d="M3725 2127 c-115 -21 -155 -61 -139 -142 5 -29 13 -39 43 -51 31 -13
42 -13 76 -2 22 7 52 26 68 43 23 25 27 38 27 86 0 69 -9 78 -75 66z"/>
<path d="M856 1932 c-6 -10 52 -52 72 -52 5 0 17 11 26 25 16 24 16 25 -8 25
-13 0 -37 3 -54 6 -16 3 -32 1 -36 -4z"/>
</g>
</svg>
