<?xml version="1.0" encoding="UTF-8" standalone="no"?>
<svg width="112px" height="48px" viewBox="0 0 112 48" version="1.1" xmlns="http://www.w3.org/2000/svg" xmlns:xlink="http://www.w3.org/1999/xlink" xmlns:sketch="http://www.bohemiancoding.com/sketch/ns">
    <!-- Generator: Sketch 3.4.3 (16618) - http://www.bohemiancoding.com/sketch -->
    <title>Header Logo</title>
    <desc>Created with Sketch.</desc>
    <defs></defs>
    <g id="Solutions" stroke="none" stroke-width="1" fill="none" fill-rule="evenodd" sketch:type="MSPage">
        <g id="Solutions-Main-Page" sketch:type="MSArtboardGroup" transform="translate(-51.000000, -22.000000)">
            <g id="Header-Bar-Black" sketch:type="MSLayerGroup" transform="translate(51.000000, 22.000000)">
                <g id="Header-Logo" sketch:type="MSShapeGroup">
                    <g id="6fusion_logo_BW_2">
                        <g id="Fill-6-+-Fill-7" transform="translate(20.000000, 14.000000)" fill="#4A4A4A">
                            <path d="M51.9844295,29.79325 L51.9844295,15.68275 L48.858953,15.68275 L48.858953,29.79325 C48.858953,31.32025 49.150604,32.58925 49.8534228,33.5395 L50.0187919,33.76 L50.0789262,33.8455 L53.6178255,33.8455 L52.8834362,32.686 C52.2700671,31.714 51.9844295,30.766 51.9844295,29.79325 L51.9844295,29.79325 Z M85.8347383,16.39525 L85.8347383,16.396 C85.0469799,16.1485 84.2704966,16.0225 83.5173154,16.0225 L83.511302,16.0225 C83.5052886,16.01875 83.4977718,16.01875 83.4849933,16.0225 L83.4692081,16.0225 C82.7130201,16.0225 81.9372886,16.1485 81.1480268,16.393 C77.6489664,17.4205 75.6487517,19.92625 75.6592752,23.3845 C75.6592752,23.41075 75.6592752,23.443 75.6622819,23.4805 L75.6622819,33.337 L78.7870067,33.337 L78.7870067,23.4985 C78.8373691,21.325 79.7566711,20.14225 82.1500134,19.3555 C82.6498792,19.2085 83.1106577,19.13875 83.5361074,19.1365 C83.9247248,19.1365 84.3569396,19.207 84.8335034,19.3555 C87.2268456,20.14225 88.149906,21.325 88.2002685,23.5015 L88.2002685,33.33925 L91.3227383,33.33925 L91.3227383,23.3845 C91.3310067,19.9525 89.335302,17.45275 85.8347383,16.39525 L85.8347383,16.39525 Z M68.0725906,28.87825 C66.8751678,30.064 65.498094,30.6325 63.8233557,30.6385 C62.1155436,30.6325 60.726443,30.061 59.5342819,28.87825 C58.3428725,27.68425 57.7693423,26.29975 57.7663356,24.59575 C57.7693423,22.924 58.3428725,21.55075 59.5342819,20.3545 C60.726443,19.17175 62.1155436,18.601 63.8233557,18.5935 C65.498094,18.601 66.8751678,19.17175 68.0725906,20.3545 C69.2587383,21.55075 69.8315168,22.924 69.8345235,24.59575 C69.8315168,26.29975 69.2557315,27.68425 68.0725906,28.87825 L68.0725906,28.87825 Z M63.8511678,15.68275 L63.8263624,15.68275 L63.8038121,15.68275 C61.3713826,15.6805 59.2103087,16.57075 57.4867114,18.28975 C55.7450738,19.99975 54.8445638,22.15 54.8445638,24.58075 L54.8445638,24.59575 L54.8445638,24.6085 C54.8445638,27.064 55.7450738,29.23075 57.4867114,30.94375 C59.2103087,32.659 61.3683758,33.55075 63.8000537,33.55075 L63.8038121,33.54925 L63.8421477,33.55075 L63.8451544,33.55075 C66.2768322,33.55075 68.4296376,32.659 70.1427114,30.94 C71.865557,29.23075 72.7562953,27.067 72.7532886,24.616 L72.7532886,24.59575 L72.7532886,24.5755 C72.7562953,22.14775 71.8625503,19.99975 70.1397047,18.292 C68.4296376,16.576 66.2768322,15.6805 63.8511678,15.68275 L63.8511678,15.68275 Z M38.3828188,16.981 C37.050094,18.00625 36.3066846,19.39975 36.3081879,20.97025 C36.3081879,20.97325 36.3081879,20.983 36.3096913,20.99875 C36.3081879,21.00175 36.3081879,21.00475 36.3081879,21.01225 C36.3081879,22.55425 36.9794362,24.03625 38.1926443,25.393 C39.248,26.58025 39.6967517,27.6025 39.6967517,28.42825 C39.6967517,28.42825 39.693745,28.4335 39.6967517,28.456 C39.6809664,29.00425 39.4862819,29.401 38.9037315,29.87725 C38.2685638,30.37525 37.7574228,30.55975 37.4169128,30.55975 L37.4071409,30.55975 L37.3815839,30.55975 L31.5635973,30.55975 L31.5635973,33.67825 L37.4169128,33.67825 C38.7398658,33.67825 39.9884027,33.15325 41.0798389,32.1985 C42.2073557,31.23175 42.8214765,29.92825 42.8214765,28.46275 L42.8214765,28.4395 C42.8184698,27.0085 42.1374497,25.59625 40.9415302,24.20875 C39.8997047,22.9975 39.4419329,21.934 39.429906,21.04675 L39.429906,21.004 C39.4419329,20.428 39.6584161,19.9675 40.2973423,19.432 C40.8956779,18.98275 41.422604,18.80125 41.8924027,18.80125 L46.3596242,18.80125 L46.4400537,15.68275 L41.8863893,15.68275 C40.6528859,15.68275 39.4637315,16.1425 38.3828188,16.981 L38.3828188,16.981 Z M27.8202416,26.16025 L27.8202416,26.16025 C27.7706309,28.33 26.8498255,29.5105 24.4594899,30.2995 C23.9107651,30.445 23.4484832,30.517 23.1275168,30.517 C23.1275168,30.517 23.1260134,30.517 23.1237584,30.51475 C23.117745,30.51475 23.1102282,30.51325 23.0921879,30.517 C22.7742282,30.51475 22.3111946,30.442 21.7459329,30.289 C19.379651,29.5105 18.4573423,28.33 18.4062282,26.15575 L18.4062282,15.6415 L15.2815034,15.6415 L15.2815034,26.16025 C15.2807517,26.185 15.2807517,26.2165 15.2807517,26.2465 C15.2702282,29.6965 17.2711946,32.19325 20.7740134,33.22 C21.6098792,33.49075 22.3901208,33.6325 23.1132349,33.6325 C23.838604,33.6325 24.6173423,33.49075 25.4644832,33.217 C28.9590336,32.164 30.9554899,29.671 30.9449664,26.2465 L30.9449664,15.6415 L27.8202416,15.6415 L27.8202416,26.16025 L27.8202416,26.16025 Z" id="Fill-6"></path>
                            <path d="M16.1241342,0.55225 C14.0983624,0.55225 11.8636242,0.96625 9.40789262,1.77175 C7.56102013,2.36275 6.18469799,3.12325 5.32628188,4.17325 C4.33707383,5.29225 3.88606711,6.889 3.88606711,8.83225 L3.88606711,15.85075 L0.710979866,15.85075 L0.710979866,18.9685 L1.54985235,18.9685 L1.54985235,18.9715 L3.88606711,18.9715 L3.88606711,33.337 L7.01379866,33.337 L7.01379866,18.9715 L12.3341745,18.9715 L12.3341745,15.8725 L7.01379866,15.8725 L7.01379866,8.84275 C7.06641611,6.64075 7.9932349,5.47 10.4249128,4.72075 C13.0129396,3.985 14.9485101,3.62725 16.1068456,3.62725 L16.8818255,3.628 L16.8818255,0.55225 L16.1241342,0.55225" id="Fill-7"></path>
                        </g>
                        <g id="Group" fill="#84BD00">
                            <path d="M66.3731544,3.858 C66.2288322,4.31325 66.1619329,4.77525 66.1619329,5.229 C66.1619329,7.15875 67.4022013,8.9505 69.3452886,9.56325 C69.8000537,9.70575 70.2645906,9.774 70.718604,9.774 C72.6519195,9.774 74.4469262,8.538 75.0625503,6.59925 C75.2076242,6.14175 75.2775302,5.6805 75.2775302,5.2275 C75.2775302,3.2985 74.034255,1.5075 72.0911678,0.894 C71.6341477,0.7515 71.1703624,0.681 70.718604,0.681 C68.7822819,0.68325 66.9895302,1.91925 66.3731544,3.858" id="Fill-1"></path>
                            <path d="M94.8482148,3.858 C94.7008859,4.31325 94.6339866,4.77525 94.6339866,5.229 C94.6339866,7.15875 95.8750067,8.9505 97.8173423,9.56325 C98.2736107,9.70575 98.7366443,9.774 99.1906577,9.774 C101.125477,9.774 102.91898,8.538 103.534604,6.59925 C103.679678,6.14175 103.748832,5.6805 103.748832,5.2275 C103.748832,3.2985 102.507812,1.5075 100.563221,0.894 C100.109208,0.7515 99.6446711,0.681 99.1921611,0.681 C97.2573423,0.68325 95.4615839,1.91925 94.8482148,3.858" id="Fill-2"></path>
                            <path d="M94.8482148,18.13575 C94.7008859,18.5925 94.6339866,19.0545 94.6339866,19.50825 C94.6339866,21.43875 95.8750067,23.229 97.8173423,23.841 C98.2736107,23.9835 98.7366443,24.05325 99.1906577,24.05325 C101.125477,24.05325 102.91898,22.818 103.534604,20.8785 C103.679678,20.421 103.748832,19.95975 103.748832,19.50675 C103.748832,17.577 102.507812,15.786 100.563221,15.174 C100.109208,15.03 99.6446711,14.961 99.1921611,14.961 C97.2573423,14.9625 95.4615839,16.1985 94.8482148,18.13575" id="Fill-3"></path>
                            <path d="M80.6851007,18.13575 C80.5415302,18.5925 80.4723758,19.0545 80.4723758,19.50825 C80.4723758,21.43875 81.7111409,23.229 83.6542282,23.841 C84.1112483,23.9835 84.5735302,24.05325 85.0275436,24.05325 C86.9638658,24.05325 88.7581208,22.818 89.3722416,20.8785 C89.5165638,20.421 89.5864698,19.95975 89.5864698,19.50675 C89.5864698,17.577 88.3439463,15.786 86.4008591,15.174 C85.9445906,15.03 85.4823087,14.961 85.0297987,14.961 C83.0942282,14.9625 81.2984698,16.1985 80.6851007,18.13575" id="Fill-4"></path>
                            <path d="M89.1008859,7.22775 C88.5281074,8.21475 87.497557,9.00675 86.3768054,9.261 L86.0197584,9.32925 C85.2312483,9.4545 81.2511141,10.167 78.4721611,12.95475 C77.9174228,13.515 77.4325906,14.1375 77.0161611,14.8035 C76.3742282,15.83325 75.8570738,16.9485 75.4970201,18.10875 C75.3632215,18.53625 75.2264161,18.97725 75.1271946,19.428 C74.9926443,20.0505 74.9310067,20.67525 74.7400805,21.21 C74.3071141,22.4145 73.201396,23.4 71.973906,23.78325 C71.5326711,23.922 71.0869262,23.9895 70.6517047,23.9895 C68.7980671,23.9895 67.1819597,22.764 66.4648591,20.91675 C66.2979866,20.493 66.2168054,20.013 66.2168054,19.53075 C66.2168054,19.08675 66.282953,18.6435 66.413745,18.2445 C66.5497987,17.80725 66.7813154,17.34975 67.045906,16.97775 C67.5006711,16.34325 68.2027383,15.795 68.9296107,15.51675 C69.797047,15.18225 70.8140671,15.13125 71.8025235,14.8215 C72.7240805,14.52825 73.6238389,14.19075 74.4920268,13.7445 C75.5007785,13.22625 76.4531544,12.5595 77.2672215,11.7615 C80.0627114,8.991 80.7737987,5.01675 80.9023356,4.224 L80.9218792,4.137 C80.9519463,3.99825 80.9865235,3.86625 81.0248591,3.7425 C81.5480268,2.0895 82.9611812,0.969 84.5705235,0.73125 L84.9771812,0.6735 C85.0809128,0.6645 85.187651,0.66 85.2981477,0.66 C86.0738792,0.65925 86.909745,0.8835 87.5343893,1.3035 C88.8904161,2.21325 89.6932081,3.62925 89.690953,5.1 C89.690953,5.3985 89.6586309,5.6985 89.5924832,6.00075 C89.4962685,6.42075 89.3354094,6.83475 89.1008859,7.22775" id="Fill-8"></path>
                            <path d="M14.8854765,38.67525 C14.4788188,35.2875 11.2947114,33.17925 8.40526174,33.5235 C5.44214765,33.8775 2.94808054,36.91575 3.30212081,39.87225 C3.67795973,43.00875 6.66136913,45.285 9.76880537,44.91675 C12.8033289,44.5545 15.2477852,41.703 14.8854765,38.67525 L14.8854765,38.67525 Z M12.609396,20.5905 L6.52155705,31.263 L6.60424161,31.32525 C7.35065772,30.83475 8.22260403,30.4755 9.19978523,30.35775 C13.6790336,29.82525 17.5704698,33.5655 18.0936376,37.9275 C18.6874631,42.903 15.1154899,47.3505 10.1679463,47.93925 C5.47071141,48.49875 0.632161074,45.1275 0.0586308725,40.33125 C-0.269100671,37.59375 0.827597315,35.12175 2.16257718,32.8065 L9.9544698,19.2255 L12.609396,20.5905 L12.609396,20.5905 Z" id="Fill-9"></path>
                        </g>
                    </g>
                </g>
            </g>
        </g>
    </g>
</svg>