<?xml version="1.0" encoding="utf-8"?>
<!-- Generator: Adobe Illustrator 19.1.0, SVG Export Plug-In . SVG Version: 6.00 Build 0)  -->
<!DOCTYPE svg PUBLIC "-//W3C//DTD SVG 1.1//EN" "http://www.w3.org/Graphics/SVG/1.1/DTD/svg11.dtd">
<svg version="1.1" id="JIRA_-_Blue" xmlns="http://www.w3.org/2000/svg" xmlns:xlink="http://www.w3.org/1999/xlink" x="0px"
	 y="0px" width="1150px" height="267.72px" viewBox="0 0 1150 267.72" style="enable-background:new 0 0 1150 267.72;"
	 xml:space="preserve">
<style type="text/css">
	.st0{fill:#205081;}
</style>
<path class="st0" d="M421.386,107.99c-0.414-1.312-1.629-2.203-3.004-2.203h-29.395c-1.375,0-2.592,0.891-3.004,2.203
	l-34.018,107.891l-20.936-30.197c11.59-4.809,17.465-14.885,17.465-29.953v-15.834c0-23.59-12.318-34.11-39.938-34.11h-47.887
	c-1.74,0-3.15,1.41-3.15,3.15v117.624c0,1.74,1.41,3.15,3.15,3.15h19.332c1.74,0,3.15-1.41,3.15-3.15V189.67h19.785l26.908,38.689
	c0.588,0.846,1.555,1.352,2.586,1.352h39.705c1.396,0,2.625-0.918,3.021-2.258l25.539-86.51c0,0,0.668-2.16,2.98-2.16
	c2.352,0,2.924,2.246,2.924,2.248l11.85,41.023h-16.279c-1.412,0-2.65,0.939-3.033,2.297l-4.566,16.239
	c-0.268,0.95-0.074,1.97,0.521,2.755c0.596,0.786,1.523,1.248,2.51,1.248h27.473l7.137,22.903c0.41,1.317,1.629,2.214,3.008,2.214
	h20.246c1.004,0,1.947-0.477,2.539-1.287c0.594-0.81,0.766-1.854,0.465-2.811L421.386,107.99z M322.861,153.729
	c0,10.014-3.838,13.391-15.211,13.391h-24.496v-38.43h24.496c12.668,0,15.211,4.984,15.211,13.028V153.729z"/>
<g>
	<path class="st0" d="M233.962,105.72h-19.333c-1.739,0-3.15,1.41-3.15,3.15v117.626c0,1.74,1.411,3.15,3.15,3.15h19.333
		c1.739,0,3.15-1.41,3.15-3.15V108.87C237.112,107.13,235.701,105.72,233.962,105.72z"/>
	<path class="st0" d="M357.877,224.446l-26.917-38.827c11.59-4.809,17.464-14.884,17.464-29.953v-15.835
		c0-23.591-12.317-34.111-39.936-34.111H260.6c-1.739,0-3.15,1.41-3.15,3.15v117.626c0,1.74,1.411,3.15,3.15,3.15h19.333
		c1.739,0,3.15-1.41,3.15-3.15v-36.891h19.784l26.908,38.689c0.589,0.846,1.555,1.352,2.586,1.352h23.104c0.006,0,0.014,0,0.02,0
		c1.74,0,3.15-1.41,3.15-3.15C358.635,225.713,358.35,224.997,357.877,224.446z M283.083,128.623h24.495
		c12.668,0,15.212,4.985,15.212,13.029v12.013c0,10.013-3.838,13.391-15.212,13.391h-24.495V128.623z"/>
</g>
<path class="st0" d="M421.314,107.923c-0.413-1.312-1.629-2.203-3.004-2.203h-29.395c-1.375,0-2.591,0.892-3.004,2.203
	l-37.086,117.626c-0.302,0.957-0.13,2.001,0.464,2.811c0.593,0.811,1.536,1.287,2.54,1.287h20.236c1.397,0,2.626-0.918,3.022-2.258
	l25.539-86.509c0,0,0.668-2.16,2.98-2.16c2.352,0,2.924,2.245,2.924,2.248l11.85,41.023h-16.279c-1.411,0-2.65,0.939-3.032,2.297
	l-4.567,16.239c-0.268,0.95-0.074,1.97,0.521,2.755c0.596,0.786,1.525,1.248,2.511,1.248h27.472l7.137,22.903
	c0.41,1.317,1.629,2.214,3.008,2.214h20.246c1.004,0,1.947-0.477,2.54-1.287c0.594-0.81,0.766-1.854,0.464-2.811L421.314,107.923z"
	/>
<path class="st0" d="M188.685,105.72h-19.568c-1.656,0-3.008,1.344-3.008,3v92.042c0,11.567-8.814,15.369-14.779,15.673
	c-0.804,0.039-1.739,0.546-2.254,1.297c-0.516,0.754-0.659,1.7-0.392,2.572l4.758,15.477c0.388,1.267,1.753,2.08,3.975,2.08
	c18.723,0,34.268-14.699,34.268-34.403v-94.736c0-0.796-0.315-1.56-0.879-2.123C190.244,106.036,189.481,105.72,188.685,105.72z"/>
<g>
	<g>
		<g>
			<g>
				<path class="st0" d="M37.154,73.631c-6.012,0-10.88,4.863-10.88,10.89c0,6.011,4.868,10.891,10.88,10.891
					c6.018,0,10.88-4.879,10.88-10.891C48.034,78.494,43.172,73.631,37.154,73.631L37.154,73.631L37.154,73.631z"/>
			</g>
		</g>
		<g>
			<g>
				<path class="st0" d="M108.635,73.631c-6.016,0-10.877,4.863-10.877,10.89c0,6.011,4.861,10.891,10.877,10.891
					c5.998,0,10.878-4.879,10.878-10.891C119.513,78.494,114.633,73.64,108.635,73.631L108.635,73.631L108.635,73.631z"/>
			</g>
		</g>
	</g>
	<g>
		<g>
			<path class="st0" d="M72.894,63.696c-6.012,0-10.88,4.861-10.88,10.89c0,6.013,4.868,10.893,10.88,10.893
				c6.016,0,10.878-4.88,10.878-10.893C83.772,68.557,78.91,63.696,72.894,63.696L72.894,63.696L72.894,63.696z"/>
		</g>
	</g>
</g>
<g>
	<path class="st0" d="M134.355,103.975c-0.605-0.46-1.333-0.699-2.071-0.699c-0.409,0-0.823,0.075-1.216,0.226
		c-7.367,2.817-14.848,4.957-21.676,6.547c-1.393,0.325-2.518,1.359-2.984,2.602c-4.975,13.627-17.678,26.603-31.006,40.194
		c-0.535,0.508-1.284,1.177-2.504,1.177c-1.217,0-1.959-0.648-2.504-1.177c-13.326-13.592-26.029-26.522-31.006-40.15
		c-0.467-1.241-1.592-2.275-2.982-2.601c-6.832-1.591-14.332-3.797-21.689-6.613c-0.394-0.15-0.809-0.225-1.219-0.225
		c-0.738,0-1.452,0.232-2.057,0.693c-0.943,0.72-1.434,1.888-1.322,3.01c1.129,11.332,5.606,22.41,13.687,34.019
		c7.596,10.914,17.504,21.017,27.083,30.786c17.649,18.003,34.323,35.005,35.786,54.722c0.132,1.778,1.613,3.157,3.4,3.157h20.736
		c0.934,0,1.826-0.384,2.471-1.06c0.643-0.677,0.982-1.584,0.936-2.519c-0.652-13.182-5.613-26.383-15.166-40.353
		c-2.002-2.93-4.146-5.779-6.389-8.568c-0.91-1.136-0.529-2.547,0.168-3.259c0.688-0.705,1.381-1.408,2.076-2.121
		c9.58-9.77,19.486-19.872,27.084-30.786c8.08-11.61,12.557-22.623,13.686-33.954C135.791,105.885,135.273,104.677,134.355,103.975z
		"/>
	<g>
		<path class="st0" d="M50.646,187.1c-0.49-0.513-1.211-1.037-2.421-1.037c-1.548,0-2.466,1.07-2.813,1.601
			c-8.722,13.272-13.227,25.8-13.85,38.389c-0.045,0.928,0.297,1.85,0.94,2.528c0.644,0.674,1.549,1.062,2.48,1.062h20.701
			c1.781,0,3.281-1.393,3.412-3.17c0.451-6.067,2.34-12.149,5.779-18.54c1.191-2.211,0.266-4.288-0.421-5.176
			C61.042,198.319,56.863,193.587,50.646,187.1z"/>
	</g>
	<path class="st0" d="M72.918,114.134c6.498,0,10.267-0.391,11.592-0.391c1.604,0,3.137,1.314,3.137,3.154
		c0,0.537-0.127,0.92-0.253,1.259c-0.862,2.305-4.79,10.595-12.103,17.705c-0.82,0.798-1.75,0.947-2.391,0.947h-0.008
		c-0.639,0-1.568-0.149-2.388-0.947c-7.314-7.111-11.242-15.401-12.103-17.705c-0.127-0.339-0.254-0.722-0.254-1.259
		c0-1.84,1.535-3.154,3.139-3.154c1.324,0,5.092,0.391,11.588,0.391H72.918z"/>
</g>
<path class="st0" d="M498.581,225.747c9.793,3.744,23.428,6.07,35.581,6.07c33.916,0,40.552-12.525,40.552-34.161
	c0-11.646-0.242-19.066-5.006-24.65c-4.325-5.071-12.094-8.42-29.688-12.799c-11.306-2.831-17.849-4.576-20.824-7.523
	c-2.644-2.618-2.92-6.75-2.92-15.555c0-13.376,3.176-17.541,23.029-17.541c9.559,0,20.432,1.153,29.83,3.164
	c0.139,0.03,0.279,0.044,0.419,0.044c0.421,0,0.836-0.133,1.182-0.386c0.46-0.337,0.755-0.854,0.81-1.422l1.039-10.818
	c0.096-0.985-0.545-1.891-1.504-2.131c-9.322-2.335-21.637-3.786-32.137-3.786c-33.051,0-39.823,12.922-39.823,32.324
	c0,11.494,0.39,20.1,5.426,26.183c5.002,6.041,14.12,9.045,28.181,12.194c12.425,2.815,18.866,4.676,21.854,7.627
	c2.709,2.677,2.978,6.561,2.978,15.446c0,14.491-4.951,18.459-23.033,18.459c-10.612,0-21.884-1.688-32.596-4.882
	c-0.188-0.056-0.38-0.083-0.571-0.083c-0.36,0-0.718,0.098-1.032,0.287c-0.482,0.29-0.819,0.77-0.93,1.322l-2.065,10.357
	C497.143,224.444,497.67,225.398,498.581,225.747z"/>
<path class="st0" d="M662.716,171.535c0-6.061-1.126-14.781-6.491-21.907c-6.215-8.255-16.5-12.44-30.569-12.44
	c-14.07,0-24.354,4.186-30.568,12.44c-5.364,7.126-6.49,15.846-6.49,21.907v25.94c0,6.06,1.126,14.779,6.49,21.903
	c6.215,8.254,16.498,12.438,30.568,12.438c14.069,0,24.354-4.185,30.569-12.438c5.365-7.125,6.491-15.844,6.491-21.903V171.535z
	 M605.378,170.982c0-12.615,6.822-19.011,20.277-19.011c13.453,0,20.273,6.396,20.273,19.011v27.045
	c0,12.61-6.82,19.005-20.273,19.005c-13.455,0-20.277-6.394-20.277-19.005V170.982z"/>
<path class="st0" d="M952.833,137.206c-8.729,0-19.352,1.343-28.415,3.594c-0.989,0.246-1.636,1.196-1.5,2.207l1.31,9.754
	c0.073,0.546,0.369,1.038,0.817,1.359c0.342,0.245,0.75,0.374,1.165,0.374c0.128,0,0.257-0.012,0.384-0.037
	c6.752-1.32,17.2-2.652,25.319-2.652c15.808,0,18.804,5.065,18.804,14.412v13.306h-23.215c-19.666,0-28.058,7.74-28.058,25.88
	c0,17.292,8.433,26.433,24.385,26.433c10.635,0,20.711-2.822,28.515-7.967l0.613,4.406c0.137,0.989,0.982,1.725,1.98,1.725h10.566
	c1.105,0,2-0.895,2-2v-61.046C987.504,146.102,977.135,137.206,952.833,137.206z M970.717,193.752v16.438
	c-6.934,4.418-15.311,7.05-22.477,7.05c-10.349,0-12.004-2.898-12.004-12.206c0-8.54,3.006-11.281,12.37-11.281H970.717z"/>
<path class="st0" d="M1090.078,137.188c-11.685,0-20.658,2.904-26.672,8.63c-6.04,5.752-9.103,14.342-9.103,25.532v26.862
	c0,22.927,11.485,33.605,36.144,33.605c10.613,0,22.12-1.799,30.78-4.812c0.919-0.319,1.474-1.253,1.316-2.212l-1.607-9.805
	c-0.091-0.554-0.409-1.044-0.88-1.35c-0.328-0.215-0.709-0.326-1.094-0.326c-0.166,0-0.332,0.02-0.494,0.062
	c-10.006,2.553-19,3.848-26.732,3.848c-16.013,0-20.643-4.306-20.643-19.194v-6.867h51.287c1.104,0,2-0.896,2-2v-17.441
	C1124.381,148.483,1113.16,137.188,1090.078,137.188z M1090.078,151.421c13.004,0,18.069,5.278,18.069,18.826v6.687h-37.054v-6.687
	C1071.094,157.227,1076.949,151.421,1090.078,151.421z"/>
<path class="st0" d="M726.635,151.473l1.021-10.23c0.057-0.562-0.127-1.122-0.506-1.541c-0.38-0.419-0.918-0.658-1.483-0.658
	h-23.403v-14.412c0-9.146,2.422-11.651,11.266-11.651c3.264,0,8.639,0.558,13.375,1.389c0.115,0.02,0.231,0.03,0.346,0.03
	c0.431,0,0.854-0.139,1.202-0.402c0.442-0.333,0.727-0.834,0.786-1.384l1.019-9.438c0.104-0.971-0.507-1.876-1.446-2.14
	c-5.394-1.517-11.215-2.286-17.301-2.286c-17.032,0-26.035,8.441-26.035,24.412v15.882h-13.806c-1.104,0-2,0.895-2,2v10.23
	c0,1.104,0.896,2,2,2h13.806v74.723c0,1.105,0.895,2,2,2h12.789c1.104,0,2-0.895,2-2v-74.723h22.381
	C725.672,153.274,726.532,152.495,726.635,151.473z"/>
<path class="st0" d="M1044.809,138.029c-0.302-0.167-0.636-0.252-0.972-0.252c-0.273,0-0.547,0.056-0.805,0.169
	c-7.66,3.369-15.67,8.065-22.168,12.984l-0.738-10.034c-0.076-1.045-0.946-1.854-1.994-1.854h-10.865c-1.104,0-2,0.895-2,2v86.953
	c0,1.105,0.896,2,2,2h12.793c1.105,0,2-0.895,2-2V167.85c5.25-3.667,15.129-10.274,24.299-14.781
	c0.777-0.382,1.221-1.22,1.098-2.077l-1.639-11.496C1045.729,138.875,1045.356,138.333,1044.809,138.029z"/>
<path class="st0" d="M780.808,217.177c-0.094-0.548-0.41-1.032-0.875-1.338c-0.328-0.216-0.711-0.328-1.098-0.328
	c-0.16,0-0.319,0.019-0.477,0.058c-5.176,1.27-9.119,1.836-12.785,1.836c-8.113,0-8.508-3.346-8.508-9.259v-54.887h22.19
	c1.104,0,2-0.896,2-2v-10.23c0-1.105-0.896-2-2-2h-22.19v-22.082c0-0.579-0.252-1.131-0.689-1.511
	c-0.366-0.317-0.832-0.489-1.311-0.489c-0.094,0-0.188,0.007-0.283,0.02l-12.795,1.828c-0.986,0.141-1.718,0.985-1.718,1.98v20.254
	h-23.8c-1.104,0-2,0.895-2,2v10.23c0,1.104,0.896,2,2,2h23.8v57.465c0,7.439,1.811,12.709,5.536,16.11
	c3.723,3.4,9.244,4.983,17.377,4.983c5.936,0,12.292-1.054,17.898-2.967c0.928-0.316,1.489-1.26,1.326-2.227L780.808,217.177z"/>
<path class="st0" d="M910.645,139.044h-11.982c-0.953,0-1.774,0.673-1.961,1.607l-14.13,70.567l-20.638-70.735
	c-0.249-0.854-1.031-1.44-1.92-1.44H843.26c-0.889,0-1.671,0.586-1.92,1.44l-20.639,70.747l-14.125-70.579
	c-0.188-0.935-1.008-1.607-1.961-1.607H792.63c-0.604,0-1.175,0.272-1.556,0.742c-0.379,0.469-0.526,1.085-0.4,1.675l18.545,86.953
	c0.197,0.923,1.014,1.583,1.957,1.583h17.771c0.893,0,1.678-0.592,1.924-1.451l20.762-72.749l20.77,72.749
	c0.246,0.859,1.031,1.451,1.924,1.451h17.775c0.943,0,1.76-0.66,1.955-1.583l18.544-86.953c0.126-0.59-0.021-1.206-0.401-1.675
	C911.819,139.316,911.248,139.044,910.645,139.044z"/>
</svg>
