<?xml version="1.0" encoding="utf-8"?>
<!-- Generator: Adobe Illustrator 16.0.4, SVG Export Plug-In . SVG Version: 6.00 Build 0)  -->
<!DOCTYPE svg PUBLIC "-//W3C//DTD SVG 1.1//EN" "http://www.w3.org/Graphics/SVG/1.1/DTD/svg11.dtd">
<svg version="1.1" xmlns="http://www.w3.org/2000/svg" xmlns:xlink="http://www.w3.org/1999/xlink" x="0px" y="0px"
	 width="821.403px" height="210.419px" viewBox="0 0 821.403 210.419" enable-background="new 0 0 821.403 210.419"
	 xml:space="preserve">
<g id="bitbucket">
	<g>
		<g>
			<g>
				<path fill="#003366" d="M182.723,1.757c-0.158-0.489-0.607-0.821-1.122-0.821h-10.969c-0.515,0-0.968,0.332-1.121,0.821
					L155.671,45.65c-0.116,0.357-0.05,0.746,0.174,1.046c0.214,0.306,0.571,0.484,0.949,0.484h7.546c0.521,0,0.979-0.341,1.127-0.84
					l9.531-32.283c0,0,0.251-0.806,1.112-0.806c0.882,0,1.091,0.841,1.091,0.841l4.424,15.301h-5.944
					c-0.524,0-0.989,0.357-1.131,0.861l-1.701,6.055c-0.097,0.357-0.025,0.74,0.194,1.03c0.224,0.296,0.569,0.47,0.937,0.47h10.116
					l2.662,8.546c0.152,0.49,0.613,0.826,1.123,0.826h7.557c0.378,0,0.729-0.178,0.949-0.484c0.224-0.3,0.286-0.688,0.173-1.046
					L182.723,1.757z"/>
				<path fill="#003366" d="M215.622,40.416c-0.05-0.326-0.234-0.622-0.509-0.804c-0.276-0.184-0.612-0.239-0.939-0.163
					c-1.224,0.304-2.399,0.473-3.307,0.473c-1.719,0-2.484-0.744-2.484-2.415V20.687h6.745c0.647,0,1.178-0.521,1.178-1.17v-5.246
					c0-0.647-0.531-1.177-1.178-1.177h-6.745V4.995c0-0.336-0.146-0.663-0.402-0.882c-0.258-0.224-0.6-0.321-0.936-0.28
					l-6.942,0.969c-0.582,0.081-1.016,0.581-1.016,1.161v7.131h-3.775c-0.653,0-1.179,0.53-1.179,1.177v5.246
					c0,0.65,0.526,1.17,1.179,1.17h3.775v17.907c0,6.146,3.233,9.266,9.608,9.266c1.815,0,4.892-0.418,6.912-1.116
					c0.53-0.189,0.861-0.73,0.775-1.29L215.622,40.416z"/>
				<path fill="#003366" d="M228.475,0.005h-6.941c-0.652,0-1.177,0.525-1.177,1.17v44.828c0,0.646,0.525,1.177,1.177,1.177h6.941
					c0.648,0,1.173-0.53,1.173-1.177V1.181C229.648,0.53,229.124,0.005,228.475,0.005z"/>
				<path fill="#003366" d="M246.331,12.416c-3.518,0-7.794,0.556-10.897,1.412c-0.581,0.163-0.948,0.729-0.846,1.32l0.811,5.04
					c0.051,0.317,0.229,0.596,0.49,0.775c0.259,0.183,0.581,0.255,0.896,0.194c2.885-0.566,5.866-0.873,8.389-0.873
					c5.016,0,5.812,1.055,5.812,4.451v2.961h-7.443c-7.109,0-10.147,2.94-10.147,9.812c0,6.58,3.334,10.352,9.133,10.352
					c3.355,0,6.719-0.933,9.542-2.636l0.295,1.091c0.143,0.51,0.601,0.866,1.137,0.866h5.607c0.646,0,1.173-0.53,1.173-1.177V24.873
					C260.281,15.794,256.5,12.416,246.331,12.416z M250.985,34.685v4.087c-1.148,0.612-3.233,1.491-5.741,1.491
					c-2.166,0-2.824-0.66-2.824-2.827c0-2.101,0.403-2.751,2.958-2.751H250.985z"/>
				<path fill="#003366" d="M277.68,26.083c-4.306-1.109-4.306-1.155-4.306-3.521c0-1.586,0.153-2.352,3.704-2.352
					c2.434,0,6.021,0.429,8.325,0.821c0.316,0.056,0.64-0.02,0.896-0.213c0.26-0.194,0.428-0.48,0.468-0.799l0.653-5.292
					c0.071-0.596-0.315-1.157-0.902-1.29c-2.66-0.622-6.37-1.024-9.44-1.024c-10.677,0-12.863,4.031-12.863,10.081
					c0,6.652,1.239,8.885,9.418,10.882c5.388,1.295,5.388,2.257,5.388,3.858c0,2.095-0.178,2.823-3.71,2.823
					c-2.84,0-6.126-0.441-9.017-1.212c-0.316-0.081-0.653-0.031-0.928,0.143c-0.281,0.173-0.468,0.459-0.53,0.778l-0.917,5.02
					c-0.106,0.581,0.234,1.147,0.795,1.332c3.15,1.025,7.68,1.738,11.004,1.738c10.34,0,12.456-4.327,12.456-10.826
					C288.175,29.857,286.905,28.527,277.68,26.083z"/>
				<path fill="#003366" d="M304.511,26.083c-4.312-1.109-4.312-1.155-4.312-3.521c0-1.586,0.158-2.352,3.705-2.352
					c2.436,0,6.02,0.429,8.323,0.821c0.321,0.056,0.647-0.02,0.903-0.213c0.259-0.189,0.428-0.48,0.463-0.799l0.658-5.292
					c0.077-0.596-0.316-1.157-0.897-1.29c-2.672-0.622-6.376-1.024-9.45-1.024c-10.673,0-12.866,4.031-12.866,10.081
					c0,6.652,1.239,8.885,9.42,10.882c5.387,1.295,5.387,2.257,5.387,3.858c0,2.095-0.178,2.823-3.7,2.823
					c-2.844,0-6.131-0.441-9.022-1.212c-0.315-0.081-0.652-0.035-0.933,0.143c-0.275,0.173-0.469,0.459-0.525,0.778l-0.923,5.02
					c-0.099,0.581,0.235,1.147,0.796,1.332c3.157,1.025,7.682,1.738,11.01,1.738c10.336,0,12.463-4.327,12.463-10.826
					C315.011,29.857,313.731,28.527,304.511,26.083z"/>
				<path fill="#003366" d="M326.978,0h-6.943c-0.646,0-1.176,0.53-1.176,1.175v6.163c0,0.652,0.53,1.178,1.176,1.178h6.943
					c0.647,0,1.178-0.526,1.178-1.178V1.175C328.155,0.53,327.625,0,326.978,0z"/>
				<path fill="#003366" d="M326.978,13.093h-6.943c-0.646,0-1.176,0.53-1.176,1.177v31.733c0,0.646,0.53,1.177,1.176,1.177h6.943
					c0.647,0,1.178-0.53,1.178-1.177V14.271C328.155,13.624,327.625,13.093,326.978,13.093z"/>
				<path fill="#003366" d="M345.004,12.416c-3.517,0-7.792,0.556-10.896,1.412c-0.577,0.163-0.943,0.729-0.846,1.32l0.811,5.04
					c0.056,0.316,0.229,0.596,0.489,0.775c0.259,0.183,0.584,0.255,0.896,0.194c2.886-0.566,5.872-0.873,8.391-0.873
					c5.015,0,5.813,1.055,5.813,4.451v2.961h-7.44c-7.11,0-10.153,2.94-10.153,9.812c0,6.58,3.333,10.352,9.133,10.352
					c3.353,0,6.718-0.933,9.542-2.636l0.301,1.091c0.137,0.51,0.601,0.866,1.132,0.866h5.606c0.647,0,1.178-0.53,1.178-1.177V24.873
					C358.961,15.794,355.178,12.416,345.004,12.416z M349.663,34.684v4.088c-1.15,0.611-3.235,1.491-5.742,1.491
					c-2.163,0-2.825-0.66-2.825-2.827c0-2.101,0.408-2.752,2.962-2.752H349.663z"/>
				<path fill="#003366" d="M384.641,12.416c-3.678,0-8.689,1.269-12.93,3.255l-0.507-1.732c-0.143-0.5-0.605-0.846-1.127-0.846
					h-5.144c-0.649,0-1.177,0.53-1.177,1.177v31.733c0,0.646,0.528,1.177,1.177,1.177h6.946c0.647,0,1.175-0.53,1.175-1.177V24.026
					c2.503-1.269,6.017-2.591,8.12-2.591c1.564,0,2.145,0.582,2.145,2.147v22.421c0,0.646,0.531,1.177,1.18,1.177h6.939
					c0.654,0,1.178-0.53,1.178-1.177V22.696C392.616,15.875,389.94,12.416,384.641,12.416z"/>
			</g>
		</g>
	</g>
	<g>
		<g>
			<g>
				<g>
					<path fill="#003366" d="M404.803,110.72c-9.223,0-18.545,2.275-24.859,4.641V80.803c0-1.738-1.414-3.146-3.15-3.146h-18.628
						c-1.736,0-3.13,1.408-3.13,3.146v119.01c0,1.51,1.086,2.826,2.577,3.092c11.492,2.096,25.048,2.83,33.187,2.83
						c34.984,0,42.139-14.87,42.139-37.211v-26.049C432.937,121.393,423.471,110.72,404.803,110.72z M391.878,184.102
						c-4.717,0-8.624-0.182-11.935-0.571v-46.559c5.13-2.299,12.346-4.616,18.132-4.616c7.058,0,9.938,2.766,9.938,9.568v27.313
						C408.013,179.093,405.521,184.102,391.878,184.102z"/>
					<path fill="#003366" d="M518.626,112.541h-18.604c-1.736,0-3.146,1.413-3.146,3.127v58.95
						c-6.71,3.401-16.155,6.929-21.777,6.929c-4.193,0-5.742-1.549-5.742-5.746v-60.133c0-1.714-1.432-3.127-3.19-3.127h-18.583
						c-1.762,0-3.154,1.413-3.154,3.127v62.509c0,18.283,7.195,27.559,21.369,27.559c9.872,0,23.308-3.392,34.652-8.726l1.372,4.645
						c0.409,1.344,1.617,2.265,3.028,2.265l13.775-0.004c1.741,0,3.153-1.412,3.153-3.147v-85.1
						C521.78,113.954,520.368,112.541,518.626,112.541z"/>
					<path fill="#003366" d="M593.573,184.654c-0.121-0.877-0.633-1.647-1.33-2.147c-0.732-0.489-1.636-0.653-2.493-0.46
						c-5.337,1.216-10.939,1.874-16.195,1.874c-11.798,0-15.213-3.005-15.213-13.394v-24.6c0-10.397,3.415-13.402,15.213-13.402
						c2.806,0,9.794,0.403,16.195,1.869c0.857,0.196,1.761,0.034,2.493-0.471c0.719-0.484,1.227-1.261,1.33-2.142l2.212-14.727
						c0.22-1.552-0.694-3.03-2.212-3.474c-7.175-2.112-15.583-2.861-20.549-2.861c-28.132,0-39.604,10.246-39.604,35.392v24.231
						c0,25.137,11.472,35.392,39.604,35.392c6.826,0,14.7-1.096,20.549-2.855c1.518-0.449,2.432-1.938,2.212-3.483L593.573,184.654z
						"/>
					<path fill="#003366" d="M721.818,110.72c-24.967,0-38.149,12.434-38.149,35.941v23.499c0,24.265,12.364,35.574,38.889,35.574
						c10.792,0,22.304-1.892,31.566-5.171c1.472-0.53,2.353-2.075,2.045-3.621l-2.761-13.315c-0.184-0.855-0.716-1.61-1.452-2.05
						c-0.755-0.459-1.655-0.58-2.491-0.337c-8.567,2.414-16.687,3.597-24.907,3.597c-13.556,0-15.97-4.393-15.97-13.587v-3.217
						H754.8c1.755,0,3.147-1.393,3.147-3.156v-17.13C757.948,122.479,746.477,110.72,721.818,110.72z M708.587,147.493v-3.019
						c0-8.77,4.279-12.857,13.419-12.857c10.1,0,12.117,4.928,12.117,12.857v3.019H708.587z"/>
					<path fill="#003366" d="M274.068,112.5h-18.605c-1.739,0-3.154,1.418-3.154,3.147v85.085c0,1.745,1.415,3.152,3.154,3.152
						h18.605c1.779,0,3.168-1.407,3.168-3.152v-85.085C277.236,113.917,275.848,112.5,274.068,112.5z"/>
					<path fill="#003366" d="M274.068,77.647h-18.605c-1.739,0-3.154,1.428-3.154,3.157v16.029c0,1.763,1.415,3.159,3.154,3.159
						h18.605c1.779,0,3.168-1.396,3.168-3.159V80.804C277.236,79.075,275.848,77.647,274.068,77.647z"/>
					<g>
						<path fill="#003366" d="M227.204,139.007c7.711-4.242,11.059-10.188,11.059-19.331v-12.513
							c0-18.323-10.995-27.217-33.572-27.217h-45.939c-1.721,0-3.133,1.408-3.133,3.145v117.642c0,1.745,1.412,3.152,3.133,3.152
							h49.213c21.917,0,34.493-10.643,34.493-29.211v-12.922C242.457,150.675,236.834,142.403,227.204,139.007z M181.261,101.578
							h20.69c9.366,0,10.676,4.087,10.676,8.463v10.721c0,6.972-3.255,9.95-10.86,9.95h-4.474c-1.762,0-3.174,1.417-3.174,3.157
							v14.781c0,1.751,1.412,3.161,3.174,3.161h8.093c8.119,0,11.413,3.14,11.413,10.849v9.097c0,7.843-3.375,10.488-13.416,10.488
							h-22.122V101.578z"/>
					</g>
					<path fill="#003366" d="M343.975,185.799c-0.123-0.886-0.612-1.666-1.347-2.166c-0.741-0.489-1.659-0.652-2.519-0.433
						c-3.291,0.82-6.441,1.269-8.872,1.269c-4.602,0-6.646-2.003-6.646-6.476v-45.085h18.074c1.74,0,3.148-1.408,3.148-3.151
						v-14.069c0-1.734-1.408-3.147-3.148-3.147h-18.074V90.864c0-0.917-0.41-1.779-1.083-2.372c-0.694-0.606-1.617-0.88-2.52-0.749
						l-18.605,2.59c-1.554,0.225-2.713,1.556-2.713,3.129v19.078h-10.145c-1.737,0-3.152,1.413-3.152,3.147v14.069
						c0,1.743,1.415,3.151,3.152,3.151h10.145v48.007c0,16.472,8.646,24.835,25.738,24.835c4.868,0,13.128-1.127,18.526-2.999
						c1.451-0.499,2.311-1.938,2.084-3.454L343.975,185.799z"/>
					<path fill="#003366" d="M819.327,185.795c-0.122-0.886-0.632-1.666-1.373-2.168c-0.733-0.487-1.657-0.652-2.493-0.427
						c-3.314,0.816-6.441,1.269-8.893,1.269c-4.582,0-6.665-2.009-6.665-6.481v-45.085h18.096c1.757,0,3.144-1.417,3.144-3.146
						v-14.069c0-1.734-1.387-3.148-3.144-3.148h-18.096v-21.68c0-0.918-0.368-1.78-1.066-2.371
						c-0.695-0.603-1.613-0.877-2.514-0.745l-18.606,2.59c-1.553,0.22-2.722,1.551-2.722,3.113v19.093h-10.138
						c-1.722,0-3.147,1.414-3.147,3.148v14.069c0,1.729,1.426,3.146,3.147,3.146h10.138v48.013c0,16.466,8.671,24.829,25.746,24.829
						c4.887,0,13.125-1.126,18.524-2.997c1.433-0.501,2.326-1.934,2.104-3.454L819.327,185.795z"/>
				</g>
			</g>
		</g>
	</g>
	<path fill="#003366" d="M680.778,198.622l-24.88-41.074l24.001-40.449c0.578-0.975,0.589-2.184,0.028-3.166
		c-0.561-0.984-1.605-1.592-2.737-1.592h-20.553c-1.126,0-2.166,0.602-2.729,1.576L631.077,153.5V80.822
		c0-1.741-1.411-3.15-3.15-3.15h-18.605c-1.739,0-3.15,1.409-3.15,3.15v119.911c0,1.74,1.411,3.15,3.15,3.15h18.605
		c1.739,0,3.15-1.41,3.15-3.15v-39.244l24.295,40.654c0.568,0.951,1.596,1.535,2.704,1.535h20.173c0.006,0,0.014,0,0.02,0
		c1.74,0,3.15-1.412,3.15-3.15C681.418,199.811,681.18,199.151,680.778,198.622z"/>
</g>
<g id="icon">
	<g>
		<path display="none" fill="#003366" d="M150.858,197.981c-1.831-0.955-3.876-0.779-5.335,0.688
			c-0.299,0.24-30.129,23.859-84.584,23.859c-56.827-0.053-83.171-22.385-84.266-23.332c-0.287-0.262-0.631-0.49-0.979-0.668
			c-1.592-0.805-3.506-0.629-4.93,0.449c-1.435,1.07-2.125,2.859-1.795,4.615c1.774,9.498,7.675,40.824,9.04,45.34
			c5.443,18.238,41.185,27.061,83.152,27.08l0,0c35.27,0,78.827-7.404,83.25-27.35c0.6-2.703,4.017-20.463,8.692-45.49
			C153.483,201.147,152.681,198.946,150.858,197.981z"/>
	</g>
	<path fill="#003366" d="M61.172,69.194v0.002V69.194C27.497,69.194,0,78.248,0,89.488c0,2.961,7.343,45.415,10.256,62.25
		c1.306,7.551,20.818,18.621,50.899,18.621l0.031-0.09v0.09c30.081,0,49.593-11.07,50.899-18.621
		c2.913-16.836,10.256-59.29,10.256-62.25C122.343,78.248,94.846,69.194,61.172,69.194z M61.171,156.721
		c-10.739,0-19.445-8.707-19.445-19.445c0-10.74,8.706-19.445,19.445-19.445s19.445,8.705,19.445,19.445
		C80.617,148.014,71.911,156.721,61.171,156.721z M61.161,95.761c-21.636-0.035-39.169-3.794-39.162-8.398
		s17.554-8.307,39.189-8.272c21.636,0.034,39.169,3.793,39.162,8.398C100.342,92.094,82.796,95.795,61.161,95.761z"/>
	<path fill="#003366" d="M105.137,168.613c-0.93,0-1.675,0.658-1.675,0.658s-15.064,11.929-42.291,11.93
		c-27.227-0.001-42.291-11.93-42.291-11.93s-0.746-0.658-1.675-0.658c-1.111,0-2.164,0.746-2.164,2.393
		c0,0.174,0.017,0.348,0.049,0.518c2.338,12.514,4.046,21.393,4.346,22.744c2.041,9.205,20.048,16.151,41.733,16.152l0,0h0.001
		h0.001l0,0c21.686-0.001,39.692-6.947,41.733-16.152c0.3-1.352,2.008-10.23,4.346-22.744c0.032-0.17,0.049-0.344,0.049-0.518
		C107.301,169.359,106.248,168.613,105.137,168.613z"/>
	<circle fill="#003366" cx="61.152" cy="137.27" r="9.745"/>
</g>
<g id="GUIDES">
</g>
</svg>
