<?xml version="1.0" encoding="UTF-8" standalone="no"?>
<!-- Created with Inkscape (http://www.inkscape.org/) -->
<svg
   xmlns:dc="http://purl.org/dc/elements/1.1/"
   xmlns:cc="http://web.resource.org/cc/"
   xmlns:rdf="http://www.w3.org/1999/02/22-rdf-syntax-ns#"
   xmlns:svg="http://www.w3.org/2000/svg"
   xmlns="http://www.w3.org/2000/svg"
   xmlns:sodipodi="http://sodipodi.sourceforge.net/DTD/sodipodi-0.dtd"
   xmlns:inkscape="http://www.inkscape.org/namespaces/inkscape"
   id="svg2"
   sodipodi:version="0.32"
   inkscape:version="0.45+devel"
   width="544.75989"
   height="288.80783"
   version="1.0"
   sodipodi:docbase="/home/users/mimooh"
   sodipodi:docname="postfix_flags.svg"
   inkscape:output_extension="org.inkscape.output.svg.inkscape"
   sodipodi:modified="true">
  <metadata
     id="metadata7">
    <rdf:RDF>
      <cc:Work
         rdf:about="">
        <dc:format>image/svg+xml</dc:format>
        <dc:type
           rdf:resource="http://purl.org/dc/dcmitype/StillImage" />
      </cc:Work>
    </rdf:RDF>
  </metadata>
  <defs
     id="defs5">
    <filter
       inkscape:collect="always"
       x="-0.048278429"
       width="1.0965569"
       y="-0.23832753"
       height="1.4766551"
       id="filter5275">
      <feGaussianBlur
         inkscape:collect="always"
         stdDeviation="4.170345"
         id="feGaussianBlur5277" />
    </filter>
    <filter
       inkscape:collect="always"
       id="filter5861">
      <feGaussianBlur
         inkscape:collect="always"
         stdDeviation="1.7450877"
         id="feGaussianBlur5863" />
    </filter>
  </defs>
  <sodipodi:namedview
     inkscape:window-height="702"
     inkscape:window-width="1012"
     inkscape:pageshadow="2"
     inkscape:pageopacity="0.0"
     guidetolerance="10.0"
     gridtolerance="10.0"
     objecttolerance="10.0"
     borderopacity="1.0"
     bordercolor="#666666"
     pagecolor="#ffffff"
     id="base"
     inkscape:zoom="0.50911688"
     inkscape:cx="706.61686"
     inkscape:cy="276.89207"
     inkscape:window-x="31"
     inkscape:window-y="55"
     inkscape:current-layer="svg2" />
  <path
     style="color:#000000;fill:#555753;fill-opacity:1;fill-rule:nonzero;stroke:none;stroke-width:8.39999962;stroke-linecap:butt;stroke-linejoin:miter;marker:none;marker-start:none;marker-mid:none;marker-end:none;stroke-miterlimit:4;stroke-dasharray:none;stroke-dashoffset:0;stroke-opacity:1;visibility:visible;display:inline;overflow:visible;filter:url(#filter5861);enable-background:accumulate"
     d="M 776.54595,-125.52223 C 769.59225,-125.17946 765.01559,-118.4243 764.7882,-111.9399 C 756.92743,-86.065356 750.25855,-59.768951 744.54595,-33.303471 C 744.30368,-31.595061 744.83771,-21.429261 739.7022,-24.647221 C 729.53143,-27.284431 718.1119,-15.999771 723.3897,-5.9284712 C 723.97941,-3.5913312 719.12035,-3.2356312 718.0772,-0.83472124 C 712.32695,4.7182188 713.78863,14.057789 719.17095,19.352779 C 721.3891,22.001539 718.14482,26.093069 719.7022,29.477779 C 720.5917,33.765749 723.19192,37.685179 726.92095,39.977779 C 726.22145,46.685029 721.88715,53.429529 723.23345,60.134029 C 726.51281,70.445959 742.44377,75.101729 749.4522,66.196529 C 751.85683,60.860869 752.83736,54.521719 754.79595,49.446529 C 756.88553,49.894359 760.28726,46.663299 760.48345,50.259029 C 763.81064,58.706929 767.76216,66.919519 772.79595,74.446529 C 768.02127,78.853269 764.89531,84.922089 765.29595,91.602779 C 764.89615,93.876249 764.67559,87.317979 764.85845,86.196529 C 765.02298,81.607939 767.38609,77.717189 768.35845,73.321529 C 759.62474,77.270129 754.5381,89.889879 760.79595,97.946529 C 740.84365,95.854249 719.60906,96.024449 700.79595,102.19653 C 699.47203,87.989689 692.32518,71.210979 677.4522,66.884029 C 666.31893,63.971319 657.25913,74.668269 655.78819,84.764289 C 652.64291,100.90567 658.02049,119.33063 671.2022,129.54028 C 679.98764,147.98831 701.0988,158.84246 721.2647,157.69653 C 744.75448,156.60539 765.21787,143.70059 786.9522,136.25903 C 797.74927,134.98687 809.65207,136.51225 819.2647,130.25903 C 834.50675,142.19074 839.12504,162.91423 836.1397,181.47778 C 835.33668,186.9225 834.45138,193.82437 832.60845,198.22778 C 825.75491,192.06186 820.13753,182.15316 810.5147,180.32153 C 797.94179,183.83727 791.31182,196.22509 785.6397,206.94653 C 779.31112,203.96354 772.20381,209.08516 771.67095,215.69653 C 756.74011,194.76743 730.76978,181.25767 704.67095,184.75903 C 695.73495,184.55044 687.17721,188.94952 682.8272,196.85278 C 672.80067,211.97348 675.72139,233.07716 687.74416,246.21846 C 707.68453,268.47447 737.67684,277.72194 765.69024,285.64213 C 777.45196,288.0908 790.17387,292.18962 802.10845,288.63403 C 809.47993,286.27622 811.28741,277.27743 808.3897,270.75903 C 804.18479,260.00934 799.91132,249.25768 795.2647,238.66528 C 799.82544,234.81744 804.4006,230.98674 808.98345,227.16528 C 806.18173,223.65091 803.45654,220.04809 800.3897,216.82153 C 804.28991,212.09518 807.80414,205.05672 812.0147,201.97778 C 819.14652,208.25541 825.55141,215.47897 831.23345,222.94653 C 833.49238,239.14249 843.21771,255.61811 859.71338,260.35651 C 879.76812,266.29831 900.90598,260.42014 920.10848,254.13403 C 927.98298,260.57786 938.33548,267.48744 949.01468,265.13403 C 956.42048,262.07727 957.46268,252.12771 959.54598,246.38403 C 964.27498,249.99062 969.46958,252.74898 975.07721,254.60278 C 976.10841,246.22574 976.79851,236.72403 977.98351,228.97778 C 993.11571,246.78933 1015.3718,258.00395 1038.0615,262.71694 C 1049.7571,264.61587 1064.9215,264.6833 1071.796,253.25903 C 1078.1547,242.23481 1071.835,229.09142 1067.9246,218.33055 C 1066.9446,214.15632 1063.2872,209.92818 1062.8897,206.29028 C 1070.4535,199.50863 1075.1694,186.79576 1068.3585,177.97778 C 1060.199,169.72046 1047.0368,170.2337 1036.6085,172.16528 C 1039.8259,166.35979 1035.6546,159.55623 1033.6085,154.75903 C 1039.5925,150.00071 1038.0693,141.27998 1035.546,135.22778 C 1039.7596,136.33315 1038.5233,141.53998 1041.3272,144.35278 C 1046.7943,151.71461 1057.4722,153.25317 1065.796,150.50903 C 1079.4136,163.31046 1099.6427,164.75613 1117.4835,165.29028 C 1143.9854,166.14311 1174.0833,160.53233 1191.2647,138.85278 C 1197.3708,128.81998 1199.8777,116.78632 1202.3463,105.33702 C 1206.3367,86.125549 1201.6359,64.993289 1187.4835,51.009029 C 1174.4471,37.772039 1158.6444,26.880939 1142.1744,18.235349 C 1122.0008,8.0995588 1096.5885,6.0801988 1076.5425,17.518049 C 1066.0497,23.162549 1057.0205,31.295959 1050.1085,40.915279 C 1035.8261,42.145059 1019.7377,46.810229 1012.7022,60.509029 C 1009.8178,64.530239 1009.0996,70.260249 1006.1487,73.755419 C 995.90151,77.721429 983.12561,85.102299 983.92101,97.790279 C 984.47201,100.96396 984.68561,104.10675 984.54601,107.35278 C 974.77291,109.41102 964.66068,105.65894 954.71418,105.07174 C 952.64348,103.82193 940.93348,105.20286 944.98908,102.26689 C 965.10788,86.649259 980.52531,60.499349 974.88971,34.290279 C 971.61368,16.643869 956.54288,2.9236488 938.88968,0.75902876 C 918.72808,-2.2083812 899.00248,5.9325388 881.95218,15.727779 C 871.58785,1.2514988 851.98971,-6.8638612 834.73345,-0.89722124 C 808.83355,6.7707388 792.42237,34.962009 795.5147,61.540279 C 796.29657,63.722129 791.57651,62.033909 790.98345,61.446529 C 784.90566,52.868269 780.03388,43.325519 776.2022,33.477779 C 782.0749,25.511979 783.56078,15.861519 782.98345,6.1965288 C 781.83631,2.0196988 782.93366,-1.6973912 783.6397,-5.8034712 C 784.68728,-13.046711 780.72918,-22.405551 772.48345,-22.647221 C 772.59648,-30.899251 782.28822,-23.469551 787.2329,-23.811471 C 825.02374,-15.262721 862.82264,-6.7491212 900.60848,1.8215288 C 907.75638,-25.659301 914.80588,-53.16596 921.95218,-80.647225 C 879.2219,-90.105048 836.47148,-99.473648 793.73345,-108.89723 C 797.33145,-118.88725 784.97447,-125.91954 776.54595,-125.52223 z M 936.63968,125.91528 C 946.63478,125.79005 956.50868,127.36527 966.01468,130.29028 C 961.58618,136.16257 961.05188,145.3057 967.29598,150.16528 C 970.20628,153.9459 975.80291,155.75678 977.95221,159.54028 C 976.51441,161.25388 972.01801,160.14473 969.38968,161.19653 C 960.26718,162.52977 956.56748,172.43761 957.26468,180.66528 C 957.42078,186.58944 958.23848,192.56285 959.10848,198.29028 C 953.84048,204.63153 948.33758,210.98139 943.13968,217.25903 C 949.50928,194.37946 943.07148,169.14188 927.88598,151.2314 C 922.43698,144.13599 915.28458,137.65931 909.20218,131.94653 C 917.69928,127.88439 927.22028,126.09208 936.63968,125.91528 z M 940.57718,227.32153 C 942.86248,230.57211 947.45088,233.28705 944.42688,237.46089 C 943.43478,240.57579 942.44718,243.70534 940.88968,246.54028 C 938.82118,243.68183 933.03088,240.68711 936.39728,236.69241 C 937.96568,233.93966 939.17858,228.73189 940.57718,227.32153 z "
     id="path4765" />
  <g
     id="g16173"
     transform="matrix(0.9431181,0.1033962,-0.1033962,0.9431181,666.53154,-143.30056)">
    <path
       sodipodi:nodetypes="cccccccccccccc"
       id="path14129"
       d="M 102.1296,125.7933 C 101.83238,125.79234 101.53989,125.79681 101.24156,125.80617 C 89.730118,125.69558 79.735846,135.35961 78.152948,146.55249 C 75.450016,160.78741 82.58218,175.48154 94.047289,183.8238 C 100.8618,189.56648 111.19477,192.40156 119.37531,187.86496 C 119.77953,187.65267 120.16921,187.4269 120.55934,187.19572 C 128.39278,202.7744 138.07039,217.78036 152.27084,228.03201 C 157.93909,231.84132 165.12109,235.177 172.07764,233.17998 C 177.55945,230.67803 179.50971,224.22091 179.91545,218.6627 C 170.07924,219.30567 162.43879,211.79225 155.91301,205.45815 C 146.51834,195.89974 139.02165,184.6283 132.86299,172.71706 C 135.03243,167.70089 138.03604,161.91827 137.91892,156.54141 C 137.68005,149.03393 138.05783,137.36034 131.74757,133.17206 C 125.8344,126.3006 111.34336,125.82295 102.1296,125.7933 z "
       style="color:#000000;fill:#555753;fill-opacity:1;fill-rule:nonzero;stroke:none;stroke-width:8.39999962;stroke-linecap:butt;stroke-linejoin:miter;marker:none;marker-start:none;marker-mid:none;marker-end:none;stroke-miterlimit:4;stroke-dasharray:none;stroke-dashoffset:0;stroke-opacity:1;visibility:visible;display:inline;overflow:visible;enable-background:accumulate" />
    <path
       sodipodi:nodetypes="csscccsccsc"
       id="path13154"
       d="M 101.04853,130.671 C 89.920881,130.692 81.229293,139.08266 80.533864,151.68759 C 79.709736,166.62676 90.427647,181.84445 104.45908,185.6642 C 110.90615,187.41929 116.79972,185.54447 121.38302,181.5587 C 125.97546,191.34078 144.64785,228.0573 167.3544,230.58025 C 174.6347,231.55097 176.09306,221.84157 176.09306,221.84157 C 164.7424,221.31079 144.79694,202.75851 130.38739,175.11729 C 130.09285,174.55229 126.45447,179.04567 126.16466,178.47316 C 128.09375,172.79236 132.9197,166.51713 133.46036,160.45757 C 134.28449,145.51838 134.51784,137.42509 120.48645,133.60534 C 118.29403,133.00851 103.1092,130.66711 101.04853,130.671 z "
       style="color:#000000;fill:#b4b4b4;fill-opacity:1;fill-rule:nonzero;stroke:none;stroke-width:8.39999962;stroke-linecap:butt;stroke-linejoin:miter;marker:none;marker-start:none;marker-mid:none;marker-end:none;stroke-miterlimit:4;stroke-dasharray:none;stroke-dashoffset:0;stroke-opacity:1;visibility:visible;display:inline;overflow:visible;enable-background:accumulate" />
    <path
       style="color:#000000;fill:#8f5902;fill-opacity:1;fill-rule:nonzero;stroke:none;stroke-width:4.40723753;stroke-linecap:butt;stroke-linejoin:miter;marker:none;marker-start:none;marker-mid:none;marker-end:none;stroke-miterlimit:4;stroke-dasharray:none;stroke-dashoffset:0;stroke-opacity:1;visibility:visible;display:inline;overflow:visible;enable-background:accumulate"
       d="M 119.4375,7.90625 C 112.91251,7.9203926 107.92587,14.356946 109.01943,20.678096 C 100.70793,81.715856 91.747772,142.73975 84.03125,203.8125 C 86.586988,214.02269 102.53891,217.98171 108.9375,209.40625 C 112.54931,196.5503 112.45004,183.04264 115.01963,169.90226 C 121.75238,119.16731 129.67192,68.446618 135.5625,17.6875 C 133.73854,10.851051 125.87338,7.8116144 119.4375,7.90625 z "
       id="rect2542" />
    <rect
       rx="17.946199"
       ry="6.019043"
       transform="matrix(0.9794735,0.2015728,-0.1368021,0.9905984,0,0)"
       y="-12.857941"
       x="115.0238"
       height="199.23947"
       width="18.478729"
       id="rect8246"
       style="color:#000000;fill:#fcaf3e;fill-opacity:1;fill-rule:nonzero;stroke:none;stroke-width:4.40723753;stroke-linecap:butt;stroke-linejoin:miter;marker:none;marker-start:none;marker-mid:none;marker-end:none;stroke-miterlimit:4;stroke-dasharray:none;stroke-dashoffset:0;stroke-opacity:1;visibility:visible;display:inline;overflow:visible;enable-background:accumulate" />
    <path
       sodipodi:nodetypes="cccccccccccc"
       id="path12134"
       d="M 88.242972,117.95551 C 81.696358,118.11134 75.046044,124.2547 75.459488,130.73535 C 75.339355,133.80077 77.76372,137.00741 78.719225,139.6156 C 72.763022,141.55665 68.080798,148.66 69.872127,154.68444 C 70.884548,158.88972 74.710644,162.17327 77.638151,165.20102 C 75.107655,171.92547 78.802251,179.96591 84.826943,182.93023 C 93.725767,187.96872 107.2111,187.08306 114.8065,179.69256 C 119.36168,175.08452 119.007,167.08109 114.45899,162.60129 C 113.14947,160.92305 110.9258,159.90609 109.59416,158.48292 C 109.66022,156.23078 108.41758,153.98368 107.86959,152.08656 C 113.293,148.15632 114.10185,140.29232 111.43454,134.49337 C 107.84385,125.16518 98.510415,117.69115 88.242972,117.95551 z "
       style="color:#000000;fill:#555753;fill-opacity:1;fill-rule:nonzero;stroke:none;stroke-width:9.72461319;stroke-linecap:butt;stroke-linejoin:miter;marker:none;marker-start:none;marker-mid:none;marker-end:none;stroke-miterlimit:4;stroke-dasharray:none;stroke-dashoffset:0;stroke-opacity:1;visibility:visible;display:inline;overflow:visible;enable-background:accumulate" />
    <path
       sodipodi:nodetypes="cccsccscccccc"
       id="path12147"
       d="M 95.948414,123.65313 C 91.520829,121.30955 84.506698,121.12569 81.884362,126.15082 C 77.310163,140.5659 88.451485,142.77741 97.785498,149.0324 C 92.078663,148.52464 86.926244,143.81601 83.77828,143.2212 C 79.186578,142.3536 75.341867,144.01969 74.581903,151.7374 C 76.584176,163.79787 89.527658,164.21406 101.7524,165.03674 C 96.020279,169.02883 82.049715,165.19126 81.743555,165.86187 C 79.872082,169.96133 82.320045,175.30431 86.103145,177.60201 C 93.760361,182.75882 105.29132,183.32394 112.15069,176.50302 C 116.91734,172.01918 110.4561,159.02415 104.8689,162.90773 C 107.07075,157.63569 105.67977,152.18018 100.08598,150.09569 C 106.77884,150.63082 110.3874,142.02296 107.91588,136.89612 C 106.00763,131.092 101.54521,126.19161 95.948414,123.65313 z "
       style="color:#000000;fill:#b4b4b4;fill-opacity:1;fill-rule:nonzero;stroke:none;stroke-width:9.72461319;stroke-linecap:butt;stroke-linejoin:miter;marker:none;marker-start:none;marker-mid:none;marker-end:none;stroke-miterlimit:4;stroke-dasharray:none;stroke-dashoffset:0;stroke-opacity:1;visibility:visible;display:inline;overflow:visible;enable-background:accumulate" />
    <g
       style="stroke:#555753;stroke-width:8.40000057;stroke-miterlimit:4;stroke-dasharray:none"
       transform="matrix(0.3747361,0.2399862,-0.259102,0.4040961,802.97069,401.28447)"
       id="g12171">
      <path
         sodipodi:type="arc"
         style="opacity:1;color:#000000;fill:#b4b4b4;fill-opacity:1;fill-rule:nonzero;stroke:#555753;stroke-width:8.40000057;stroke-linecap:butt;stroke-linejoin:miter;marker:none;marker-start:none;marker-mid:none;marker-end:none;stroke-miterlimit:4;stroke-dasharray:none;stroke-dashoffset:0;stroke-opacity:1;visibility:visible;display:inline;overflow:visible;enable-background:accumulate"
         id="path10190"
         sodipodi:cx="-1611.6666"
         sodipodi:cy="326"
         sodipodi:rx="30.833334"
         sodipodi:ry="44.166668"
         d="M -1580.8333 326 A 30.833334 44.166668 0 1 1  -1642.5,326 A 30.833334 44.166668 0 1 1  -1580.8333 326 z"
         transform="matrix(0.9616877,-0.2741473,0.2741473,0.9616877,-149.35808,-453.95001)" />
    </g>
    <path
       sodipodi:nodetypes="ccccccc"
       id="rect14141"
       d="M 108.79338,20.897822 C 113.42753,17.010997 128.3667,17.65839 135.19867,23.345689 L 272.39602,38.161914 L 260.1235,122.83716 L 122.17106,107.18606 C 116.11544,103.76283 103.8284,103.03373 96.758558,103.89872 C 99.601277,76.257251 103.4237,49.802767 108.79338,20.897822 z "
       style="color:#000000;fill:#555753;fill-opacity:1;fill-rule:nonzero;stroke:none;stroke-width:8.39999962;stroke-linecap:butt;stroke-linejoin:miter;marker:none;marker-start:none;marker-mid:none;marker-end:none;stroke-miterlimit:4;stroke-dashoffset:0;stroke-opacity:1;visibility:visible;display:inline;overflow:visible;enable-background:accumulate" />
    <path
       sodipodi:nodetypes="ccccc"
       id="rect15128"
       d="M 134.59313,28.328852 L 265.80416,42.923561 L 255.39527,117.11711 C 212.21064,111.69002 168.33962,107.9825 125.15497,102.55542 L 134.59313,28.328852 z "
       style="color:#000000;fill:#ffffff;fill-opacity:1;fill-rule:nonzero;stroke:none;stroke-width:8.39999962;stroke-linecap:butt;stroke-linejoin:miter;marker:none;marker-start:none;marker-mid:none;marker-end:none;stroke-miterlimit:4;stroke-dashoffset:0;stroke-opacity:1;visibility:visible;display:inline;overflow:visible;enable-background:accumulate" />
    <path
       sodipodi:nodetypes="ccccc"
       id="path15132"
       d="M 112.17671,26.265853 C 106.56098,52.355688 105.70761,73.210342 102.56558,97.651056 C 102.56558,95.797239 120.41351,98.687322 120.41351,100.05344 C 121.97759,100.72376 131.78311,26.805195 130.14437,26.102878 C 130.14437,26.102878 118.01109,20.431486 112.17671,26.265853 z "
       style="color:#000000;fill:#ffffff;fill-opacity:1;fill-rule:nonzero;stroke:none;stroke-width:8.39999962;stroke-linecap:butt;stroke-linejoin:miter;marker:none;marker-start:none;marker-mid:none;marker-end:none;stroke-miterlimit:4;stroke-dasharray:none;stroke-dashoffset:0;stroke-opacity:1;visibility:visible;display:inline;overflow:visible;enable-background:accumulate" />
  </g>
  <g
     id="g16185"
     transform="matrix(0.948769,0,0,0.948769,643.92167,-119.64613)">
    <path
       sodipodi:nodetypes="ccccccccccccc"
       id="path5302"
       d="M 354.63759,297.07917 C 348.14312,297.40496 340.21647,297.10282 335.68019,302.56176 C 330.80287,309.95377 332.57936,319.42514 333.24777,327.74821 C 333.39162,330.45173 334.57832,333.38316 334.26832,335.9129 C 325.75185,346.14605 320.80879,351.5922 312.55003,362.02891 C 320.77367,373.16156 333.77587,386.78007 347.23738,391.5187 C 348.31373,381.5726 349.40719,371.62779 350.40339,361.67334 C 361.61467,377.92767 379.28262,388.36265 397.27436,395.6809 C 410.06651,400.58051 424.33637,403.83831 437.94464,400.52767 C 445.66947,398.22888 452.1282,390.9274 451.67685,382.5741 C 451.69403,372.73305 447.36585,363.64438 444.04498,354.58201 C 433.56014,330.20864 412.71546,310.24644 387.24169,302.23422 C 376.77581,298.72172 365.71102,296.88195 354.63759,297.07917 z "
       style="color:#000000;fill:#8f5902;fill-opacity:1;fill-rule:nonzero;stroke:none;stroke-width:10;stroke-linecap:butt;stroke-linejoin:miter;marker:none;marker-start:none;marker-mid:none;marker-end:none;stroke-miterlimit:4;stroke-dasharray:none;stroke-dashoffset:0;stroke-opacity:1;visibility:visible;display:inline;overflow:visible;enable-background:accumulate" />
    <path
       id="path2207"
       d="M 319.56241,359.59201 L 338.97742,336.72545 C 338.97742,336.72545 332.9372,309.97591 339.84031,303.93568 C 346.74342,297.89546 427.85497,294.01246 447.26997,377.71268 C 454.17307,420.42565 357.96097,388.06733 347.6063,346.21722 C 348.4692,341.47135 344.15475,381.59568 344.15475,381.59568 C 344.15475,381.59568 328.62275,359.59201 319.56241,359.59201 z "
       style="color:#000000;fill:#e9b96e;fill-opacity:1;fill-rule:nonzero;stroke:none;stroke-width:10;stroke-linecap:butt;stroke-linejoin:miter;marker:none;marker-start:none;marker-mid:none;marker-end:none;stroke-miterlimit:4;stroke-dasharray:none;stroke-dashoffset:0;stroke-opacity:1;visibility:visible;display:inline;overflow:visible;enable-background:accumulate" />
    <path
       sodipodi:nodetypes="ccccccccccccccccccc"
       id="path5331"
       d="M 486.76028,138.4187 C 463.57534,138.76902 442.27619,152.6608 429.2668,171.23736 C 400.37339,174.26427 391.93313,182.97185 384.40574,205.11066 C 371.97225,209.86214 356.77569,217.8889 361.17552,233.19285 C 360.75809,237.75654 361.91694,242.52214 359.94615,246.82325 C 350.7257,283.46679 352.20068,323.39976 367.0534,358.35177 C 369.79948,364.14885 373.58133,371.09882 380.51902,372.25242 C 390.49503,374.13131 400.10552,368.85364 407.46742,362.61164 C 412.44281,358.4018 417.76898,354.34067 424.17049,352.66685 C 433.48738,349.06296 444.92203,339.87009 447.96602,329.82456 C 451.05203,315.18981 443.34451,310.58508 430.3856,308.50802 C 414.27109,306.8015 397.16766,319.08044 382.74552,298.81661 C 389.07846,287.18156 399.30065,268.86994 406.43477,257.6929 C 409.45223,262.33736 412.31723,267.47066 417.52435,268.32775 C 419.20899,286.06849 439.55148,285.35024 445.12732,282.19548 C 461.93553,300.92908 505.46009,299.2996 527.75564,296.59831 C 546.46107,293.09498 566.80674,284.64516 577.25519,268.20871 C 603.28027,201.97382 578.43712,181.17815 533.2722,151.99647 C 519.2534,143.80162 503.25048,138.0591 486.76028,138.4187 z "
       style="color:#000000;fill:#555753;fill-opacity:1;fill-rule:nonzero;stroke:none;stroke-width:10;stroke-linecap:butt;stroke-linejoin:miter;marker:none;marker-start:none;marker-mid:none;marker-end:none;stroke-miterlimit:4;stroke-dasharray:none;stroke-dashoffset:0;stroke-opacity:1;visibility:visible;display:inline;overflow:visible;enable-background:accumulate" />
    <path
       sodipodi:nodetypes="csccccccscccssccccccscccccscccsc"
       id="path2209"
       d="M 487.45525,142.5242 C 458.8825,142.92797 445.35807,159.64387 438.23307,168.99412 C 438.23307,168.99412 456.77375,168.81309 477.03061,175.79297 C 424.9484,162.78856 385.82659,192.04784 391.14958,203.11583 C 403.70942,197.92464 436.41403,203.75462 434.17375,204.75031 C 413.41925,204.65953 360.07443,202.87161 365.66712,241.44247 C 346.75234,304.89855 369.32798,364.07414 379.09046,367.73508 C 413.95557,375.82333 414.51901,328.74913 438.26639,321.03011 C 444.67993,323.34896 426.92833,346.55077 421.49687,349.35682 C 419.80647,350.23013 425.9202,352.4517 432.24326,343.69405 C 451.92716,324.4857 445.23453,309.22029 420.77615,312.57456 C 413.35976,313.6394 398.02548,314.4412 392.2032,313.18348 C 391.23449,314.53455 406.96211,318.36742 402.79889,321.58547 C 402.79889,321.58547 391.78533,318.15148 389.52955,312.78001 C 389.52955,312.78001 388.83416,312.28709 388.50004,312.02498 C 391.66994,323.85519 404.45583,331.42496 404.45583,331.42496 C 390.08855,329.98928 378.61896,304.5663 377.88068,298.79087 C 377.88068,298.79087 406.0787,247.18418 406.0787,251.45528 C 409.71347,263.89557 425.98119,269.31784 441.29082,261.89279 C 441.36096,261.87991 436.89423,269.24083 421.9988,268.89403 C 427.45016,287.47759 447.98817,281.06276 463.24692,263.59162 C 463.24692,263.59161 461.14123,272.30677 448.48511,280.33539 C 464.76069,293.72806 540.85302,309.01646 570.41481,268.79107 C 562.20179,269.96313 507.69837,277.40742 509.6044,267.8773 C 521.95953,248.65821 497.24926,185.50976 497.24927,185.50976 C 491.87885,177.40542 532.73492,166.2178 552.97606,171.04396 C 551.76744,170.03721 550.61419,169.10416 549.59126,168.2898 C 525.12962,148.8158 504.41335,142.28456 487.45525,142.5242 z M 556.21928,173.82387 C 568.48557,188.84312 572.84508,248.92451 572.19086,266.22995 C 580.41641,253.54723 584.31082,235.82903 581.05824,211.54563 C 579.01159,196.26561 566.18707,182.59528 556.21928,173.82387 z "
       style="color:#000000;fill:#f8eda6;fill-opacity:1;fill-rule:nonzero;stroke:none;stroke-width:10;stroke-linecap:butt;stroke-linejoin:miter;marker:none;marker-start:none;marker-mid:none;marker-end:none;stroke-miterlimit:4;stroke-dasharray:none;stroke-dashoffset:0;stroke-opacity:1;visibility:visible;display:inline;overflow:visible;enable-background:accumulate" />
    <path
       sodipodi:nodetypes="ccccccccccccccccccccccccccccccccccccccccc"
       id="path2242"
       d="M 213.64755,125.26563 C 193.49728,125.72689 175.64959,139.98941 167.43162,157.83942 C 161.67281,169.68558 160.53478,183.59777 162.55394,196.39772 C 146.50977,201.96605 133.43042,215.5888 129.07923,232.07316 C 109.83208,229.92393 90.031624,228.89855 70.997268,233.03841 C 63.467104,234.63391 56.263733,237.43895 49.388638,240.79898 C 44.375873,242.25327 38.6225,241.54889 34.343713,245.05892 C 30.261083,247.82089 28.706272,253.0114 29.607579,257.72293 C 31.092995,266.82131 38.333226,273.54395 45.154452,279.09988 C 56.846689,288.09645 72.21919,291.89927 86.853019,289.64035 C 108.54624,287.14393 127.81213,275.81415 147.92081,268.22479 C 156.36941,265.66878 165.5076,267.9869 174.00957,265.46433 C 177.87924,264.53626 181.63998,263.00344 184.96046,260.76023 C 210.16361,280.94113 208.02115,310.59249 200.32798,339.06955 C 192.68361,333.20033 185.47686,321.14234 176.2218,318.18585 C 158.95571,323.10721 153.45862,343.82621 142.93321,359.90185 C 147.65336,363.53985 150.05586,361.25022 154.7298,364.9473 C 162.04906,355.51148 168.89039,345.06389 176.24915,335.63119 C 184.01599,341.16024 193.02354,352.41279 199.30588,359.55675 C 207.42687,410.19857 250.98509,405.73096 291.57574,391.57035 C 298.72521,397.97671 308.66769,404.20773 318.70772,404.15642 C 327.9762,402.93178 329.56707,388.42627 332.23717,375.32798 C 328.28069,370.09366 328.50041,369.33675 323.37502,366.14201 C 317.94336,375.92466 319.11252,379.59709 313.60486,389.33768 C 312.54235,388.53889 303.24614,379.65436 304.9049,377.89379 C 327.32308,330.60077 313.95304,296.53479 275.6291,264.80139 C 294.84097,254.41848 318.19134,255.05853 338.66081,260.97099 C 339.80828,261.54198 342.52964,261.68015 342.58877,262.67271 C 339.22909,267.16966 336.14146,273.587 339.18081,279.00979 C 343.33182,285.36005 350.24186,289.10348 356.18198,293.56568 C 368.45328,301.63754 381.57255,308.7348 395.64118,313.10223 C 416.41049,312.40502 416.09196,301.14454 407.44291,288.90677 C 411.66134,286.77292 416.04343,280.81815 410.35651,269.14604 C 417.15865,252.48889 394.90243,239.53089 380.40359,238.00092 C 371.70637,237.55313 363.31425,240.45353 355.03851,242.49643 C 340.02208,240.74837 325.09032,238.57535 310.0819,236.65486 C 328.75181,223.96016 343.96662,204.55685 347.45617,181.80322 C 349.96248,165.12383 344.26421,146.33556 329.97507,136.56231 C 315.61092,126.56201 296.47503,126.64913 280.28215,131.82756 C 269.70727,134.92244 259.72402,139.9123 250.31396,145.48429 C 242.07065,133.7002 228.44097,124.81431 213.64755,125.26563 z "
       style="color:#000000;fill:#555753;fill-opacity:1;fill-rule:nonzero;stroke:none;stroke-width:10;stroke-linecap:butt;stroke-linejoin:miter;marker:none;marker-start:none;marker-mid:none;marker-end:none;stroke-miterlimit:4;stroke-dasharray:none;stroke-dashoffset:0;stroke-opacity:1;visibility:visible;display:inline;overflow:visible;enable-background:accumulate" />
    <path
       sodipodi:nodetypes="cccccsccccccscccccsccccccssscsscscccccccccccccccccccccccc"
       id="path2161"
       d="M 213.67325,129.39688 C 185.54152,129.78276 158.14398,161.98606 167.63754,199.17763 C 143.40105,205.23772 132.35775,228.62177 132.57985,236.56477 C 68.513639,228.63275 55.101733,244.50785 47.779918,245.72816 C 45.949423,245.72813 26.447342,245.1144 36.209832,264.0292 C 74.649568,314.672 134.30492,262.03521 155.17945,262.79368 C 173.11098,263.44521 178.54634,258.09648 181.71724,256.01123 C 194.41391,242.14546 192.18306,240.04227 197.41855,232.06029 L 210.59736,214.78885 C 213.929,215.81396 206.03543,233.28942 199.77373,236.82217 C 197.94509,241.86851 185.64539,256.058 186.29893,256.70621 C 219.9735,283.92252 206.97533,319.21631 201.73473,354.57297 C 201.30243,354.20696 200.78611,343.57373 200.36154,343.22117 C 186.29407,331.53951 176.55638,322.27849 176.55638,322.27849 C 167.39917,320.23486 156.01231,344.22024 147.60954,358.62317 L 152.96821,360.91207 L 176.15364,330.04564 C 176.15368,330.04563 194.84045,349.45271 202.77244,359.21518 C 215.57178,418.3787 274.18912,393.62565 287.9851,388.44007 C 289.05311,388.03863 279.81229,377.19808 279.76017,374.57126 C 289.87725,385.76966 300.55736,397.91082 317.39123,401.67011 C 326.09089,401.67007 329.84426,372.30699 329.84426,372.30699 C 328.7462,369.86202 327.12557,368.25316 325.20096,367.13067 L 315.22647,394.73929 C 309.54359,392.12881 292.78214,372.62184 289.76208,367.14103 C 290.01438,366.68356 301.77469,376.70663 302.017,376.25122 C 331.67902,320.5038 287.21099,278.84504 272.47666,267.60683 C 271.92168,267.18354 261.33777,273.23437 260.87271,272.89826 C 259.3822,271.82105 268.45312,264.76515 268.12594,264.62121 C 302.89936,240.30583 351.65801,260.35648 349.21935,260.96615 C 349.21935,260.96614 338.64187,272.41419 342.99031,277.52975 C 354.5774,291.16096 390.1446,308.30247 396.79948,309.18977 C 410.72413,309.23072 410.7671,301.54036 406.7153,294.68562 C 404.3844,290.74225 400.05556,287.98848 397.39558,285.19335 C 415.17295,287.78717 411.49278,271.90944 401.90417,267.33764 C 401.96443,266.67094 407.85118,267.80601 407.88829,267.14889 C 406.97687,239.29686 375.8598,239.58892 356.52947,246.96367 L 298.1,239.17736 C 373.03288,197.84352 349.83456,107.87366 272.51458,138.89488 C 243.33874,147.18191 231.40056,182.42424 229.20913,212.0123 C 228.71257,209.88291 227.14874,201.01315 226.90181,198.98828 C 199.35118,182.44728 188.68496,190.90392 170.12141,204.60874 C 191.42508,174.23567 214.49149,186.00178 228.04898,196.05024 C 227.01786,177.94557 235.67753,163.63499 246.95493,147.94244 C 244.87988,139.05424 225.54497,129.23403 213.67325,129.39688 z M 305.70613,161.61031 C 315.79018,161.66467 323.8753,166.71692 325.1912,180.64493 C 315.65524,150.25012 265.48396,177.40101 258.79524,203.14157 C 278.63656,194.12216 276.81913,226.73716 258.10026,220.16848 C 259.99693,227.51989 267.40359,228.02782 280.42959,222.56229 C 243.21276,243.33765 246.04345,202.671 263.50563,181.33991 C 271.95401,172.13961 290.9679,161.53085 305.70613,161.61031 z M 238.15189,240.82472 C 255.45445,246.51175 260.15015,248.86749 286.15671,240.82472 C 272.15566,246.85067 253.31979,251.90966 246.55347,259.38256 L 250.15004,250.91776 L 238.15189,240.82472 z "
       style="color:#000000;fill:#b4b4b4;fill-opacity:1;fill-rule:nonzero;stroke:none;stroke-width:10;stroke-linecap:butt;stroke-linejoin:miter;marker:none;marker-start:none;marker-mid:none;marker-end:none;stroke-miterlimit:4;stroke-dasharray:none;stroke-dashoffset:0;stroke-opacity:1;visibility:visible;display:inline;overflow:visible;enable-background:accumulate" />
    <path
       id="path5290"
       d="M 70.920007,322.53589 C 63.894715,323.1675 56.159826,322.69868 50.031352,326.65298 C 36.911026,337.16669 33.053425,357.13995 40.199509,372.25242 C 46.624878,386.74181 59.980198,396.59829 73.377855,404.29261 C 90.927577,413.92924 110.19944,420.09837 129.49091,425.28921 C 139.82498,427.80953 150.43812,430.1047 161.13824,429.57508 C 166.17943,429.1165 172.01863,426.08439 172.50237,420.48891 C 173.26472,413.85602 169.25635,408.08218 167.38014,401.96911 C 164.07469,393.59107 160.45945,385.33903 156.92976,377.0529 C 161.6364,373.11967 166.34045,369.18329 171.04805,365.25118 C 164.68458,357.12039 157.64722,348.04999 147.00702,345.76611 C 142.6212,344.42843 137.69883,347.78639 137.27736,352.32977 C 136.55281,354.29722 136.02504,356.32679 135.47557,358.3529 C 121.56418,336.8381 97.109755,321.44424 70.920007,322.53589 z "
       style="color:#000000;fill:#8f5902;fill-opacity:1;fill-rule:nonzero;stroke:none;stroke-width:10;stroke-linecap:butt;stroke-linejoin:miter;marker:none;marker-start:none;marker-mid:none;marker-end:none;stroke-miterlimit:4;stroke-dasharray:none;stroke-dashoffset:0;stroke-opacity:1;visibility:visible;display:inline;overflow:visible;enable-background:accumulate" />
    <path
       sodipodi:nodetypes="cczcc"
       id="path2259"
       d="M 130.90676,234.87881 C 133.04362,239.18636 138.0998,242.60469 142.97876,240.79898 C 151.20933,259.17928 176.81126,245.69652 181.05035,229.87599 C 185.23013,214.27692 186.94243,193.78607 166.55819,199.40798 C 152.65006,180.61138 123.17084,213.64415 130.90676,234.87881 z "
       style="color:#000000;fill:#555753;fill-opacity:1;fill-rule:nonzero;stroke:none;stroke-width:10;stroke-linecap:butt;stroke-linejoin:miter;marker:none;marker-start:none;marker-mid:none;marker-end:none;stroke-miterlimit:4;stroke-dasharray:none;stroke-dashoffset:0;stroke-opacity:1;visibility:visible;display:inline;overflow:visible;enable-background:accumulate" />
    <path
       sodipodi:nodetypes="ccssccc"
       id="path2168"
       d="M 133.35567,210.7766 C 126.29101,218.60328 131.3382,244.84038 144.65876,237.44032 C 148.75,258.18866 173.18977,243.41826 176.8597,229.72187 C 184.23134,202.21045 173.13318,199.74827 165.47506,203.98652 C 158.18141,208.0231 151.84591,215.816 145.68614,233.12672 C 147.37586,221.66694 155.21174,205.03567 163.38503,201.59668 C 158.59202,192.15577 138.49166,202.65708 133.35567,210.7766 z "
       style="color:#000000;fill:#ffffff;fill-opacity:1;fill-rule:nonzero;stroke:none;stroke-width:10;stroke-linecap:butt;stroke-linejoin:miter;marker:none;marker-start:none;marker-mid:none;marker-end:none;stroke-miterlimit:4;stroke-dasharray:none;stroke-dashoffset:0;stroke-opacity:1;visibility:visible;display:inline;overflow:visible;enable-background:accumulate" />
    <path
       id="path2173"
       d="M 164.85677,228.04394 C 162.82353,227.94013 160.94443,230.3239 160.63766,233.35228 C 160.33088,236.38067 161.69843,238.92291 163.73167,239.02672 C 165.76495,239.13053 167.64404,236.74677 167.95086,233.71837 C 167.96042,233.62391 167.94456,233.53728 167.95086,233.44381 C 167.55558,233.87888 166.98383,234.17599 166.26319,234.17599 C 165.06405,234.17599 164.06921,233.40182 164.06921,232.43705 C 164.06921,231.47228 165.06405,230.69811 166.26319,230.69811 C 166.86275,230.69811 167.38887,230.88514 167.78205,231.20149 C 167.34975,229.40129 166.28383,228.1168 164.85677,228.04394 z "
       style="color:#000000;fill:#000000;fill-opacity:1;fill-rule:nonzero;stroke:none;stroke-width:10;stroke-linecap:butt;stroke-linejoin:miter;marker:none;marker-start:none;marker-mid:none;marker-end:none;stroke-miterlimit:4;stroke-dasharray:none;stroke-dashoffset:0;stroke-opacity:1;visibility:visible;display:inline;overflow:visible;enable-background:accumulate" />
    <path
       style="color:#000000;fill:#000000;fill-opacity:1;fill-rule:nonzero;stroke:none;stroke-width:10;stroke-linecap:butt;stroke-linejoin:miter;marker:none;marker-start:none;marker-mid:none;marker-end:none;stroke-miterlimit:4;stroke-dasharray:none;stroke-dashoffset:0;stroke-opacity:1;visibility:visible;display:inline;overflow:visible;enable-background:accumulate"
       d="M 143.76887,220.91784 C 142.11336,220.84218 140.62556,223.25159 140.4275,226.28379 C 140.22949,229.31599 141.38503,231.83894 143.04053,231.91461 C 144.69604,231.99027 146.18384,229.58087 146.38189,226.54867 C 146.38807,226.45408 146.3737,226.36767 146.37724,226.27413 C 146.06313,226.71461 145.60315,227.01959 145.01702,227.02955 C 144.04171,227.04615 143.21943,226.28586 143.203,225.32122 C 143.18661,224.35658 143.98257,223.56876 144.95788,223.55218 C 145.44554,223.54388 145.87665,223.7236 146.20184,224.03448 C 145.81957,222.2405 144.93078,220.97095 143.76887,220.91784 z "
       id="path2178" />
    <path
       sodipodi:nodetypes="ccccc"
       id="path2292"
       d="M 199.70738,236.90868 C 198.39802,239.1495 196.58746,243.13818 194.95094,244.21316 C 210.87708,261.50079 212.90229,299.35853 236.05082,277.20056 C 253.90135,255.32519 219.99722,234.3438 204.52642,231.25866 C 200.97069,232.89051 202.14797,233.69419 199.70738,236.90868 z "
       style="color:#000000;fill:#a40000;fill-opacity:1;fill-rule:nonzero;stroke:none;stroke-width:10;stroke-linecap:butt;stroke-linejoin:miter;marker:none;marker-start:none;marker-mid:none;marker-end:none;stroke-miterlimit:4;stroke-dasharray:none;stroke-dashoffset:0;stroke-opacity:1;visibility:visible;display:inline;overflow:visible;enable-background:accumulate" />
    <path
       sodipodi:nodetypes="cccccscc"
       id="path2180"
       d="M 203.13284,232.31218 C 202.39783,232.43306 201.70356,233.60219 199.61929,237.07957 C 212.45928,234.58636 218.48986,249.79785 216.86499,250.00097 L 199.2551,237.5316 C 196.83819,240.67252 194.92813,244.06117 194.6788,244.06117 C 209.43948,250.96593 214.8336,284.478 224.41966,279.71764 C 238.86853,272.54245 242.42385,247.99246 204.13665,232.43352 C 204.09374,232.41922 203.18811,232.30309 203.13284,232.31218 z "
       style="color:#000000;fill:#ef2929;fill-opacity:1;fill-rule:nonzero;stroke:none;stroke-width:10;stroke-linecap:butt;stroke-linejoin:miter;marker:none;marker-start:none;marker-mid:none;marker-end:none;stroke-miterlimit:4;stroke-dasharray:none;stroke-dashoffset:0;stroke-opacity:1;visibility:visible;display:inline;overflow:visible;enable-background:accumulate" />
    <path
       transform="matrix(1.6655823,-0.189739,0.2388868,1.3229105,-23.448854,106.96423)"
       d="M 34.471457 97.082977 A 12.816311 24.896051 0 1 1  8.8388348,97.082977 A 12.816311 24.896051 0 1 1  34.471457 97.082977 z"
       sodipodi:ry="24.896051"
       sodipodi:rx="12.816311"
       sodipodi:cy="97.082977"
       sodipodi:cx="21.655146"
       id="path2185"
       style="color:#000000;fill:#000000;fill-opacity:1;fill-rule:nonzero;stroke:none;stroke-width:10;stroke-linecap:butt;stroke-linejoin:miter;marker:none;marker-start:none;marker-mid:none;marker-end:none;stroke-miterlimit:4;stroke-dasharray:none;stroke-dashoffset:0;stroke-opacity:1;visibility:visible;display:inline;overflow:visible;enable-background:accumulate"
       sodipodi:type="arc" />
    <path
       sodipodi:nodetypes="ccsscccssc"
       id="path2205"
       d="M 134.95237,365.24209 C 134.95237,365.24209 113.11047,316.35666 55.728385,328.43711 C 48.393844,327.14276 0.40824494,386.43691 126.91671,420.33476 C 166.59715,430.96709 169.62972,423.35489 168.33536,416.88319 C 167.04103,410.41153 151.94047,375.89597 151.94047,375.89597 L 165.31527,364.67843 C 165.31527,364.67843 152.80339,347.42065 142.88016,350.00933 C 141.61508,351.27439 139.2982,358.79764 138.01302,363.80035 C 137.83663,364.48692 143.1285,376.06936 142.97035,376.69027 C 142.31598,379.25997 134.95237,365.24209 134.95237,365.24209 z "
       style="color:#000000;fill:#e9b96e;fill-opacity:1;fill-rule:nonzero;stroke:none;stroke-width:10;stroke-linecap:butt;stroke-linejoin:miter;marker:none;marker-start:none;marker-mid:none;marker-end:none;stroke-miterlimit:4;stroke-dasharray:none;stroke-dashoffset:0;stroke-opacity:1;visibility:visible;display:inline;overflow:visible;enable-background:accumulate" />
    <path
       sodipodi:nodetypes="cscc"
       id="path2282"
       d="M 52.803473,337.54652 C 69.747546,328.80459 90.272673,372.47224 116.63786,390.74427 C 138.1117,405.62643 161.21015,413.6487 160.22446,421.28685 C 141.62513,428.81368 10.162415,390.08792 52.803473,337.54652 z "
       style="opacity:0.6;color:#000000;fill:#c17d11;fill-opacity:1;fill-rule:nonzero;stroke:none;stroke-width:10;stroke-linecap:butt;stroke-linejoin:miter;marker:none;marker-start:none;marker-mid:none;marker-end:none;stroke-miterlimit:4;stroke-dasharray:none;stroke-dashoffset:0;stroke-opacity:1;visibility:visible;display:inline;overflow:visible;enable-background:accumulate" />
    <path
       transform="matrix(0.4118377,0,0,0.4657017,663.29001,-50.901396)"
       d="M -1516.7365 590.00568 A 24.726122 34.978416 0 1 1  -1566.1888,590.00568 A 24.726122 34.978416 0 1 1  -1516.7365 590.00568 z"
       sodipodi:ry="34.978416"
       sodipodi:rx="24.726122"
       sodipodi:cy="590.00568"
       sodipodi:cx="-1541.4626"
       id="path2303"
       style="opacity:0.4;color:#000000;fill:#ffffff;fill-opacity:1;fill-rule:nonzero;stroke:none;stroke-width:10;stroke-linecap:butt;stroke-linejoin:miter;marker:none;marker-start:none;marker-mid:none;marker-end:none;stroke-miterlimit:4;stroke-dasharray:none;stroke-dashoffset:0;stroke-opacity:1;visibility:visible;display:inline;overflow:visible;enable-background:accumulate"
       sodipodi:type="arc" />
    <path
       transform="matrix(0.4118377,0,0,0.4118377,666.78483,-14.643358)"
       sodipodi:nodetypes="cscc"
       id="path4251"
       d="M -1473.7049,625.61122 C -1474.4646,626.26277 -1476.8975,646.56014 -1474.5869,645.63562 C -1435.3152,629.92189 -1374.4643,617.22475 -1301.4017,614.69524 C -1315.8755,611.07678 -1413.0544,596.03646 -1473.7049,625.61122 z "
       style="opacity:0.4;color:#000000;fill:#ffffff;fill-opacity:1;fill-rule:nonzero;stroke:none;stroke-width:10;stroke-linecap:butt;stroke-linejoin:miter;marker:none;marker-start:none;marker-mid:none;marker-end:none;stroke-miterlimit:4;stroke-dasharray:none;stroke-dashoffset:0;stroke-opacity:1;visibility:visible;display:inline;overflow:visible;filter:url(#filter5275);enable-background:accumulate" />
    <path
       sodipodi:nodetypes="ccc"
       id="path5329"
       d="M 127.57463,208.2253 C 127.57463,208.2253 115.90129,220.89215 127.32629,230.57856 C 124.34586,222.38236 124.84258,213.44106 127.57463,208.2253 z "
       style="color:#000000;fill:#555753;fill-opacity:1;fill-rule:nonzero;stroke:none;stroke-width:10;stroke-linecap:butt;stroke-linejoin:miter;marker:none;marker-start:none;marker-mid:none;marker-end:none;stroke-miterlimit:4;stroke-dasharray:none;stroke-dashoffset:0;stroke-opacity:1;visibility:visible;display:inline;overflow:visible;enable-background:accumulate" />
    <path
       id="path2186"
       d="M 549.4497,173.54073 C 533.24658,173.78507 516.66393,176.27444 502.34576,184.13268 C 501.47988,184.60821 500.15912,185.78966 501.2132,186.8225 C 509.089,208.94001 516.53128,231.81479 516.29676,255.56078 C 516.00569,259.82255 515.04697,264.03912 513.47825,267.99313 C 517.71907,269.47023 522.3738,268.98018 526.79862,269.293 C 540.94051,269.33564 555.12474,267.36186 569.03773,265.6122 C 568.74013,263.69161 568.80107,261.73585 568.86293,259.75645 C 568.38495,236.46604 565.8973,213.07024 560.11887,190.52904 C 558.3729,184.84909 556.54091,178.69216 552.15238,174.44163 C 551.37537,173.87479 550.42435,173.48283 549.4497,173.54073 z "
       style="color:#000000;fill:#ffffff;fill-opacity:1;fill-rule:nonzero;stroke:none;stroke-width:10;stroke-linecap:butt;stroke-linejoin:miter;marker:none;marker-start:none;marker-mid:none;marker-end:none;stroke-miterlimit:4;stroke-dasharray:none;stroke-dashoffset:0;stroke-opacity:1;visibility:visible;display:inline;overflow:visible;enable-background:accumulate" />
    <path
       sodipodi:nodetypes="cccccccccccccccccccccccccccccccccc"
       id="text2199"
       d="M 527.70224,258.74942 C 527.00308,256.08426 527.33385,251.20883 527.33385,251.20883 C 527.33385,251.20883 543.15414,247.05968 539.6529,246.39147 C 535.11839,245.253 530.5839,244.11448 526.04941,242.97599 C 524.75648,240.11212 526.63867,235.52709 526.63867,235.52709 C 526.63867,235.52709 547.99848,235.47796 555.5929,235.04199 C 557.47443,238.17059 554.96682,240.23068 554.96682,240.23068 C 550.03067,240.51403 538.10076,240.59173 533.16461,240.87509 C 538.20549,242.1383 543.2464,243.40139 548.2873,244.66455 C 548.74459,251.30657 539.04577,250.15251 535.09949,253.38285 C 541.51137,253.01471 549.76614,255.5698 557.83201,255.5698 C 561.83323,256.37004 558.99363,261.24938 557.86066,261.02279 C 550.75621,261.43063 533.9839,259.57578 527.70224,258.74942 z M 548.83483,218.03168 C 549.45383,220.60682 548.53463,223.67251 550.39946,225.83853 C 552.6305,226.45534 556.04375,227.08956 555.15884,230.4587 C 552.0754,233.51472 524.29643,226.24698 524.29643,226.24698 C 520.25997,223.73709 524.3362,220.05359 528.23937,218.50255 C 528.23937,218.50255 545.8432,213.75221 553.10236,211.27418 C 554.66136,214.49987 552.65915,218.44746 548.83483,218.03168 z M 543.89458,225.33655 C 544.83827,222.12644 543.97727,219.42304 543.97727,219.42304 C 542.64936,219.89373 530.80694,221.90613 531.9739,223.10205 C 535.12466,223.70975 540.74382,224.72886 543.89458,225.33655 z M 520.53442,211.00405 C 518.37861,207.68991 525.4707,205.50796 525.4707,205.50796 C 532.6935,205.09332 541.9733,203.65021 549.1961,203.23558 C 551.35192,206.5497 545.69971,209.14306 545.69971,209.14306 C 538.47691,209.55769 527.75722,210.58942 520.53442,211.00405 z M 519.86837,199.69322 C 516.1975,191.51496 537.4446,193.67141 542.82732,193.257 C 543.34528,190.19619 536.72647,180.00219 540.64881,178.27082 C 545.30966,178.15085 547.83396,197.08679 546.98476,198.23104 C 538.49449,198.71838 528.35863,199.20585 519.86837,199.69322 z "
       style="font-size:65.09156799px;font-style:normal;font-variant:normal;font-weight:normal;font-stretch:normal;text-align:center;line-height:100%;writing-mode:lr-tb;text-anchor:middle;fill:#555753;fill-opacity:1;stroke:none;stroke-width:1px;stroke-linecap:butt;stroke-linejoin:miter;stroke-opacity:1;font-family:Bitstream Vera Sans" />
    <path
       transform="matrix(0.4118377,0,0,0.4118377,666.78483,-14.643358)"
       style="opacity:0.2;color:#000000;fill:#ffffff;fill-opacity:1;fill-rule:nonzero;stroke:none;stroke-width:10;stroke-linecap:butt;stroke-linejoin:miter;marker:none;marker-start:none;marker-mid:none;marker-end:none;stroke-miterlimit:4;stroke-dasharray:none;stroke-dashoffset:0;stroke-opacity:1;visibility:visible;display:inline;overflow:visible;filter:url(#filter5275);enable-background:accumulate"
       d="M -1047.0838,507.76009 C -1047.8435,508.41164 -1048.9385,530.07523 -1047.9658,527.78449 C -1007.5156,432.52125 -944.89693,370.62126 -863.87938,366.02936 C -935.80561,368.59808 -1014.1283,375.65485 -1047.0838,507.76009 z "
       id="path2225"
       sodipodi:nodetypes="cscc" />
  </g>
  <rect
     style="opacity:1;color:#000000;fill:#ffffff;fill-opacity:1;fill-rule:nonzero;stroke:none;stroke-width:10;stroke-linecap:butt;stroke-linejoin:miter;marker:none;marker-start:none;marker-mid:none;marker-end:none;stroke-miterlimit:4;stroke-dasharray:none;stroke-dashoffset:0;stroke-opacity:1;visibility:visible;display:inline;overflow:visible;enable-background:accumulate"
     id="rect5939"
     width="601.04077"
     height="337.8399"
     x="-31.426968"
     y="-23.497665"
     rx="17.026796"
     ry="5.7106814" />
  <g
     transform="matrix(0.8842431,0,0,0.8842431,6.457167,-100.9298)"
     id="g5893">
    <path
       style="color:#000000;fill:#8f5902;fill-opacity:1;fill-rule:nonzero;stroke:none;stroke-width:10;stroke-linecap:butt;stroke-linejoin:miter;marker:none;marker-start:none;marker-mid:none;marker-end:none;stroke-miterlimit:4;stroke-dasharray:none;stroke-dashoffset:0;stroke-opacity:1;visibility:visible;display:inline;overflow:visible;enable-background:accumulate"
       d="M 354.63759,297.07917 C 348.14312,297.40496 340.21647,297.10282 335.68019,302.56176 C 330.80287,309.95377 332.57936,319.42514 333.24777,327.74821 C 333.39162,330.45173 334.57832,333.38316 334.26832,335.9129 C 325.75185,346.14605 320.80879,351.5922 312.55003,362.02891 C 320.77367,373.16156 333.77587,386.78007 347.23738,391.5187 C 348.31373,381.5726 349.40719,371.62779 350.40339,361.67334 C 361.61467,377.92767 379.28262,388.36265 397.27436,395.6809 C 410.06651,400.58051 424.33637,403.83831 437.94464,400.52767 C 445.66947,398.22888 452.1282,390.9274 451.67685,382.5741 C 451.69403,372.73305 447.36585,363.64438 444.04498,354.58201 C 433.56014,330.20864 412.71546,310.24644 387.24169,302.23422 C 376.77581,298.72172 365.71102,296.88195 354.63759,297.07917 z "
       id="path5895"
       sodipodi:nodetypes="ccccccccccccc" />
    <path
       style="color:#000000;fill:#e9b96e;fill-opacity:1;fill-rule:nonzero;stroke:none;stroke-width:10;stroke-linecap:butt;stroke-linejoin:miter;marker:none;marker-start:none;marker-mid:none;marker-end:none;stroke-miterlimit:4;stroke-dasharray:none;stroke-dashoffset:0;stroke-opacity:1;visibility:visible;display:inline;overflow:visible;enable-background:accumulate"
       d="M 319.56241,359.59201 L 338.97742,336.72545 C 338.97742,336.72545 332.9372,309.97591 339.84031,303.93568 C 346.74342,297.89546 427.85497,294.01246 447.26997,377.71268 C 454.17307,420.42565 357.96097,388.06733 347.6063,346.21722 C 348.4692,341.47135 344.15475,381.59568 344.15475,381.59568 C 344.15475,381.59568 328.62275,359.59201 319.56241,359.59201 z "
       id="path5897" />
    <path
       style="color:#000000;fill:#555753;fill-opacity:1;fill-rule:nonzero;stroke:none;stroke-width:10;stroke-linecap:butt;stroke-linejoin:miter;marker:none;marker-start:none;marker-mid:none;marker-end:none;stroke-miterlimit:4;stroke-dasharray:none;stroke-dashoffset:0;stroke-opacity:1;visibility:visible;display:inline;overflow:visible;enable-background:accumulate"
       d="M 486.76028,138.4187 C 463.57534,138.76902 442.27619,152.6608 429.2668,171.23736 C 400.37339,174.26427 391.93313,182.97185 384.40574,205.11066 C 371.97225,209.86214 356.77569,217.8889 361.17552,233.19285 C 360.75809,237.75654 361.91694,242.52214 359.94615,246.82325 C 350.7257,283.46679 352.20068,323.39976 367.0534,358.35177 C 369.79948,364.14885 373.58133,371.09882 380.51902,372.25242 C 390.49503,374.13131 400.10552,368.85364 407.46742,362.61164 C 412.44281,358.4018 417.76898,354.34067 424.17049,352.66685 C 433.48738,349.06296 444.92203,339.87009 447.96602,329.82456 C 451.05203,315.18981 443.34451,310.58508 430.3856,308.50802 C 414.27109,306.8015 397.16766,319.08044 382.74552,298.81661 C 389.07846,287.18156 399.30065,268.86994 406.43477,257.6929 C 409.45223,262.33736 412.31723,267.47066 417.52435,268.32775 C 419.20899,286.06849 439.55148,285.35024 445.12732,282.19548 C 461.93553,300.92908 505.46009,299.2996 527.75564,296.59831 C 546.46107,293.09498 566.80674,284.64516 577.25519,268.20871 C 603.28027,201.97382 578.43712,181.17815 533.2722,151.99647 C 519.2534,143.80162 503.25048,138.0591 486.76028,138.4187 z "
       id="path5899"
       sodipodi:nodetypes="ccccccccccccccccccc" />
    <path
       style="color:#000000;fill:#f8eda6;fill-opacity:1;fill-rule:nonzero;stroke:none;stroke-width:10;stroke-linecap:butt;stroke-linejoin:miter;marker:none;marker-start:none;marker-mid:none;marker-end:none;stroke-miterlimit:4;stroke-dasharray:none;stroke-dashoffset:0;stroke-opacity:1;visibility:visible;display:inline;overflow:visible;enable-background:accumulate"
       d="M 487.45525,142.5242 C 458.8825,142.92797 445.35807,159.64387 438.23307,168.99412 C 438.23307,168.99412 456.77375,168.81309 477.03061,175.79297 C 424.9484,162.78856 385.82659,192.04784 391.14958,203.11583 C 403.70942,197.92464 436.41403,203.75462 434.17375,204.75031 C 413.41925,204.65953 360.07443,202.87161 365.66712,241.44247 C 346.75234,304.89855 369.32798,364.07414 379.09046,367.73508 C 413.95557,375.82333 414.51901,328.74913 438.26639,321.03011 C 444.67993,323.34896 426.92833,346.55077 421.49687,349.35682 C 419.80647,350.23013 425.9202,352.4517 432.24326,343.69405 C 451.92716,324.4857 445.23453,309.22029 420.77615,312.57456 C 413.35976,313.6394 398.02548,314.4412 392.2032,313.18348 C 391.23449,314.53455 406.96211,318.36742 402.79889,321.58547 C 402.79889,321.58547 391.78533,318.15148 389.52955,312.78001 C 389.52955,312.78001 388.83416,312.28709 388.50004,312.02498 C 391.66994,323.85519 404.45583,331.42496 404.45583,331.42496 C 390.08855,329.98928 378.61896,304.5663 377.88068,298.79087 C 377.88068,298.79087 406.0787,247.18418 406.0787,251.45528 C 409.71347,263.89557 425.98119,269.31784 441.29082,261.89279 C 441.36096,261.87991 436.89423,269.24083 421.9988,268.89403 C 427.45016,287.47759 447.98817,281.06276 463.24692,263.59162 C 463.24692,263.59161 461.14123,272.30677 448.48511,280.33539 C 464.76069,293.72806 540.85302,309.01646 570.41481,268.79107 C 562.20179,269.96313 507.69837,277.40742 509.6044,267.8773 C 521.95953,248.65821 497.24926,185.50976 497.24927,185.50976 C 491.87885,177.40542 532.73492,166.2178 552.97606,171.04396 C 551.76744,170.03721 550.61419,169.10416 549.59126,168.2898 C 525.12962,148.8158 504.41335,142.28456 487.45525,142.5242 z M 556.21928,173.82387 C 568.48557,188.84312 572.84508,248.92451 572.19086,266.22995 C 580.41641,253.54723 584.31082,235.82903 581.05824,211.54563 C 579.01159,196.26561 566.18707,182.59528 556.21928,173.82387 z "
       id="path5901"
       sodipodi:nodetypes="csccccccscccssccccccscccccscccsc" />
    <path
       style="color:#000000;fill:#555753;fill-opacity:1;fill-rule:nonzero;stroke:none;stroke-width:10;stroke-linecap:butt;stroke-linejoin:miter;marker:none;marker-start:none;marker-mid:none;marker-end:none;stroke-miterlimit:4;stroke-dasharray:none;stroke-dashoffset:0;stroke-opacity:1;visibility:visible;display:inline;overflow:visible;enable-background:accumulate"
       d="M 213.64755,125.26563 C 193.49728,125.72689 175.64959,139.98941 167.43162,157.83942 C 161.67281,169.68558 160.53478,183.59777 162.55394,196.39772 C 146.50977,201.96605 133.43042,215.5888 129.07923,232.07316 C 109.83208,229.92393 90.031624,228.89855 70.997268,233.03841 C 63.467104,234.63391 56.263733,237.43895 49.388638,240.79898 C 44.375873,242.25327 38.6225,241.54889 34.343713,245.05892 C 30.261083,247.82089 28.706272,253.0114 29.607579,257.72293 C 31.092995,266.82131 38.333226,273.54395 45.154452,279.09988 C 56.846689,288.09645 72.21919,291.89927 86.853019,289.64035 C 108.54624,287.14393 127.81213,275.81415 147.92081,268.22479 C 156.36941,265.66878 165.5076,267.9869 174.00957,265.46433 C 177.87924,264.53626 181.63998,263.00344 184.96046,260.76023 C 210.16361,280.94113 208.02115,310.59249 200.32798,339.06955 C 192.68361,333.20033 185.47686,321.14234 176.2218,318.18585 C 158.95571,323.10721 153.45862,343.82621 142.93321,359.90185 C 147.65336,363.53985 150.05586,361.25022 154.7298,364.9473 C 162.04906,355.51148 168.89039,345.06389 176.24915,335.63119 C 184.01599,341.16024 193.02354,352.41279 199.30588,359.55675 C 207.42687,410.19857 250.98509,405.73096 291.57574,391.57035 C 298.72521,397.97671 308.66769,404.20773 318.70772,404.15642 C 327.9762,402.93178 329.56707,388.42627 332.23717,375.32798 C 328.28069,370.09366 328.50041,369.33675 323.37502,366.14201 C 317.94336,375.92466 319.11252,379.59709 313.60486,389.33768 C 312.54235,388.53889 303.24614,379.65436 304.9049,377.89379 C 327.32308,330.60077 313.95304,296.53479 275.6291,264.80139 C 294.84097,254.41848 318.19134,255.05853 338.66081,260.97099 C 339.80828,261.54198 342.52964,261.68015 342.58877,262.67271 C 339.22909,267.16966 336.14146,273.587 339.18081,279.00979 C 343.33182,285.36005 350.24186,289.10348 356.18198,293.56568 C 368.45328,301.63754 381.57255,308.7348 395.64118,313.10223 C 416.41049,312.40502 416.09196,301.14454 407.44291,288.90677 C 411.66134,286.77292 416.04343,280.81815 410.35651,269.14604 C 417.15865,252.48889 394.90243,239.53089 380.40359,238.00092 C 371.70637,237.55313 363.31425,240.45353 355.03851,242.49643 C 340.02208,240.74837 325.09032,238.57535 310.0819,236.65486 C 328.75181,223.96016 343.96662,204.55685 347.45617,181.80322 C 349.96248,165.12383 344.26421,146.33556 329.97507,136.56231 C 315.61092,126.56201 296.47503,126.64913 280.28215,131.82756 C 269.70727,134.92244 259.72402,139.9123 250.31396,145.48429 C 242.07065,133.7002 228.44097,124.81431 213.64755,125.26563 z "
       id="path5903"
       sodipodi:nodetypes="ccccccccccccccccccccccccccccccccccccccccc" />
    <path
       style="color:#000000;fill:#b4b4b4;fill-opacity:1;fill-rule:nonzero;stroke:none;stroke-width:10;stroke-linecap:butt;stroke-linejoin:miter;marker:none;marker-start:none;marker-mid:none;marker-end:none;stroke-miterlimit:4;stroke-dasharray:none;stroke-dashoffset:0;stroke-opacity:1;visibility:visible;display:inline;overflow:visible;enable-background:accumulate"
       d="M 213.67325,129.39688 C 185.54152,129.78276 158.14398,161.98606 167.63754,199.17763 C 143.40105,205.23772 132.35775,228.62177 132.57985,236.56477 C 68.513639,228.63275 55.101733,244.50785 47.779918,245.72816 C 45.949423,245.72813 26.447342,245.1144 36.209832,264.0292 C 74.649568,314.672 134.30492,262.03521 155.17945,262.79368 C 173.11098,263.44521 178.54634,258.09648 181.71724,256.01123 C 194.41391,242.14546 192.18306,240.04227 197.41855,232.06029 L 210.59736,214.78885 C 213.929,215.81396 206.03543,233.28942 199.77373,236.82217 C 197.94509,241.86851 185.64539,256.058 186.29893,256.70621 C 219.9735,283.92252 206.97533,319.21631 201.73473,354.57297 C 201.30243,354.20696 200.78611,343.57373 200.36154,343.22117 C 186.29407,331.53951 176.55638,322.27849 176.55638,322.27849 C 167.39917,320.23486 156.01231,344.22024 147.60954,358.62317 L 152.96821,360.91207 L 176.15364,330.04564 C 176.15368,330.04563 194.84045,349.45271 202.77244,359.21518 C 215.57178,418.3787 274.18912,393.62565 287.9851,388.44007 C 289.05311,388.03863 279.81229,377.19808 279.76017,374.57126 C 289.87725,385.76966 300.55736,397.91082 317.39123,401.67011 C 326.09089,401.67007 329.84426,372.30699 329.84426,372.30699 C 328.7462,369.86202 327.12557,368.25316 325.20096,367.13067 L 315.22647,394.73929 C 309.54359,392.12881 292.78214,372.62184 289.76208,367.14103 C 290.01438,366.68356 301.77469,376.70663 302.017,376.25122 C 331.67902,320.5038 287.21099,278.84504 272.47666,267.60683 C 271.92168,267.18354 261.33777,273.23437 260.87271,272.89826 C 259.3822,271.82105 268.45312,264.76515 268.12594,264.62121 C 302.89936,240.30583 351.65801,260.35648 349.21935,260.96615 C 349.21935,260.96614 338.64187,272.41419 342.99031,277.52975 C 354.5774,291.16096 390.1446,308.30247 396.79948,309.18977 C 410.72413,309.23072 410.7671,301.54036 406.7153,294.68562 C 404.3844,290.74225 400.05556,287.98848 397.39558,285.19335 C 415.17295,287.78717 411.49278,271.90944 401.90417,267.33764 C 401.96443,266.67094 407.85118,267.80601 407.88829,267.14889 C 406.97687,239.29686 375.8598,239.58892 356.52947,246.96367 L 298.1,239.17736 C 373.03288,197.84352 349.83456,107.87366 272.51458,138.89488 C 243.33874,147.18191 231.40056,182.42424 229.20913,212.0123 C 228.71257,209.88291 227.14874,201.01315 226.90181,198.98828 C 199.35118,182.44728 188.68496,190.90392 170.12141,204.60874 C 191.42508,174.23567 214.49149,186.00178 228.04898,196.05024 C 227.01786,177.94557 235.67753,163.63499 246.95493,147.94244 C 244.87988,139.05424 225.54497,129.23403 213.67325,129.39688 z M 305.70613,161.61031 C 315.79018,161.66467 323.8753,166.71692 325.1912,180.64493 C 315.65524,150.25012 265.48396,177.40101 258.79524,203.14157 C 278.63656,194.12216 276.81913,226.73716 258.10026,220.16848 C 259.99693,227.51989 267.40359,228.02782 280.42959,222.56229 C 243.21276,243.33765 246.04345,202.671 263.50563,181.33991 C 271.95401,172.13961 290.9679,161.53085 305.70613,161.61031 z M 238.15189,240.82472 C 255.45445,246.51175 260.15015,248.86749 286.15671,240.82472 C 272.15566,246.85067 253.31979,251.90966 246.55347,259.38256 L 250.15004,250.91776 L 238.15189,240.82472 z "
       id="path5905"
       sodipodi:nodetypes="cccccsccccccscccccsccccccssscsscscccccccccccccccccccccccc" />
    <path
       style="color:#000000;fill:#8f5902;fill-opacity:1;fill-rule:nonzero;stroke:none;stroke-width:10;stroke-linecap:butt;stroke-linejoin:miter;marker:none;marker-start:none;marker-mid:none;marker-end:none;stroke-miterlimit:4;stroke-dasharray:none;stroke-dashoffset:0;stroke-opacity:1;visibility:visible;display:inline;overflow:visible;enable-background:accumulate"
       d="M 70.920007,322.53589 C 63.894715,323.1675 56.159826,322.69868 50.031352,326.65298 C 36.911026,337.16669 33.053425,357.13995 40.199509,372.25242 C 46.624878,386.74181 59.980198,396.59829 73.377855,404.29261 C 90.927577,413.92924 110.19944,420.09837 129.49091,425.28921 C 139.82498,427.80953 150.43812,430.1047 161.13824,429.57508 C 166.17943,429.1165 172.01863,426.08439 172.50237,420.48891 C 173.26472,413.85602 169.25635,408.08218 167.38014,401.96911 C 164.07469,393.59107 160.45945,385.33903 156.92976,377.0529 C 161.6364,373.11967 166.34045,369.18329 171.04805,365.25118 C 164.68458,357.12039 157.64722,348.04999 147.00702,345.76611 C 142.6212,344.42843 137.69883,347.78639 137.27736,352.32977 C 136.55281,354.29722 136.02504,356.32679 135.47557,358.3529 C 121.56418,336.8381 97.109755,321.44424 70.920007,322.53589 z "
       id="path5907" />
    <path
       style="color:#000000;fill:#555753;fill-opacity:1;fill-rule:nonzero;stroke:none;stroke-width:10;stroke-linecap:butt;stroke-linejoin:miter;marker:none;marker-start:none;marker-mid:none;marker-end:none;stroke-miterlimit:4;stroke-dasharray:none;stroke-dashoffset:0;stroke-opacity:1;visibility:visible;display:inline;overflow:visible;enable-background:accumulate"
       d="M 130.90676,234.87881 C 133.04362,239.18636 138.0998,242.60469 142.97876,240.79898 C 151.20933,259.17928 176.81126,245.69652 181.05035,229.87599 C 185.23013,214.27692 186.94243,193.78607 166.55819,199.40798 C 152.65006,180.61138 123.17084,213.64415 130.90676,234.87881 z "
       id="path5909"
       sodipodi:nodetypes="cczcc" />
    <path
       style="color:#000000;fill:#ffffff;fill-opacity:1;fill-rule:nonzero;stroke:none;stroke-width:10;stroke-linecap:butt;stroke-linejoin:miter;marker:none;marker-start:none;marker-mid:none;marker-end:none;stroke-miterlimit:4;stroke-dasharray:none;stroke-dashoffset:0;stroke-opacity:1;visibility:visible;display:inline;overflow:visible;enable-background:accumulate"
       d="M 133.35567,210.7766 C 126.29101,218.60328 131.3382,244.84038 144.65876,237.44032 C 148.75,258.18866 173.18977,243.41826 176.8597,229.72187 C 184.23134,202.21045 173.13318,199.74827 165.47506,203.98652 C 158.18141,208.0231 151.84591,215.816 145.68614,233.12672 C 147.37586,221.66694 155.21174,205.03567 163.38503,201.59668 C 158.59202,192.15577 138.49166,202.65708 133.35567,210.7766 z "
       id="path5911"
       sodipodi:nodetypes="ccssccc" />
    <path
       style="color:#000000;fill:#000000;fill-opacity:1;fill-rule:nonzero;stroke:none;stroke-width:10;stroke-linecap:butt;stroke-linejoin:miter;marker:none;marker-start:none;marker-mid:none;marker-end:none;stroke-miterlimit:4;stroke-dasharray:none;stroke-dashoffset:0;stroke-opacity:1;visibility:visible;display:inline;overflow:visible;enable-background:accumulate"
       d="M 164.85677,228.04394 C 162.82353,227.94013 160.94443,230.3239 160.63766,233.35228 C 160.33088,236.38067 161.69843,238.92291 163.73167,239.02672 C 165.76495,239.13053 167.64404,236.74677 167.95086,233.71837 C 167.96042,233.62391 167.94456,233.53728 167.95086,233.44381 C 167.55558,233.87888 166.98383,234.17599 166.26319,234.17599 C 165.06405,234.17599 164.06921,233.40182 164.06921,232.43705 C 164.06921,231.47228 165.06405,230.69811 166.26319,230.69811 C 166.86275,230.69811 167.38887,230.88514 167.78205,231.20149 C 167.34975,229.40129 166.28383,228.1168 164.85677,228.04394 z "
       id="path5913" />
    <path
       id="path5915"
       d="M 143.76887,220.91784 C 142.11336,220.84218 140.62556,223.25159 140.4275,226.28379 C 140.22949,229.31599 141.38503,231.83894 143.04053,231.91461 C 144.69604,231.99027 146.18384,229.58087 146.38189,226.54867 C 146.38807,226.45408 146.3737,226.36767 146.37724,226.27413 C 146.06313,226.71461 145.60315,227.01959 145.01702,227.02955 C 144.04171,227.04615 143.21943,226.28586 143.203,225.32122 C 143.18661,224.35658 143.98257,223.56876 144.95788,223.55218 C 145.44554,223.54388 145.87665,223.7236 146.20184,224.03448 C 145.81957,222.2405 144.93078,220.97095 143.76887,220.91784 z "
       style="color:#000000;fill:#000000;fill-opacity:1;fill-rule:nonzero;stroke:none;stroke-width:10;stroke-linecap:butt;stroke-linejoin:miter;marker:none;marker-start:none;marker-mid:none;marker-end:none;stroke-miterlimit:4;stroke-dasharray:none;stroke-dashoffset:0;stroke-opacity:1;visibility:visible;display:inline;overflow:visible;enable-background:accumulate" />
    <path
       style="color:#000000;fill:#a40000;fill-opacity:1;fill-rule:nonzero;stroke:none;stroke-width:10;stroke-linecap:butt;stroke-linejoin:miter;marker:none;marker-start:none;marker-mid:none;marker-end:none;stroke-miterlimit:4;stroke-dasharray:none;stroke-dashoffset:0;stroke-opacity:1;visibility:visible;display:inline;overflow:visible;enable-background:accumulate"
       d="M 199.70738,236.90868 C 198.39802,239.1495 196.58746,243.13818 194.95094,244.21316 C 210.87708,261.50079 212.90229,299.35853 236.05082,277.20056 C 253.90135,255.32519 219.99722,234.3438 204.52642,231.25866 C 200.97069,232.89051 202.14797,233.69419 199.70738,236.90868 z "
       id="path5917"
       sodipodi:nodetypes="ccccc" />
    <path
       style="color:#000000;fill:#ef2929;fill-opacity:1;fill-rule:nonzero;stroke:none;stroke-width:10;stroke-linecap:butt;stroke-linejoin:miter;marker:none;marker-start:none;marker-mid:none;marker-end:none;stroke-miterlimit:4;stroke-dasharray:none;stroke-dashoffset:0;stroke-opacity:1;visibility:visible;display:inline;overflow:visible;enable-background:accumulate"
       d="M 203.13284,232.31218 C 202.39783,232.43306 201.70356,233.60219 199.61929,237.07957 C 212.45928,234.58636 218.48986,249.79785 216.86499,250.00097 L 199.2551,237.5316 C 196.83819,240.67252 194.92813,244.06117 194.6788,244.06117 C 209.43948,250.96593 214.8336,284.478 224.41966,279.71764 C 238.86853,272.54245 242.42385,247.99246 204.13665,232.43352 C 204.09374,232.41922 203.18811,232.30309 203.13284,232.31218 z "
       id="path5919"
       sodipodi:nodetypes="cccccscc" />
    <path
       sodipodi:type="arc"
       style="color:#000000;fill:#000000;fill-opacity:1;fill-rule:nonzero;stroke:none;stroke-width:10;stroke-linecap:butt;stroke-linejoin:miter;marker:none;marker-start:none;marker-mid:none;marker-end:none;stroke-miterlimit:4;stroke-dasharray:none;stroke-dashoffset:0;stroke-opacity:1;visibility:visible;display:inline;overflow:visible;enable-background:accumulate"
       id="path5921"
       sodipodi:cx="21.655146"
       sodipodi:cy="97.082977"
       sodipodi:rx="12.816311"
       sodipodi:ry="24.896051"
       d="M 34.471457 97.082977 A 12.816311 24.896051 0 1 1  8.8388348,97.082977 A 12.816311 24.896051 0 1 1  34.471457 97.082977 z"
       transform="matrix(1.6655823,-0.189739,0.2388868,1.3229105,-23.448854,106.96423)" />
    <path
       style="color:#000000;fill:#e9b96e;fill-opacity:1;fill-rule:nonzero;stroke:none;stroke-width:10;stroke-linecap:butt;stroke-linejoin:miter;marker:none;marker-start:none;marker-mid:none;marker-end:none;stroke-miterlimit:4;stroke-dasharray:none;stroke-dashoffset:0;stroke-opacity:1;visibility:visible;display:inline;overflow:visible;enable-background:accumulate"
       d="M 134.95237,365.24209 C 134.95237,365.24209 113.11047,316.35666 55.728385,328.43711 C 48.393844,327.14276 0.40824494,386.43691 126.91671,420.33476 C 166.59715,430.96709 169.62972,423.35489 168.33536,416.88319 C 167.04103,410.41153 151.94047,375.89597 151.94047,375.89597 L 165.31527,364.67843 C 165.31527,364.67843 152.80339,347.42065 142.88016,350.00933 C 141.61508,351.27439 139.2982,358.79764 138.01302,363.80035 C 137.83663,364.48692 143.1285,376.06936 142.97035,376.69027 C 142.31598,379.25997 134.95237,365.24209 134.95237,365.24209 z "
       id="path5923"
       sodipodi:nodetypes="ccsscccssc" />
    <path
       style="opacity:0.6;color:#000000;fill:#c17d11;fill-opacity:1;fill-rule:nonzero;stroke:none;stroke-width:10;stroke-linecap:butt;stroke-linejoin:miter;marker:none;marker-start:none;marker-mid:none;marker-end:none;stroke-miterlimit:4;stroke-dasharray:none;stroke-dashoffset:0;stroke-opacity:1;visibility:visible;display:inline;overflow:visible;enable-background:accumulate"
       d="M 52.803473,337.54652 C 69.747546,328.80459 90.272673,372.47224 116.63786,390.74427 C 138.1117,405.62643 161.21015,413.6487 160.22446,421.28685 C 141.62513,428.81368 10.162415,390.08792 52.803473,337.54652 z "
       id="path5925"
       sodipodi:nodetypes="cscc" />
    <path
       sodipodi:type="arc"
       style="opacity:0.4;color:#000000;fill:#ffffff;fill-opacity:1;fill-rule:nonzero;stroke:none;stroke-width:10;stroke-linecap:butt;stroke-linejoin:miter;marker:none;marker-start:none;marker-mid:none;marker-end:none;stroke-miterlimit:4;stroke-dasharray:none;stroke-dashoffset:0;stroke-opacity:1;visibility:visible;display:inline;overflow:visible;enable-background:accumulate"
       id="path5927"
       sodipodi:cx="-1541.4626"
       sodipodi:cy="590.00568"
       sodipodi:rx="24.726122"
       sodipodi:ry="34.978416"
       d="M -1516.7365 590.00568 A 24.726122 34.978416 0 1 1  -1566.1888,590.00568 A 24.726122 34.978416 0 1 1  -1516.7365 590.00568 z"
       transform="matrix(0.4118377,0,0,0.4657017,663.29001,-50.901396)" />
    <path
       style="opacity:0.4;color:#000000;fill:#ffffff;fill-opacity:1;fill-rule:nonzero;stroke:none;stroke-width:10;stroke-linecap:butt;stroke-linejoin:miter;marker:none;marker-start:none;marker-mid:none;marker-end:none;stroke-miterlimit:4;stroke-dasharray:none;stroke-dashoffset:0;stroke-opacity:1;visibility:visible;display:inline;overflow:visible;filter:url(#filter5275);enable-background:accumulate"
       d="M -1473.7049,625.61122 C -1474.4646,626.26277 -1476.8975,646.56014 -1474.5869,645.63562 C -1435.3152,629.92189 -1374.4643,617.22475 -1301.4017,614.69524 C -1315.8755,611.07678 -1413.0544,596.03646 -1473.7049,625.61122 z "
       id="path5929"
       sodipodi:nodetypes="cscc"
       transform="matrix(0.4118377,0,0,0.4118377,666.78483,-14.643358)" />
    <path
       style="color:#000000;fill:#555753;fill-opacity:1;fill-rule:nonzero;stroke:none;stroke-width:10;stroke-linecap:butt;stroke-linejoin:miter;marker:none;marker-start:none;marker-mid:none;marker-end:none;stroke-miterlimit:4;stroke-dasharray:none;stroke-dashoffset:0;stroke-opacity:1;visibility:visible;display:inline;overflow:visible;enable-background:accumulate"
       d="M 127.57463,208.2253 C 127.57463,208.2253 115.90129,220.89215 127.32629,230.57856 C 124.34586,222.38236 124.84258,213.44106 127.57463,208.2253 z "
       id="path5931"
       sodipodi:nodetypes="ccc" />
    <path
       style="color:#000000;fill:#ffffff;fill-opacity:1;fill-rule:nonzero;stroke:none;stroke-width:10;stroke-linecap:butt;stroke-linejoin:miter;marker:none;marker-start:none;marker-mid:none;marker-end:none;stroke-miterlimit:4;stroke-dasharray:none;stroke-dashoffset:0;stroke-opacity:1;visibility:visible;display:inline;overflow:visible;enable-background:accumulate"
       d="M 549.4497,173.54073 C 533.24658,173.78507 516.66393,176.27444 502.34576,184.13268 C 501.47988,184.60821 500.15912,185.78966 501.2132,186.8225 C 509.089,208.94001 516.53128,231.81479 516.29676,255.56078 C 516.00569,259.82255 515.04697,264.03912 513.47825,267.99313 C 517.71907,269.47023 522.3738,268.98018 526.79862,269.293 C 540.94051,269.33564 555.12474,267.36186 569.03773,265.6122 C 568.74013,263.69161 568.80107,261.73585 568.86293,259.75645 C 568.38495,236.46604 565.8973,213.07024 560.11887,190.52904 C 558.3729,184.84909 556.54091,178.69216 552.15238,174.44163 C 551.37537,173.87479 550.42435,173.48283 549.4497,173.54073 z "
       id="path5933" />
    <path
       style="font-size:65.09156799px;font-style:normal;font-variant:normal;font-weight:normal;font-stretch:normal;text-align:center;line-height:100%;writing-mode:lr-tb;text-anchor:middle;fill:#555753;fill-opacity:1;stroke:none;stroke-width:1px;stroke-linecap:butt;stroke-linejoin:miter;stroke-opacity:1;font-family:Bitstream Vera Sans"
       d="M 527.70224,258.74942 C 527.00308,256.08426 527.33385,251.20883 527.33385,251.20883 C 527.33385,251.20883 543.15414,247.05968 539.6529,246.39147 C 535.11839,245.253 530.5839,244.11448 526.04941,242.97599 C 524.75648,240.11212 526.63867,235.52709 526.63867,235.52709 C 526.63867,235.52709 547.99848,235.47796 555.5929,235.04199 C 557.47443,238.17059 554.96682,240.23068 554.96682,240.23068 C 550.03067,240.51403 538.10076,240.59173 533.16461,240.87509 C 538.20549,242.1383 543.2464,243.40139 548.2873,244.66455 C 548.74459,251.30657 539.04577,250.15251 535.09949,253.38285 C 541.51137,253.01471 549.76614,255.5698 557.83201,255.5698 C 561.83323,256.37004 558.99363,261.24938 557.86066,261.02279 C 550.75621,261.43063 533.9839,259.57578 527.70224,258.74942 z M 548.83483,218.03168 C 549.45383,220.60682 548.53463,223.67251 550.39946,225.83853 C 552.6305,226.45534 556.04375,227.08956 555.15884,230.4587 C 552.0754,233.51472 524.29643,226.24698 524.29643,226.24698 C 520.25997,223.73709 524.3362,220.05359 528.23937,218.50255 C 528.23937,218.50255 545.8432,213.75221 553.10236,211.27418 C 554.66136,214.49987 552.65915,218.44746 548.83483,218.03168 z M 543.89458,225.33655 C 544.83827,222.12644 543.97727,219.42304 543.97727,219.42304 C 542.64936,219.89373 530.80694,221.90613 531.9739,223.10205 C 535.12466,223.70975 540.74382,224.72886 543.89458,225.33655 z M 520.53442,211.00405 C 518.37861,207.68991 525.4707,205.50796 525.4707,205.50796 C 532.6935,205.09332 541.9733,203.65021 549.1961,203.23558 C 551.35192,206.5497 545.69971,209.14306 545.69971,209.14306 C 538.47691,209.55769 527.75722,210.58942 520.53442,211.00405 z M 519.86837,199.69322 C 516.1975,191.51496 537.4446,193.67141 542.82732,193.257 C 543.34528,190.19619 536.72647,180.00219 540.64881,178.27082 C 545.30966,178.15085 547.83396,197.08679 546.98476,198.23104 C 538.49449,198.71838 528.35863,199.20585 519.86837,199.69322 z "
       id="path5935"
       sodipodi:nodetypes="cccccccccccccccccccccccccccccccccc" />
    <path
       sodipodi:nodetypes="cscc"
       id="path5937"
       d="M -1047.0838,507.76009 C -1047.8435,508.41164 -1048.9385,530.07523 -1047.9658,527.78449 C -1007.5156,432.52125 -944.89693,370.62126 -863.87938,366.02936 C -935.80561,368.59808 -1014.1283,375.65485 -1047.0838,507.76009 z "
       style="opacity:0.2;color:#000000;fill:#ffffff;fill-opacity:1;fill-rule:nonzero;stroke:none;stroke-width:10;stroke-linecap:butt;stroke-linejoin:miter;marker:none;marker-start:none;marker-mid:none;marker-end:none;stroke-miterlimit:4;stroke-dasharray:none;stroke-dashoffset:0;stroke-opacity:1;visibility:visible;display:inline;overflow:visible;filter:url(#filter5275);enable-background:accumulate"
       transform="matrix(0.4118377,0,0,0.4118377,666.78483,-14.643358)" />
  </g>
</svg>
