<?xml version="1.0" encoding="UTF-8" ?>
<!DOCTYPE svg PUBLIC "-//W3C//DTD SVG 1.1//EN" "http://www.w3.org/Graphics/SVG/1.1/DTD/svg11.dtd">
<svg width="247pt" height="302pt" viewBox="0 0 247 302" version="1.1" xmlns="http://www.w3.org/2000/svg">
<path fill="#ffffff" d=" M 0.00 0.00 L 247.00 0.00 L 247.00 302.00 L 0.00 302.00 L 0.00 0.00 Z" />
<path fill="#12313f" d=" M 79.26 26.64 C 87.83 19.42 96.39 12.16 104.97 4.94 C 105.86 10.13 106.57 15.37 106.75 20.65 C 111.91 16.86 117.54 13.28 121.04 7.78 C 122.31 12.08 123.60 16.38 124.85 20.69 C 126.47 15.82 128.23 11.00 129.91 6.16 C 136.22 12.64 143.55 18.14 151.37 22.68 C 151.37 19.42 151.37 16.15 151.38 12.89 C 158.18 17.55 164.77 22.54 171.11 27.81 C 171.09 25.83 171.14 23.85 171.14 21.86 C 194.84 33.40 214.01 54.33 222.72 79.29 C 230.63 101.51 229.40 125.64 226.67 148.68 C 231.18 147.84 235.15 151.34 236.57 155.37 C 238.43 160.67 238.56 166.66 236.90 172.02 C 235.69 176.02 232.48 179.10 228.60 180.52 C 227.39 200.56 219.82 220.40 206.34 235.41 C 197.88 244.79 187.19 252.15 175.45 256.77 C 176.02 252.85 176.48 248.32 174.11 244.87 C 170.90 242.34 166.39 242.79 162.54 242.48 C 171.30 238.20 179.51 231.97 184.16 223.21 C 187.85 216.32 189.59 207.85 186.67 200.37 C 184.69 194.97 180.45 190.80 175.72 187.71 C 183.82 180.59 190.60 171.00 191.35 159.94 C 192.10 149.81 186.53 140.42 179.46 133.61 C 173.35 127.48 164.46 124.95 155.97 125.16 C 144.38 125.41 133.09 129.30 123.10 135.02 C 110.48 127.91 95.54 123.17 81.00 126.03 C 71.19 127.90 63.60 135.41 58.75 143.78 C 55.26 149.85 53.86 157.16 55.38 164.05 C 57.36 173.43 63.36 181.47 70.46 187.71 C 65.68 190.77 61.44 194.98 59.48 200.41 C 56.43 208.32 58.54 217.25 62.66 224.36 C 67.36 232.50 75.17 238.32 83.49 242.42 C 79.57 242.60 75.50 242.53 71.76 243.85 C 68.32 246.13 68.24 250.91 67.65 254.58 C 51.75 247.65 38.62 234.89 30.33 219.72 C 23.73 207.66 19.98 194.11 19.10 180.41 C 12.39 178.11 9.59 170.57 9.98 163.99 C 9.82 157.73 12.15 150.03 19.01 148.38 C 17.03 134.04 17.05 119.49 17.78 105.06 C 19.62 76.93 33.70 49.71 55.98 32.38 C 55.99 33.52 55.99 35.82 56.00 36.97 C 61.99 29.90 69.24 24.02 76.80 18.70 C 77.63 21.35 78.44 24.00 79.26 26.64 Z" />
<path fill="#153b4c" d=" M 75.94 103.85 C 88.12 101.60 100.81 103.30 112.36 107.60 C 115.53 108.71 118.54 110.24 121.74 111.27 C 123.86 112.01 125.91 110.53 127.87 109.91 C 141.81 103.78 157.68 100.72 172.67 104.48 C 186.77 107.93 199.28 118.43 204.15 132.22 C 202.11 130.46 200.31 128.45 198.60 126.39 C 189.41 115.63 175.15 109.61 161.04 110.32 C 147.57 110.83 134.89 115.88 123.00 121.85 C 110.57 115.59 97.15 110.37 83.04 110.29 C 70.03 110.25 57.12 115.78 48.32 125.37 C 46.27 127.74 44.26 130.17 41.86 132.21 C 47.02 117.53 60.82 106.75 75.94 103.85 Z" />
<path fill="#b4bbcd" d=" M 81.00 126.03 C 95.54 123.17 110.48 127.91 123.10 135.02 C 133.09 129.30 144.38 125.41 155.97 125.16 C 164.46 124.95 173.35 127.48 179.46 133.61 C 186.53 140.42 192.10 149.81 191.35 159.94 C 190.60 171.00 183.82 180.59 175.72 187.71 C 180.45 190.80 184.69 194.97 186.67 200.37 C 189.59 207.85 187.85 216.32 184.16 223.21 C 179.51 231.97 171.30 238.20 162.54 242.48 C 157.62 244.03 152.57 245.09 147.72 246.84 C 142.46 248.70 136.88 250.14 131.27 249.88 C 125.84 246.20 118.50 245.93 113.16 249.97 C 102.88 249.34 93.10 245.84 83.49 242.42 C 75.17 238.32 67.36 232.50 62.66 224.36 C 58.54 217.25 56.43 208.32 59.48 200.41 C 61.44 194.98 65.68 190.77 70.46 187.71 C 63.36 181.47 57.36 173.43 55.38 164.05 C 53.86 157.16 55.26 149.85 58.75 143.78 C 63.60 135.41 71.19 127.90 81.00 126.03 Z" />
<path fill="#99a0bb" d=" M 67.55 136.57 C 74.16 130.73 83.18 127.55 92.00 128.28 C 103.01 129.06 113.20 133.65 123.04 138.29 C 134.33 133.04 146.26 127.64 159.00 128.25 C 167.05 128.91 174.99 132.48 180.52 138.43 C 185.25 143.59 187.68 150.53 188.03 157.46 C 185.56 154.12 183.58 150.39 180.54 147.51 C 175.02 142.18 167.58 139.16 160.02 138.27 C 148.18 136.84 136.24 139.27 125.07 143.12 C 123.45 143.86 121.73 143.40 120.15 142.83 C 109.55 139.14 98.20 137.03 86.97 138.17 C 79.34 138.98 71.74 141.80 66.09 147.10 C 62.83 150.01 60.73 153.90 58.15 157.36 C 58.49 149.57 61.66 141.80 67.55 136.57 Z" />
<path fill="#b4bbcd" d=" M 13.03 165.98 C 12.81 160.82 13.30 153.59 19.03 151.56 C 23.67 151.67 27.11 156.57 26.59 160.99 C 26.40 163.58 24.86 165.75 23.44 167.82 C 24.28 167.87 25.98 167.97 26.82 168.03 C 25.11 171.27 23.48 174.58 22.40 178.09 C 16.41 177.53 12.94 171.58 13.03 165.98 Z" />
<path fill="#b4bbcd" d=" M 222.26 156.26 C 223.70 153.11 228.11 149.87 231.25 152.76 C 235.53 156.86 235.35 163.55 234.61 168.99 C 233.99 173.64 230.33 177.56 225.60 178.09 C 224.52 174.57 222.89 171.27 221.18 168.03 C 222.02 167.98 223.72 167.87 224.57 167.82 C 222.02 164.63 220.18 160.17 222.26 156.26 Z" />
<path fill="#090a0b" d=" M 90.20 155.26 C 93.55 154.24 97.31 155.98 98.95 159.00 C 101.91 163.94 100.12 171.34 94.79 173.86 C 91.39 175.56 86.97 174.15 85.06 170.92 C 81.56 165.65 83.89 157.10 90.20 155.26 Z" />
<path fill="#090a0b" d=" M 153.22 155.16 C 161.95 153.84 167.12 166.27 161.22 172.22 C 157.49 176.34 150.48 174.39 148.15 169.75 C 144.91 164.77 146.77 156.28 153.22 155.16 Z" />
<path fill="#abb3ca" d=" M 155.18 157.16 C 158.83 155.41 161.44 161.27 157.77 162.84 C 154.11 164.71 151.44 158.76 155.18 157.16 Z" />
<path fill="#abb3ca" d=" M 93.17 158.04 C 94.90 156.83 97.91 157.95 98.00 160.15 C 98.67 162.50 95.73 164.49 93.68 163.39 C 91.46 162.60 91.16 159.25 93.17 158.04 Z" />
<path fill="#515362" d=" M 85.94 163.26 C 87.01 165.04 87.95 167.00 89.61 168.33 C 91.15 169.61 93.37 170.07 94.39 171.93 C 92.07 172.07 89.28 172.45 87.72 170.27 C 85.75 168.45 85.89 165.70 85.94 163.26 Z" />
<path fill="#4f515f" d=" M 148.86 165.84 C 152.07 168.67 156.16 169.44 160.30 169.57 C 159.49 170.40 158.69 171.24 157.89 172.09 C 153.65 172.83 150.07 169.73 148.86 165.84 Z" />
<path fill="#525365" d=" M 98.95 181.84 C 100.50 174.26 110.30 172.95 116.18 176.10 C 112.18 175.68 107.79 175.16 104.12 177.17 C 100.74 179.16 99.50 183.38 100.03 187.10 C 99.53 186.31 99.07 185.49 98.65 184.66 C 98.72 183.95 98.88 182.54 98.95 181.84 Z" />
<path fill="#525365" d=" M 129.00 176.16 C 134.93 172.94 144.83 174.16 146.45 181.81 C 146.52 182.45 146.66 183.73 146.73 184.38 C 146.24 185.84 145.60 187.24 144.94 188.63 C 145.46 185.52 145.83 182.00 143.67 179.38 C 140.34 174.81 133.91 175.58 129.00 176.16 Z" />
<path fill="#d6dde8" d=" M 104.12 177.17 C 107.79 175.16 112.18 175.68 116.18 176.10 C 118.45 176.68 120.61 177.74 122.97 178.03 C 125.06 177.67 126.98 176.74 129.00 176.16 C 133.91 175.58 140.34 174.81 143.67 179.38 C 145.83 182.00 145.46 185.52 144.94 188.63 C 141.25 190.53 137.16 191.59 133.02 191.80 C 129.59 192.00 126.36 190.63 122.99 190.25 C 119.26 190.40 115.72 192.16 111.93 191.77 C 107.69 191.31 102.75 190.85 100.03 187.10 C 99.50 183.38 100.74 179.16 104.12 177.17 Z" />
<path fill="#525365" d=" M 132.43 181.51 C 135.32 180.83 140.15 182.24 139.48 185.98 C 137.49 190.04 130.44 189.99 128.41 185.98 C 127.84 183.52 130.29 181.83 132.43 181.51 Z" />
<path fill="#9ba3bc" d=" M 85.33 188.54 C 88.80 184.65 93.90 182.62 98.95 181.84 C 98.88 182.54 98.72 183.95 98.65 184.66 C 94.61 185.15 90.70 186.33 87.01 188.04 L 85.33 188.54 Z" />
<path fill="#525365" d=" M 108.41 182.38 C 111.39 180.53 117.17 181.04 117.86 185.12 C 117.21 189.30 111.28 189.86 108.29 187.85 C 106.08 186.73 106.20 183.43 108.41 182.38 Z" />
<path fill="#9da4be" d=" M 146.45 181.81 C 151.78 182.13 157.12 184.51 160.65 188.56 L 159.02 187.98 C 155.14 186.13 150.99 184.92 146.73 184.38 C 146.66 183.73 146.52 182.45 146.45 181.81 Z" />
<path fill="#b4bfd2" d=" M 87.01 188.04 C 90.70 186.33 94.61 185.15 98.65 184.66 C 99.07 185.49 99.53 186.31 100.03 187.10 C 102.75 190.85 107.69 191.31 111.93 191.77 C 115.72 192.16 119.26 190.40 122.99 190.25 C 126.36 190.63 129.59 192.00 133.02 191.80 C 137.16 191.59 141.25 190.53 144.94 188.63 C 145.60 187.24 146.24 185.84 146.73 184.38 C 150.99 184.92 155.14 186.13 159.02 187.98 C 161.69 189.95 164.37 191.94 166.78 194.23 C 169.03 196.28 169.80 199.31 171.24 201.89 C 172.11 203.09 173.11 204.19 174.06 205.33 C 161.26 217.35 143.11 221.60 126.00 222.03 C 107.31 222.39 87.28 218.24 73.09 205.32 C 73.96 204.22 74.84 203.13 75.61 201.95 C 75.07 194.88 82.05 191.41 87.01 188.04 Z" />
<path fill="#0a1b23" d=" M 27.97 189.36 C 29.54 188.58 31.10 187.81 32.68 187.06 C 33.00 190.73 33.17 194.42 33.40 198.10 C 35.88 196.38 38.28 194.54 40.70 192.74 C 37.58 198.79 35.75 205.44 36.42 212.29 C 34.73 209.20 34.45 205.65 34.19 202.22 C 32.93 202.78 31.66 203.34 30.39 203.91 C 30.42 199.45 30.73 195.01 30.80 190.55 C 30.09 190.26 28.68 189.66 27.97 189.36 Z" />
<path fill="#0a1b23" d=" M 216.25 187.09 C 217.84 187.82 219.43 188.56 221.02 189.33 C 220.31 189.62 218.91 190.22 218.20 190.51 C 218.25 194.98 218.56 199.44 218.57 203.91 C 217.30 203.34 216.03 202.80 214.77 202.23 C 214.54 205.68 214.10 209.17 212.64 212.34 C 213.19 205.47 211.44 198.78 208.25 192.72 C 210.69 194.55 213.10 196.42 215.59 198.19 C 215.80 194.49 215.97 190.79 216.25 187.09 Z" />
<path fill="#525365" d=" M 70.37 213.17 C 67.93 208.66 70.27 202.56 75.61 201.95 C 74.84 203.13 73.96 204.22 73.09 205.32 C 87.28 218.24 107.31 222.39 126.00 222.03 C 143.11 221.60 161.26 217.35 174.06 205.33 C 173.11 204.19 172.11 203.09 171.24 201.89 C 173.30 202.61 175.74 203.21 176.82 205.35 C 178.33 207.78 177.73 210.70 176.83 213.23 C 176.40 211.52 175.97 209.82 175.59 208.12 C 168.35 214.82 159.19 218.98 149.80 221.72 C 132.32 226.22 113.51 226.30 96.14 221.25 C 87.18 218.60 78.58 214.42 71.62 208.12 C 71.27 209.82 70.77 211.48 70.37 213.17 Z" />
<path fill="#d6dde8" d=" M 96.14 221.25 C 113.51 226.30 132.32 226.22 149.80 221.72 L 151.82 221.71 C 146.57 225.22 140.15 226.30 134.03 227.34 C 121.36 228.93 107.86 228.10 96.20 222.57 L 96.14 221.25 Z" />
<path fill="#0f2734" d=" M 71.76 243.85 C 75.50 242.53 79.57 242.60 83.49 242.42 C 93.10 245.84 102.88 249.34 113.16 249.97 C 118.50 245.93 125.84 246.20 131.27 249.88 C 136.88 250.14 142.46 248.70 147.72 246.84 C 152.57 245.09 157.62 244.03 162.54 242.48 C 166.39 242.79 170.90 242.34 174.11 244.87 C 176.48 248.32 176.02 252.85 175.45 256.77 C 174.05 261.80 171.95 266.63 169.15 271.05 C 170.97 277.07 172.69 283.88 170.06 289.91 C 168.51 293.41 164.00 293.26 160.83 292.70 C 151.08 290.80 142.14 286.16 133.40 281.62 C 128.03 288.34 117.09 288.65 111.43 282.13 C 102.70 286.44 93.79 290.81 84.16 292.68 C 80.74 293.25 75.72 293.62 74.14 289.69 C 71.59 283.70 73.37 277.01 75.12 271.05 C 72.62 266.88 70.36 262.50 69.26 257.74 C 69.04 256.54 68.53 255.44 67.65 254.58 C 68.24 250.91 68.32 246.13 71.76 243.85 Z" />
<path fill="#5fb9e8" d=" M 74.10 248.18 C 78.39 247.22 82.72 248.28 86.88 249.34 C 94.28 251.31 101.48 254.00 108.51 257.03 C 107.94 260.63 108.03 264.27 108.07 267.89 C 102.11 271.89 96.21 276.64 89.04 278.16 C 84.78 279.15 82.35 274.87 80.55 271.82 C 80.62 271.42 80.76 270.63 80.83 270.23 C 76.60 263.80 72.36 256.13 74.10 248.18 Z" />
<path fill="#5fb9e8" d=" M 135.84 257.02 C 144.59 253.30 153.56 249.88 162.93 248.13 C 165.32 247.88 168.22 247.12 170.32 248.69 C 171.61 254.29 169.23 259.87 166.73 264.78 C 157.44 268.79 147.27 269.19 137.31 268.62 C 136.92 270.79 136.42 272.95 136.09 275.14 C 136.52 269.12 136.56 263.02 135.84 257.02 Z" />
<path fill="#5fb9e8" d=" M 113.29 260.06 C 113.62 256.08 117.00 252.68 120.95 252.21 C 125.33 251.49 129.95 254.57 130.85 258.94 C 131.38 262.17 131.04 265.47 131.14 268.73 C 128.58 270.92 126.21 273.96 122.68 274.45 C 119.84 274.23 117.19 273.04 114.43 272.42 C 114.14 272.74 113.57 273.39 113.28 273.71 C 113.24 269.16 113.02 264.60 113.29 260.06 Z" />
<path fill="#49aad4" d=" M 137.31 268.62 C 147.27 269.19 157.44 268.79 166.73 264.78 C 165.68 266.66 164.56 268.51 163.36 270.30 C 165.14 275.54 167.11 281.21 165.79 286.78 C 165.30 288.94 162.58 287.70 161.11 287.57 C 152.22 285.21 143.88 281.19 135.73 277.00 C 135.82 276.54 136.00 275.60 136.09 275.14 C 136.42 272.95 136.92 270.79 137.31 268.62 Z" />
<path fill="#49aad4" d=" M 89.04 278.16 C 96.21 276.64 102.11 271.89 108.07 267.89 C 107.97 271.18 108.00 274.50 108.76 277.72 C 99.20 282.01 89.61 287.31 79.00 288.17 C 77.10 282.81 78.54 276.93 80.55 271.82 C 82.35 274.87 84.78 279.15 89.04 278.16 Z" />
<path fill="#49aad4" d=" M 122.68 274.45 C 126.21 273.96 128.58 270.92 131.14 268.73 C 131.38 272.86 131.13 277.83 127.18 280.23 C 121.96 284.02 113.60 280.24 113.28 273.71 C 113.57 273.39 114.14 272.74 114.43 272.42 C 117.19 273.04 119.84 274.23 122.68 274.45 Z" />
</svg>
